<svg width="11" height="14" viewBox="0 0 11 14" fill="none" xmlns="http://www.w3.org/2000/svg">
<path d="M3.48845 12.2881C4.31285 13.4914 6.06269 13.4886 6.8853 12.2881H3.48845Z" fill="white"/>
<path d="M9.13626 7.89026C9.02 7.77536 8.9369 7.63204 8.89444 7.47659C6.58753 7.97486 4.41816 6.22816 4.41816 3.91522C4.41816 2.3396 5.43482 0.994411 6.85376 0.486424C5.68956 -0.250463 4.14788 -0.160681 3.06814 0.828036C2.49068 1.35676 2.13035 2.07211 2.05317 2.84275C1.48288 7.52873 1.50842 7.31856 1.50766 7.32593C1.48676 7.53857 1.39097 7.73898 1.23796 7.89023L0.503172 8.61645C0.178706 8.93712 0 9.36354 0 9.81714C0 10.7534 0.770684 11.5152 1.71799 11.5152H8.65615C9.60346 11.5152 10.3741 10.7534 10.3741 9.81714C10.3741 9.36354 10.1955 8.93712 9.87097 8.61645L9.13626 7.89026Z" fill="white"/>
<path d="M11.0001 3.91523C11.0001 2.13068 9.34471 0.761814 7.56028 1.09387C7.56108 1.09482 7.56189 1.09575 7.56028 1.09387C6.2181 1.34732 5.20045 2.51594 5.20045 3.91523C5.20045 5.76496 6.958 7.14638 8.79159 6.70699C8.79133 6.70483 8.79146 6.70591 8.79159 6.70699C10.0583 6.40269 11.0001 5.25945 11.0001 3.91523ZM8.70628 4.94574C8.70628 5.15915 8.53122 5.33217 8.31529 5.33217C8.09937 5.33217 7.92431 5.15915 7.92431 4.94574V3.27117H7.55676C7.34083 3.27117 7.16577 3.09815 7.16577 2.88473C7.16577 2.67131 7.34083 2.49829 7.55676 2.49829H8.31529C8.53122 2.49829 8.70628 2.67131 8.70628 2.88473V4.94574Z" fill="white"/>
</svg>
