<svg width="7" height="13" viewBox="0 0 7 13" fill="none" xmlns="http://www.w3.org/2000/svg">
<path d="M0.498648 12.4791L0.499243 12.4797L0.145747 12.8324M0.498648 12.4791L0.49865 12.479L6.14637 6.84653L6.49922 6.49463L6.14732 6.14179L0.520927 0.500143L0.161961 0.845904M0.498648 12.4791C0.498311 12.4793 0.498237 12.4794 0.498597 12.479L0.498648 12.4791ZM0.145747 12.8324C-0.0489751 12.6371 -0.0485475 12.3209 0.146702 12.1262L5.44017 6.84703L5.79448 6.49368L5.44113 6.13938L0.161961 0.845904M0.145747 12.8324L0.499349 12.4798L0.851943 12.8333C0.656665 13.028 0.340527 13.0276 0.145747 12.8324ZM0.161961 0.845904L0.51481 0.494009L0.515431 0.493389M0.161961 0.845904C-0.0246856 0.652129 -0.0242706 0.345297 0.1629 0.151998M6.50135 6.49386L6.85425 6.14201L6.50135 6.49386ZM6.50135 6.49386L6.14878 6.14033L0.52239 0.4987L6.50135 6.49386ZM0.51545 0.49337L0.516264 0.492557L0.51545 0.49337ZM0.51545 0.49337L0.1629 0.151998M0.51545 0.49337L0.515431 0.493389M0.1629 0.151998L0.515431 0.493389M0.1629 0.151998L0.515431 0.493389M0.499421 12.4788C0.49961 12.4789 0.499772 12.479 0.499901 12.479L0.499296 12.4796L0.498715 12.4791C0.498852 12.479 0.499027 12.4789 0.499233 12.4788C0.499714 12.4786 0.499731 12.4787 0.499335 12.4787C0.498939 12.4787 0.49895 12.4786 0.499421 12.4788ZM0.521695 0.499417L0.521911 0.499194L0.522297 0.498823C0.522368 0.498953 0.522453 0.499123 0.522533 0.499325C0.522708 0.499768 0.522632 0.499793 0.522633 0.499449C0.522633 0.499106 0.522708 0.499126 0.522537 0.499558C0.522463 0.499743 0.522381 0.499895 0.522314 0.500018L0.521695 0.499417ZM0.52108 0.500052L0.521676 0.499436L0.52229 0.500031C0.522158 0.500107 0.521992 0.500194 0.521796 0.500276C0.521319 0.500479 0.521298 0.500391 0.521688 0.500385C0.522078 0.500379 0.52206 0.500467 0.521578 0.50028C0.521382 0.500204 0.521214 0.500123 0.52108 0.500052Z" fill="black" stroke="#677294"/>
</svg>
