<svg width="18" height="18" viewBox="0 0 18 18" fill="none" xmlns="http://www.w3.org/2000/svg">
<path fill-rule="evenodd" clip-rule="evenodd" d="M0.771427 5.76733C0.771427 3.00842 3.00842 0.771427 5.76733 0.771427C8.52625 0.771427 10.7632 3.00842 10.7632 5.76733C10.7632 8.52625 8.52625 10.7632 5.76733 10.7632C3.00842 10.7632 0.771427 8.52625 0.771427 5.76733V5.76733Z" stroke="white" stroke-width="1.5" stroke-linecap="round" stroke-linejoin="round"/>
<path fill-rule="evenodd" clip-rule="evenodd" d="M10.1755 13.702C10.1755 11.7542 11.7542 10.1755 13.7021 10.1755C15.6499 10.1755 17.2286 11.7542 17.2286 13.702C17.2286 15.6498 15.6499 17.2286 13.7021 17.2286C11.7542 17.2286 10.1755 15.6498 10.1755 13.702V13.702Z" stroke="white" stroke-width="1.5" stroke-linecap="round" stroke-linejoin="round"/>
<path fill-rule="evenodd" clip-rule="evenodd" d="M13.702 5.47343C13.702 4.49952 14.4913 3.71017 15.4652 3.71017C16.4391 3.71017 17.2285 4.49952 17.2285 5.47343C17.2285 6.44734 16.4391 7.23669 15.4652 7.23669C14.4913 7.23669 13.702 6.44734 13.702 5.47343V5.47343Z" stroke="white" stroke-width="1.5" stroke-linecap="round" stroke-linejoin="round"/>
</svg>
