<svg width="18" height="18" viewBox="0 0 18 18" fill="none" xmlns="http://www.w3.org/2000/svg">
<path d="M17.7851 16.751L13.5901 12.5559C13.3043 12.2701 12.8413 12.2701 12.5555 12.5559C12.2696 12.8415 12.2696 13.3049 12.5555 13.5906L16.7505 17.7856C16.8934 17.9285 17.0805 18 17.2678 18C17.4549 18 17.6422 17.9285 17.7851 17.7856C18.071 17.5 18.071 17.0366 17.7851 16.751Z" fill="#677294"/>
<path d="M7.92664 0C3.55601 0 0 3.55605 0 7.92672C0 12.2976 3.55601 15.8534 7.92664 15.8534C12.2975 15.8534 15.8533 12.2976 15.8533 7.92672C15.8533 3.55605 12.2975 0 7.92664 0ZM7.92664 14.3901C4.36283 14.3901 1.46338 11.4906 1.46338 7.92676C1.46338 4.36291 4.36283 1.4634 7.92664 1.4634C11.4905 1.4634 14.3899 4.36287 14.3899 7.92672C14.3899 11.4906 11.4905 14.3901 7.92664 14.3901Z" fill="#677294"/>
</svg>
