<svg width="35" height="27" viewBox="0 0 35 27" fill="none" xmlns="http://www.w3.org/2000/svg">
<g filter="url(#filter0_f_9_1797)">
<path d="M8.19299 4.09438C8.19227 4.09438 8.19145 4.09438 8.19073 4.09438C7.9373 4.09438 7.69894 4.18516 7.51895 4.35014C7.33698 4.51695 7.23675 4.73905 7.23675 4.97549V18.1876C7.23675 18.6721 7.66737 19.0673 8.19678 19.0685C10.4286 19.0734 14.1679 19.5008 16.7475 21.9814V8.15457C16.7475 7.99033 16.7018 7.83605 16.6157 7.70837C14.4985 4.57523 10.4299 4.09919 8.19299 4.09438Z" fill="#858EA9"/>
<path d="M27.7468 18.1876V4.97537C27.7468 4.73892 27.6466 4.51682 27.4646 4.35002C27.2846 4.18504 27.0461 4.09426 26.7929 4.09426C26.7921 4.09426 26.7913 4.09426 26.7906 4.09426C24.5538 4.09915 20.4852 4.57519 18.3679 7.70833C18.2818 7.836 18.2362 7.99029 18.2362 8.15452V21.9813C20.8158 19.5007 24.555 19.0733 26.7869 19.0684C27.3162 19.0671 27.7468 18.672 27.7468 18.1876Z" fill="#858EA9"/>
<path d="M29.9309 7.14133H29.2356V18.1877C29.2356 19.4247 28.1388 20.4334 26.7906 20.4365C24.8975 20.4406 21.7761 20.7808 19.5654 22.7034C23.3887 21.8432 27.4192 22.4024 29.7162 22.8834C30.003 22.9434 30.2994 22.8814 30.5292 22.7131C30.7582 22.5452 30.8896 22.2943 30.8896 22.0249V8.02228C30.8896 7.53654 30.4595 7.14133 29.9309 7.14133Z" fill="#858EA9"/>
<path d="M5.74817 18.1877V7.14133H5.05293C4.52443 7.14133 4.09426 7.53654 4.09426 8.02228V22.0247C4.09426 22.2941 4.22562 22.545 4.45459 22.7129C4.6842 22.8811 4.98031 22.9433 5.26757 22.8831C7.56457 22.4021 11.5951 21.8429 15.4183 22.7032C13.2077 20.7806 10.0863 20.4405 8.19322 20.4364C6.84506 20.4334 5.74817 19.4247 5.74817 18.1877Z" fill="#858EA9"/>
</g>
<defs>
<filter id="filter0_f_9_1797" x="0" y="0" width="34.9838" height="27" filterUnits="userSpaceOnUse" color-interpolation-filters="sRGB">
<feFlood flood-opacity="0" result="BackgroundImageFix"/>
<feBlend mode="normal" in="SourceGraphic" in2="BackgroundImageFix" result="shape"/>
<feGaussianBlur stdDeviation="2" result="effect1_foregroundBlur_9_1797"/>
</filter>
</defs>
</svg>
