<svg width="335" height="54" viewBox="0 0 335 54" fill="none" xmlns="http://www.w3.org/2000/svg">
<rect width="335" height="54" rx="12" fill="white"/>
<rect x="0.5" y="0.5" width="334" height="53" rx="11.5" stroke="#677294" stroke-opacity="0.16"/>
<circle cx="29" cy="27" r="4" fill="#677294"/>
<circle cx="42" cy="27" r="4" fill="#677294"/>
<circle cx="55" cy="27" r="4" fill="#677294"/>
<circle cx="68" cy="27" r="4" fill="#677294"/>
<circle cx="81" cy="27" r="4" fill="#677294"/>
<circle cx="94" cy="27" r="4" fill="#677294"/>
<circle cx="107" cy="27" r="4" fill="#677294"/>
<circle cx="120" cy="27" r="4" fill="#677294"/>
<path d="M301.984 24.4321L304.305 26.7532L304.316 26.6316C304.316 25.4121 303.325 24.4211 302.105 24.4211L301.984 24.4321Z" fill="#677294"/>
<path d="M302.105 22.9474C304.139 22.9474 305.789 24.598 305.789 26.6316C305.789 27.1069 305.694 27.5601 305.528 27.9764L307.683 30.1316C308.796 29.2032 309.673 28.0022 310.214 26.6316C308.936 23.3969 305.793 21.1053 302.105 21.1053C301.074 21.1053 300.086 21.2895 299.169 21.6211L300.761 23.209C301.177 23.0469 301.63 22.9474 302.105 22.9474Z" fill="#677294"/>
<path d="M294.737 20.9395L296.417 22.6195L296.752 22.9548C295.536 23.9053 294.575 25.169 294 26.6316C295.275 29.8663 298.421 32.1579 302.105 32.1579C303.247 32.1579 304.338 31.9369 305.336 31.5353L305.65 31.8484L307.797 34L308.737 33.0642L295.676 20L294.737 20.9395ZM298.812 25.0105L299.95 26.149C299.917 26.3074 299.895 26.4658 299.895 26.6316C299.895 27.8511 300.886 28.8421 302.105 28.8421C302.271 28.8421 302.43 28.82 302.584 28.7868L303.723 29.9253C303.233 30.1684 302.687 30.3158 302.105 30.3158C300.072 30.3158 298.421 28.6653 298.421 26.6316C298.421 26.0495 298.568 25.5042 298.812 25.0105Z" fill="#677294"/>
</svg>
