<svg width="214" height="214" viewBox="0 0 214 214" fill="none" xmlns="http://www.w3.org/2000/svg">
<circle cx="107" cy="107" r="107" fill="#C6EFE5" fill-opacity="0.76"/>
<path d="M75.2047 163.362C85.6418 163.362 94.1027 159.914 94.1027 155.661C94.1027 151.408 85.6418 147.96 75.2047 147.96C64.7677 147.96 56.3068 151.408 56.3068 155.661C56.3068 159.914 64.7677 163.362 75.2047 163.362Z" fill="#FFDB56"/>
<path d="M92.4536 152.516C89.5019 155.202 82.891 157.074 75.2031 157.074C67.5153 157.074 60.9044 155.202 57.9527 152.516C56.8972 153.477 56.3057 154.54 56.3057 155.66C56.3057 159.914 64.7663 163.362 75.2034 163.362C85.6402 163.362 94.1011 159.914 94.1011 155.66C94.1006 154.54 93.5086 153.477 92.4536 152.516Z" fill="#FFBB24"/>
<path d="M75.2042 83.5493C60.0402 83.5493 47.7472 95.8421 47.7472 111.006C47.7472 134.098 75.2042 155.345 75.2042 155.345C75.2042 155.345 102.661 134.098 102.661 111.006C102.661 95.8421 90.3684 83.5493 75.2042 83.5493ZM75.2042 121.957C69.1562 121.957 64.2532 117.054 64.2532 111.006C64.2532 104.958 69.1562 100.055 75.2042 100.055C81.2522 100.055 86.1554 104.958 86.1554 111.006C86.1554 117.054 81.2524 121.957 75.2042 121.957Z" fill="#FF4A4A"/>
<path d="M75.2031 83.5493C74.1398 83.5493 73.0913 83.6116 72.0593 83.7296C85.7423 85.2896 96.3725 96.9057 96.3725 111.006C96.3725 129.235 79.2663 146.31 72.0593 152.696C73.9823 154.4 75.2031 155.345 75.2031 155.345C75.2031 155.345 102.66 134.099 102.66 111.007C102.66 95.8421 90.3673 83.5493 75.2031 83.5493Z" fill="#E7343F"/>
<path d="M142.149 109.088C150.17 109.088 156.673 106.438 156.673 103.169C156.673 99.8997 150.17 97.2498 142.149 97.2498C134.127 97.2498 127.624 99.8997 127.624 103.169C127.624 106.438 134.127 109.088 142.149 109.088Z" fill="#FFDB56"/>
<path d="M154.455 100.025C151.885 101.692 147.337 102.8 142.15 102.8C136.964 102.8 132.416 101.692 129.846 100.025C128.442 100.936 127.626 102.013 127.626 103.169C127.626 106.438 134.129 109.088 142.15 109.088C150.172 109.088 156.675 106.438 156.675 103.169C156.675 102.013 155.859 100.936 154.455 100.025Z" fill="#FFBB24"/>
<path d="M142.151 47.7466C130.496 47.7466 121.048 57.1945 121.048 68.8492C121.048 86.597 142.151 102.927 142.151 102.927C142.151 102.927 163.253 86.597 163.253 68.8492C163.253 57.1945 153.805 47.7466 142.151 47.7466ZM142.151 77.2658C137.502 77.2658 133.734 73.4976 133.734 68.8492C133.734 64.2007 137.502 60.4325 142.151 60.4325C146.799 60.4325 150.567 64.2007 150.567 68.8492C150.567 73.4976 146.799 77.2658 142.151 77.2658Z" fill="#FF4A4A"/>
<path d="M142.151 47.7466C141.082 47.7466 140.033 47.8266 139.007 47.9799C149.17 49.498 156.965 58.263 156.965 68.8489C156.965 82.277 144.887 94.8913 139.007 100.237C140.898 101.957 142.151 102.926 142.151 102.926C142.151 102.926 163.253 86.5967 163.253 68.8489C163.253 57.1945 153.805 47.7466 142.151 47.7466Z" fill="#E7343F"/>
<path d="M119.495 104.915C120.459 104.915 121.241 104.134 121.241 103.169C121.241 102.204 120.459 101.422 119.495 101.422H118.697C118.117 101.422 117.533 101.461 116.962 101.537C116.007 101.664 115.334 102.542 115.461 103.498C115.578 104.376 116.328 105.015 117.191 105.015C117.267 105.015 117.345 105.01 117.423 105C117.842 104.944 118.271 104.916 118.698 104.916H119.495V104.915Z" fill="black"/>
<path d="M113.72 153.824C113.717 153.824 113.715 153.824 113.712 153.824L111.405 153.835C110.441 153.839 109.662 154.625 109.667 155.589C109.671 156.551 110.452 157.328 111.413 157.328C111.416 157.328 111.418 157.328 111.421 157.328L113.728 157.318C114.692 157.313 115.471 156.528 115.467 155.563C115.462 154.601 114.681 153.824 113.72 153.824Z" fill="black"/>
<path d="M121.567 127.539C122.532 127.539 123.314 126.757 123.314 125.792C123.314 124.828 122.532 124.046 121.567 124.046H119.26C118.296 124.046 117.514 124.827 117.514 125.792C117.514 126.757 118.296 127.539 119.26 127.539H121.567Z" fill="black"/>
<path d="M108.484 109.308C108.792 109.53 109.148 109.636 109.501 109.636C110.045 109.636 110.58 109.383 110.921 108.908C111.301 108.381 111.735 107.889 112.213 107.449C112.922 106.795 112.966 105.69 112.312 104.981C111.658 104.272 110.554 104.227 109.844 104.881C109.193 105.481 108.601 106.151 108.084 106.871C107.522 107.654 107.701 108.746 108.484 109.308Z" fill="black"/>
<path d="M122.948 153.782C122.945 153.782 122.942 153.782 122.94 153.782L120.633 153.793C119.669 153.797 118.89 154.583 118.894 155.547C118.899 156.509 119.68 157.286 120.641 157.286C120.643 157.286 120.646 157.286 120.649 157.286L122.955 157.275C123.92 157.271 124.698 156.485 124.694 155.521C124.69 154.559 123.908 153.782 122.948 153.782Z" fill="black"/>
<path d="M104.492 153.866C104.49 153.866 104.487 153.866 104.484 153.866L102.178 153.877C101.213 153.881 100.435 154.667 100.439 155.631C100.443 156.593 101.224 157.37 102.185 157.37C102.188 157.37 102.191 157.37 102.193 157.37L104.5 157.359C105.465 157.355 106.243 156.569 106.239 155.605C106.235 154.643 105.454 153.866 104.492 153.866Z" fill="black"/>
<path d="M112.669 125.802C113.249 125.802 113.816 125.513 114.148 124.987C114.663 124.171 114.418 123.092 113.603 122.577C113.054 122.231 112.538 121.827 112.069 121.376C111.373 120.708 110.268 120.73 109.599 121.424C108.931 122.119 108.952 123.225 109.647 123.894C110.287 124.509 110.99 125.06 111.739 125.532C112.028 125.715 112.35 125.802 112.669 125.802Z" fill="black"/>
<path d="M109.308 116.322C109.191 115.72 109.132 115.101 109.132 114.481L109.132 114.384C109.143 113.419 108.371 112.628 107.406 112.617C107.399 112.617 107.392 112.617 107.385 112.617C106.43 112.617 105.65 113.386 105.639 114.343L105.638 114.481C105.638 115.325 105.719 116.169 105.88 116.99C106.042 117.824 106.773 118.403 107.592 118.403C107.703 118.403 107.815 118.392 107.928 118.37C108.875 118.186 109.493 117.269 109.308 116.322Z" fill="black"/>
<path d="M130.795 127.539C131.76 127.539 132.542 126.757 132.542 125.792C132.542 124.828 131.76 124.046 130.795 124.046H128.488C127.523 124.046 126.742 124.827 126.742 125.792C126.742 126.757 127.523 127.539 128.488 127.539H130.795Z" fill="black"/>
<path d="M157.753 130.719C158.269 130.719 158.78 130.491 159.125 130.055C159.723 129.298 159.594 128.2 158.837 127.602C158.164 127.071 157.444 126.588 156.698 126.168C155.859 125.695 154.793 125.992 154.319 126.833C153.846 127.673 154.143 128.739 154.984 129.212C155.573 129.543 156.141 129.924 156.672 130.344C156.993 130.597 157.374 130.719 157.753 130.719Z" fill="black"/>
<path d="M150.384 153.543C149.812 153.622 149.226 153.663 148.642 153.666L148.315 153.667C147.35 153.672 146.572 154.458 146.577 155.422C146.581 156.384 147.362 157.16 148.323 157.16C148.326 157.16 148.329 157.16 148.332 157.16L148.658 157.159C149.395 157.156 150.137 157.103 150.862 157.003C151.817 156.871 152.485 155.989 152.353 155.034C152.22 154.078 151.337 153.409 150.384 153.543Z" fill="black"/>
<path d="M157.593 150.062C157.103 150.529 156.572 150.961 156.016 151.347C155.223 151.896 155.026 152.985 155.575 153.778C155.915 154.267 156.459 154.529 157.012 154.529C157.356 154.529 157.702 154.428 158.006 154.218C158.71 153.73 159.382 153.183 160.002 152.592C160.7 151.926 160.727 150.821 160.062 150.122C159.396 149.423 158.29 149.397 157.593 150.062Z" fill="black"/>
<path d="M163.46 141.639C162.514 141.461 161.599 142.084 161.421 143.032C161.295 143.697 161.117 144.357 160.89 144.993C160.566 145.901 161.04 146.901 161.949 147.225C162.143 147.294 162.341 147.327 162.535 147.327C163.253 147.327 163.926 146.881 164.181 146.166C164.468 145.359 164.695 144.522 164.854 143.679C165.032 142.731 164.408 141.818 163.46 141.639Z" fill="black"/>
<path d="M161.273 132.765C160.399 133.173 160.021 134.212 160.429 135.087C160.715 135.7 160.954 136.34 161.141 136.989C161.361 137.755 162.059 138.254 162.818 138.254C162.978 138.254 163.14 138.232 163.301 138.186C164.228 137.92 164.764 136.952 164.498 136.025C164.261 135.2 163.957 134.388 163.594 133.609C163.186 132.735 162.148 132.358 161.273 132.765Z" fill="black"/>
<path d="M140.022 127.539C140.986 127.539 141.768 126.757 141.768 125.792C141.768 124.828 140.986 124.046 140.022 124.046H137.715C136.75 124.046 135.968 124.827 135.968 125.792C135.968 126.757 136.75 127.539 137.715 127.539H140.022Z" fill="black"/>
<path d="M132.176 153.74C132.173 153.74 132.17 153.74 132.168 153.74L129.861 153.751C128.896 153.755 128.118 154.541 128.122 155.505C128.127 156.467 128.907 157.244 129.868 157.244C129.871 157.244 129.874 157.244 129.877 157.244L132.183 157.233C133.148 157.229 133.926 156.443 133.922 155.479C133.918 154.517 133.137 153.74 132.176 153.74Z" fill="black"/>
<path d="M148.583 127.539C148.78 127.539 148.977 127.543 149.172 127.552C149.198 127.553 149.224 127.554 149.25 127.554C150.179 127.554 150.953 126.822 150.994 125.885C151.037 124.921 150.29 124.105 149.326 124.063C149.079 124.052 148.829 124.046 148.583 124.046H146.943C145.978 124.046 145.196 124.828 145.196 125.793C145.196 126.758 145.978 127.54 146.943 127.54L148.583 127.539Z" fill="black"/>
<path d="M141.403 153.699C141.4 153.699 141.397 153.699 141.394 153.699L139.087 153.709C138.123 153.713 137.345 154.499 137.349 155.464C137.353 156.426 138.134 157.202 139.095 157.202C139.098 157.202 139.1 157.202 139.103 157.202L141.41 157.192C142.375 157.188 143.153 156.402 143.149 155.437C143.145 154.475 142.363 153.699 141.403 153.699Z" fill="black"/>
</svg>
