<svg width="17" height="18" viewBox="0 0 17 18" fill="none" xmlns="http://www.w3.org/2000/svg">
<path d="M12.8886 5.9327C12.8886 4.63049 12.3713 3.38162 11.4505 2.46082C10.5297 1.54003 9.28085 1.02273 7.97864 1.02273C6.67644 1.02273 5.42757 1.54003 4.50677 2.46082C3.58597 3.38162 3.06867 4.63049 3.06867 5.9327C3.06867 11.661 0.61369 13.2976 0.61369 13.2976H15.3436C15.3436 13.2976 12.8886 11.661 12.8886 5.9327Z" stroke="white" stroke-width="1.2" stroke-linecap="round" stroke-linejoin="round"/>
<path d="M9.39437 16.571C9.25049 16.819 9.04399 17.0249 8.79553 17.168C8.54708 17.3111 8.26538 17.3864 7.97866 17.3864C7.69193 17.3864 7.41024 17.3111 7.16178 17.168C6.91332 17.0249 6.70682 16.819 6.56295 16.571" stroke="white" stroke-width="1.2" stroke-linecap="round" stroke-linejoin="round"/>
<circle cx="12.8864" cy="4.09091" r="3.59091" fill="#FF0000" stroke="white"/>
</svg>
