<svg width="19" height="17" viewBox="0 0 19 17" fill="none" xmlns="http://www.w3.org/2000/svg">
<path d="M13.9531 0C12.9221 0 11.9769 0.331124 11.1437 0.984195C10.3449 1.6103 9.81309 2.40776 9.5 2.98764C9.18691 2.40772 8.65509 1.6103 7.85631 0.984195C7.02313 0.331124 6.07788 0 5.04688 0C2.16971 0 0 2.38515 0 5.54809C0 8.96517 2.70687 11.3031 6.80471 14.8424C7.50058 15.4434 8.28934 16.1247 9.10916 16.8513C9.21723 16.9472 9.35602 17 9.5 17C9.64398 17 9.78277 16.9472 9.89084 16.8513C10.7107 16.1246 11.4995 15.4434 12.1957 14.842C16.2931 11.3031 19 8.96517 19 5.54809C19 2.38515 16.8303 0 13.9531 0Z" fill="#FF0000"/>
</svg>
