<svg width="7" height="13" viewBox="0 0 7 13" fill="none" xmlns="http://www.w3.org/2000/svg">
<path d="M0.499101 12.4782L0.499697 12.4788L0.146225 12.8315M0.499101 12.4782L0.499104 12.4781L6.14643 6.84605L6.49925 6.49418L6.14738 6.14136L0.521379 0.500108L0.162438 0.845845M0.499101 12.4782C0.498765 12.4784 0.498691 12.4785 0.499051 12.4782L0.499101 12.4782ZM0.146225 12.8315C-0.0484831 12.6362 -0.0480555 12.3201 0.14718 12.1254L5.44028 6.84655L5.79456 6.49323L5.44124 6.13895L0.162438 0.845845M0.146225 12.8315L0.499802 12.4789L0.852372 12.8325C0.657107 13.0271 0.340992 13.0267 0.146225 12.8315ZM0.162438 0.845845L0.515262 0.493974L0.515884 0.493355M0.162438 0.845845C-0.0241953 0.652083 -0.0237803 0.345273 0.163377 0.151988M6.50138 6.4934L6.85426 6.14159L6.50138 6.4934ZM6.50138 6.4934L6.14884 6.13991L0.522842 0.498665L6.50138 6.4934ZM0.515903 0.493336L0.516717 0.492523L0.515903 0.493336ZM0.515903 0.493336L0.163377 0.151988M0.515903 0.493336L0.515884 0.493355M0.163377 0.151988L0.515884 0.493355M0.163377 0.151988L0.515884 0.493355M0.499875 12.4779C0.500064 12.478 0.500226 12.4781 0.500355 12.4782L0.49975 12.4788L0.499169 12.4782C0.499306 12.4781 0.499481 12.478 0.499687 12.4779C0.500168 12.4777 0.500185 12.4778 0.499789 12.4778C0.499393 12.4778 0.499404 12.4777 0.499875 12.4779ZM0.522147 0.499383L0.522363 0.499159L0.522749 0.498788C0.522821 0.498918 0.522905 0.499088 0.522985 0.49929C0.52316 0.499733 0.523084 0.499758 0.523085 0.499414C0.523085 0.499071 0.523161 0.499091 0.522989 0.499523C0.522915 0.499708 0.522833 0.49986 0.522766 0.499983L0.522147 0.499383ZM0.521533 0.500017L0.522129 0.499402L0.522742 0.499996C0.52261 0.500072 0.522444 0.500159 0.522248 0.500242C0.521772 0.500444 0.52175 0.500356 0.52214 0.50035C0.52253 0.500344 0.522512 0.500432 0.522031 0.500245C0.521834 0.500169 0.521666 0.500088 0.521533 0.500017Z" fill="#677294" stroke="#677294"/>
</svg>
