<svg width="11" height="15" viewBox="0 0 11 15" fill="none" xmlns="http://www.w3.org/2000/svg">
<path d="M9.625 5.625H9.16667V3.75C9.16667 1.68187 7.52217 0 5.5 0C3.47783 0 1.83333 1.68187 1.83333 3.75V5.625H1.375C0.617222 5.625 0 6.25562 0 7.03125V13.5938C0 14.3694 0.617222 15 1.375 15H9.625C10.3828 15 11 14.3694 11 13.5938V7.03125C11 6.25562 10.3828 5.625 9.625 5.625ZM3.05556 3.75C3.05556 2.37125 4.15189 1.25 5.5 1.25C6.84811 1.25 7.94444 2.37125 7.94444 3.75V5.625H3.05556V3.75ZM6.11111 10.4513V11.875C6.11111 12.22 5.83794 12.5 5.5 12.5C5.16206 12.5 4.88889 12.22 4.88889 11.875V10.4513C4.52528 10.2344 4.27778 9.83562 4.27778 9.375C4.27778 8.68563 4.82594 8.125 5.5 8.125C6.17406 8.125 6.72222 8.68563 6.72222 9.375C6.72222 9.83562 6.47472 10.2344 6.11111 10.4513Z" fill="white"/>
</svg>
