<svg width="24" height="24" viewBox="0 0 24 24" fill="none" xmlns="http://www.w3.org/2000/svg">
<path d="M12 22.81C11.31 22.81 10.66 22.46 10.2 21.85L8.7 19.85C8.64229 19.7954 8.56879 19.7604 8.49 19.75H8C3.83 19.75 1.25 18.62 1.25 13V8C1.25 3.58 3.58 1.25 8 1.25H12C12.41 1.25 12.75 1.59 12.75 2C12.75 2.41 12.41 2.75 12 2.75H8C4.42 2.75 2.75 4.42 2.75 8V13C2.75 17.52 4.3 18.25 8 18.25H8.5C9.01 18.25 9.59 18.54 9.9 18.95L11.4 20.95C11.75 21.41 12.25 21.41 12.6 20.95L14.1 18.95C14.43 18.51 14.95 18.25 15.5 18.25H16C19.58 18.25 21.25 16.58 21.25 13V8C21.25 7.59 21.59 7.25 22 7.25C22.41 7.25 22.75 7.59 22.75 8V13C22.75 17.42 20.42 19.75 16 19.75H15.5C15.42 19.75 15.35 19.79 15.3 19.85L13.8 21.85C13.34 22.46 12.69 22.81 12 22.81Z" fill="#3457A0"/>
<path d="M12 12C11.44 12 11 11.55 11 11C11 10.45 11.45 9.99999 12 9.99999C12.55 9.99999 13 10.45 13 11C13 11.55 12.56 12 12 12ZM16 12C15.44 12 15 11.55 15 11C15 10.45 15.45 9.99999 16 9.99999C16.55 9.99999 17 10.45 17 11C17 11.55 16.56 12 16 12ZM8 12C7.44 12 7 11.55 7 11C7 10.45 7.45 9.99999 8 9.99999C8.55 9.99999 9 10.45 9 11C9 11.55 8.56 12 8 12ZM18 7.74999C17.14 7.74999 15.11 6.72999 14.49 4.85999C14.24 4.11999 14.3 3.26999 14.65 2.59999C14.96 1.99999 15.48 1.55999 16.12 1.35999C16.77 1.15999 17.46 1.24999 18 1.57999C18.54 1.24999 19.23 1.15999 19.89 1.35999C20.53 1.55999 21.05 1.99999 21.36 2.59999C21.71 3.26999 21.77 4.11999 21.52 4.85999C20.89 6.75999 18.77 7.74999 18 7.74999ZM15.91 4.37999C16.33 5.63999 17.76 6.21999 18.02 6.24999C18.31 6.21999 19.71 5.56999 20.1 4.38999C20.22 4.02999 20.19 3.59999 20.03 3.28999C19.9728 3.17244 19.8916 3.06813 19.7917 2.98375C19.6919 2.89937 19.5755 2.83678 19.45 2.79999C19.17 2.69999 18.79 2.74999 18.62 2.99999C18.48 3.19999 18.26 3.31999 18.02 3.32999C17.78 3.32999 17.55 3.21999 17.4 3.02999C17.19 2.75999 16.82 2.71999 16.55 2.79999C16.29 2.87999 16.1 3.03999 15.97 3.28999C15.82 3.59999 15.79 4.01999 15.91 4.37999Z" fill="#3457A0"/>
</svg>
