<svg width="245" height="197" viewBox="0 0 245 197" fill="none" xmlns="http://www.w3.org/2000/svg">
<circle cx="120.972" cy="106.996" r="49.0834" fill="#4157FF"/>
<path d="M134.435 114.394C134.435 114.815 134.321 115.247 134.08 115.668C133.839 116.088 133.527 116.486 133.115 116.86C132.42 117.491 131.654 117.946 130.788 118.239C129.936 118.531 129.014 118.683 128.021 118.683C126.573 118.683 125.026 118.402 123.395 117.83C121.763 117.257 120.131 116.486 118.513 115.516C116.864 114.522 115.308 113.429 113.858 112.243C112.423 111.054 111.1 109.776 109.899 108.422C108.735 107.09 107.799 105.757 107.118 104.437C106.437 103.105 106.096 101.831 106.096 100.615C106.096 99.8207 106.266 99.0611 106.607 98.3599C106.947 97.647 107.487 96.9926 108.239 96.4082C109.147 95.672 110.14 95.3097 111.19 95.3097C111.588 95.3097 111.985 95.3798 112.34 95.5201C112.709 95.6603 113.035 95.8707 113.291 96.1745L116.583 99.996C116.838 100.288 117.023 100.557 117.151 100.814C117.278 101.059 117.349 101.305 117.349 101.527C117.349 101.807 117.25 102.088 117.051 102.357C116.867 102.625 116.597 102.906 116.257 103.186L115.178 104.11C115.022 104.238 114.951 104.39 114.951 104.577C114.951 104.671 114.965 104.752 114.994 104.846C115.036 104.939 115.079 105.01 115.107 105.08C115.363 105.465 115.802 105.968 116.427 106.576C117.065 107.183 117.747 107.803 118.485 108.422C119.251 109.041 119.989 109.614 120.741 110.14C121.479 110.654 122.089 111.005 122.571 111.215C122.642 111.238 122.728 111.273 122.827 111.309C122.94 111.344 123.054 111.355 123.182 111.355C123.423 111.355 123.607 111.285 123.763 111.157L124.842 110.28C125.197 109.988 125.537 109.766 125.864 109.626C126.19 109.462 126.516 109.38 126.871 109.38C127.141 109.38 127.425 109.427 127.737 109.532C128.049 109.637 128.375 109.789 128.73 109.988L133.427 112.734C133.796 112.945 134.052 113.19 134.208 113.482C134.35 113.774 134.435 114.067 134.435 114.394V114.394Z" stroke="black" stroke-width="1.5" stroke-miterlimit="10"/>
<path d="M130.015 103.49C130.015 102.789 129.348 101.714 128.355 100.837C127.446 100.031 126.24 99.4 125.048 99.4M134.982 103.49C134.982 98.9676 130.54 95.3097 125.048 95.3097" stroke="black" stroke-width="1.5" stroke-linecap="round" stroke-linejoin="round"/>
<rect x="126.164" y="29.1285" width="4.90916" height="5.72735" rx="1" transform="rotate(-10.9119 126.164 29.1285)" fill="url(#paint0_linear_57_763)"/>
<rect x="203.294" y="151.518" width="4.90916" height="5.72735" rx="1" transform="rotate(29.09 203.294 151.518)" fill="url(#paint1_linear_57_763)"/>
<rect x="65.5128" y="189.467" width="4.90916" height="5.72735" rx="1" transform="rotate(29.09 65.5128 189.467)" fill="url(#paint2_linear_57_763)"/>
<rect x="93.459" y="45.217" width="2.26504" height="2.64255" rx="1" fill="url(#paint3_linear_57_763)"/>
<rect x="199.908" y="26.5198" width="4.17142" height="4.86666" rx="1" transform="rotate(27 199.908 26.5198)" fill="url(#paint4_linear_57_763)"/>
<rect x="193.459" y="47.8901" width="2.26504" height="2.64255" rx="1" fill="url(#paint5_linear_57_763)"/>
<rect x="186.775" y="147.164" width="2.26504" height="2.64255" rx="1" fill="url(#paint6_linear_57_763)"/>
<rect x="204.913" y="108.982" width="2.26504" height="2.64255" rx="1" fill="url(#paint7_linear_57_763)"/>
<rect x="230.687" y="74.618" width="2.26504" height="2.64255" rx="1" fill="url(#paint8_linear_57_763)"/>
<rect x="209.685" y="135.709" width="2.26504" height="2.64255" rx="1" fill="url(#paint9_linear_57_763)"/>
<rect x="163.043" y="186.131" width="2.26504" height="2.64255" rx="1" fill="url(#paint10_linear_57_763)"/>
<rect x="67.3405" y="35.6906" width="3.23427" height="3.77332" rx="1" transform="rotate(-22.65 67.3405 35.6906)" fill="url(#paint11_linear_57_763)"/>
<rect x="5.90603" y="170.506" width="3.23427" height="3.77332" rx="1" transform="rotate(17.3473 5.90603 170.506)" fill="url(#paint12_linear_57_763)"/>
<rect x="57.3838" y="58.3903" width="1.22486" height="1.429" rx="0.611389" transform="rotate(17.3473 57.3838 58.3903)" fill="url(#paint13_linear_57_763)"/>
<rect x="182.43" y="66.0266" width="1.22486" height="1.429" rx="0.611389" transform="rotate(17.3473 182.43 66.0266)" fill="url(#paint14_linear_57_763)"/>
<rect x="233.02" y="87.9814" width="1.22486" height="1.429" rx="0.611389" transform="rotate(17.3473 233.02 87.9814)" fill="url(#paint15_linear_57_763)"/>
<rect x="67.5162" y="147.514" width="1.22486" height="1.429" rx="0.611389" transform="rotate(17.3473 67.5162 147.514)" fill="url(#paint16_linear_57_763)"/>
<rect x="23.0191" y="13.526" width="1.22486" height="1.429" rx="0.611389" transform="rotate(17.3473 23.0191 13.526)" fill="url(#paint17_linear_57_763)"/>
<rect x="31.9916" y="105.847" width="2.3259" height="2.71355" rx="1" transform="rotate(17.3473 31.9916 105.847)" fill="url(#paint18_linear_57_763)"/>
<rect x="34.9932" y="140.37" width="2.3259" height="2.71355" rx="1" transform="rotate(17.3473 34.9932 140.37)" fill="url(#paint19_linear_57_763)"/>
<rect x="103.575" y="173.661" width="2.3259" height="2.71355" rx="1" transform="rotate(17.3473 103.575 173.661)" fill="url(#paint20_linear_57_763)"/>
<rect x="143.036" y="12.5716" width="3.23427" height="3.77332" rx="1" transform="rotate(17.3473 143.036 12.5716)" fill="url(#paint21_linear_57_763)"/>
<rect x="44.086" y="45.0261" width="4.16673" height="4.86119" rx="1" transform="rotate(17.3473 44.086 45.0261)" fill="url(#paint22_linear_57_763)"/>
<rect x="120.338" y="4.34182" width="4.16673" height="4.86119" rx="1" transform="rotate(-92.65 120.338 4.34182)" fill="url(#paint23_linear_57_763)"/>
<rect x="9.42513" y="85.6749" width="6.42521" height="7.49608" rx="1" transform="rotate(135.279 9.42513 85.6749)" fill="url(#paint24_linear_57_763)"/>
<rect x="237.367" y="178.958" width="6.42521" height="7.49608" rx="1" transform="rotate(-11.7361 237.367 178.958)" fill="url(#paint25_linear_57_763)"/>
<defs>
<linearGradient id="paint0_linear_57_763" x1="128.834" y1="29.1781" x2="128.834" y2="34.9054" gradientUnits="userSpaceOnUse">
<stop stop-color="#4157FF"/>
<stop offset="1" stop-color="#A3ADFF"/>
</linearGradient>
<linearGradient id="paint1_linear_57_763" x1="206.095" y1="151.776" x2="206.095" y2="157.503" gradientUnits="userSpaceOnUse">
<stop stop-color="#4157FF"/>
<stop offset="1" stop-color="#A3ADFF"/>
</linearGradient>
<linearGradient id="paint2_linear_57_763" x1="68.0788" y1="189.789" x2="68.0788" y2="195.516" gradientUnits="userSpaceOnUse">
<stop stop-color="#4157FF"/>
<stop offset="1" stop-color="#A3ADFF"/>
</linearGradient>
<linearGradient id="paint3_linear_57_763" x1="94.7506" y1="45.2939" x2="94.7506" y2="47.9365" gradientUnits="userSpaceOnUse">
<stop stop-color="#4157FF"/>
<stop offset="1" stop-color="#A3ADFF"/>
</linearGradient>
<linearGradient id="paint4_linear_57_763" x1="202.334" y1="26.5649" x2="202.334" y2="31.4316" gradientUnits="userSpaceOnUse">
<stop stop-color="#4157FF"/>
<stop offset="1" stop-color="#A3ADFF"/>
</linearGradient>
<linearGradient id="paint5_linear_57_763" x1="194.921" y1="47.9716" x2="194.921" y2="50.6142" gradientUnits="userSpaceOnUse">
<stop stop-color="#4157FF"/>
<stop offset="1" stop-color="#A3ADFF"/>
</linearGradient>
<linearGradient id="paint6_linear_57_763" x1="188.226" y1="147.414" x2="188.226" y2="150.057" gradientUnits="userSpaceOnUse">
<stop stop-color="#4157FF"/>
<stop offset="1" stop-color="#A3ADFF"/>
</linearGradient>
<linearGradient id="paint7_linear_57_763" x1="206.394" y1="109.167" x2="206.394" y2="111.81" gradientUnits="userSpaceOnUse">
<stop stop-color="#4157FF"/>
<stop offset="1" stop-color="#A3ADFF"/>
</linearGradient>
<linearGradient id="paint8_linear_57_763" x1="232.212" y1="74.745" x2="232.212" y2="77.3875" gradientUnits="userSpaceOnUse">
<stop stop-color="#4157FF"/>
<stop offset="1" stop-color="#A3ADFF"/>
</linearGradient>
<linearGradient id="paint9_linear_57_763" x1="211.174" y1="135.94" x2="211.174" y2="138.583" gradientUnits="userSpaceOnUse">
<stop stop-color="#4157FF"/>
<stop offset="1" stop-color="#A3ADFF"/>
</linearGradient>
<linearGradient id="paint10_linear_57_763" x1="164.453" y1="186.447" x2="164.453" y2="189.09" gradientUnits="userSpaceOnUse">
<stop stop-color="#4157FF"/>
<stop offset="1" stop-color="#A3ADFF"/>
</linearGradient>
<linearGradient id="paint11_linear_57_763" x1="69.0722" y1="35.7514" x2="69.0722" y2="39.5247" gradientUnits="userSpaceOnUse">
<stop stop-color="#4157FF"/>
<stop offset="1" stop-color="#A3ADFF"/>
</linearGradient>
<linearGradient id="paint12_linear_57_763" x1="7.53321" y1="170.796" x2="7.53321" y2="174.569" gradientUnits="userSpaceOnUse">
<stop stop-color="#4157FF"/>
<stop offset="1" stop-color="#A3ADFF"/>
</linearGradient>
<linearGradient id="paint13_linear_57_763" x1="58.0939" y1="58.4896" x2="58.0939" y2="59.9186" gradientUnits="userSpaceOnUse">
<stop stop-color="#4157FF"/>
<stop offset="1" stop-color="#A3ADFF"/>
</linearGradient>
<linearGradient id="paint14_linear_57_763" x1="183.353" y1="66.1389" x2="183.353" y2="67.5679" gradientUnits="userSpaceOnUse">
<stop stop-color="#4157FF"/>
<stop offset="1" stop-color="#A3ADFF"/>
</linearGradient>
<linearGradient id="paint15_linear_57_763" x1="234.029" y1="88.1311" x2="234.029" y2="89.5601" gradientUnits="userSpaceOnUse">
<stop stop-color="#4157FF"/>
<stop offset="1" stop-color="#A3ADFF"/>
</linearGradient>
<linearGradient id="paint16_linear_57_763" x1="68.2435" y1="147.765" x2="68.2435" y2="149.194" gradientUnits="userSpaceOnUse">
<stop stop-color="#4157FF"/>
<stop offset="1" stop-color="#A3ADFF"/>
</linearGradient>
<linearGradient id="paint17_linear_57_763" x1="23.6707" y1="13.549" x2="23.6707" y2="14.978" gradientUnits="userSpaceOnUse">
<stop stop-color="#4157FF"/>
<stop offset="1" stop-color="#A3ADFF"/>
</linearGradient>
<linearGradient id="paint18_linear_57_763" x1="33.209" y1="106.027" x2="33.209" y2="108.74" gradientUnits="userSpaceOnUse">
<stop stop-color="#4157FF"/>
<stop offset="1" stop-color="#A3ADFF"/>
</linearGradient>
<linearGradient id="paint19_linear_57_763" x1="36.2156" y1="140.609" x2="36.2156" y2="143.322" gradientUnits="userSpaceOnUse">
<stop stop-color="#4157FF"/>
<stop offset="1" stop-color="#A3ADFF"/>
</linearGradient>
<linearGradient id="paint20_linear_57_763" x1="104.914" y1="173.956" x2="104.914" y2="176.67" gradientUnits="userSpaceOnUse">
<stop stop-color="#4157FF"/>
<stop offset="1" stop-color="#A3ADFF"/>
</linearGradient>
<linearGradient id="paint21_linear_57_763" x1="144.896" y1="12.593" x2="144.896" y2="16.3664" gradientUnits="userSpaceOnUse">
<stop stop-color="#4157FF"/>
<stop offset="1" stop-color="#A3ADFF"/>
</linearGradient>
<linearGradient id="paint22_linear_57_763" x1="46.2444" y1="45.1027" x2="46.2444" y2="49.9639" gradientUnits="userSpaceOnUse">
<stop stop-color="#4157FF"/>
<stop offset="1" stop-color="#A3ADFF"/>
</linearGradient>
<linearGradient id="paint23_linear_57_763" x1="122.626" y1="4.3492" x2="122.626" y2="9.21039" gradientUnits="userSpaceOnUse">
<stop stop-color="#4157FF"/>
<stop offset="1" stop-color="#A3ADFF"/>
</linearGradient>
<linearGradient id="paint24_linear_57_763" x1="12.6538" y1="85.8207" x2="12.6538" y2="93.3167" gradientUnits="userSpaceOnUse">
<stop stop-color="#4157FF"/>
<stop offset="1" stop-color="#A3ADFF"/>
</linearGradient>
<linearGradient id="paint25_linear_57_763" x1="240.984" y1="179.262" x2="240.984" y2="186.758" gradientUnits="userSpaceOnUse">
<stop stop-color="#4157FF"/>
<stop offset="1" stop-color="#A3ADFF"/>
</linearGradient>
</defs>
</svg>
