<svg width="291" height="262" viewBox="0 0 291 262" fill="none" xmlns="http://www.w3.org/2000/svg">
<circle cx="146" cy="137.788" r="124" fill="#4157FF" fill-opacity="0.06"/>
<mask id="mask0_1_14" style="mask-type:alpha" maskUnits="userSpaceOnUse" x="0" y="-56" width="291" height="318">
<ellipse cx="145.5" cy="103.288" rx="145.5" ry="158.5" fill="url(#paint0_linear_1_14)"/>
</mask>
<g mask="url(#mask0_1_14)">
<path d="M330.312 230.994H-35V231.177H330.312V230.994Z" fill="#EBEBEB"/>
<path d="M293.708 242.75H269.509V242.932H293.708V242.75Z" fill="#EBEBEB"/>
<path d="M206.997 244.737H200.648V244.92H206.997V244.737Z" fill="#EBEBEB"/>
<path d="M268.779 235.969H233.95V236.152H268.779V235.969Z" fill="#EBEBEB"/>
<path d="M20.6294 237.197H3.32824V237.38H20.6294V237.197Z" fill="#EBEBEB"/>
<path d="M46.0184 237.197H27.1318V237.38H46.0184V237.197Z" fill="#EBEBEB"/>
<path d="M108.283 240.28H61.0552V240.463H108.283V240.28Z" fill="#EBEBEB"/>
<path d="M93.1806 34.2149H16.4212V96.0768H93.1806V34.2149Z" fill="#EBEBEB"/>
<path d="M89.0527 91.9563V38.3358L20.5348 38.3358V91.9563H89.0527Z" fill="#FAFAFA"/>
<path d="M81.0666 65.8512V63.2867H28.5274V65.8512H81.0666Z" fill="#E0E0E0"/>
<path d="M81.0666 71.6888V69.1243H28.5274V71.6888H81.0666Z" fill="#E0E0E0"/>
<path d="M81.0666 77.5192V74.9547H28.5274V77.5192H81.0666Z" fill="#E0E0E0"/>
<path d="M67.8942 83.3569V80.7924H41.7014V83.3569H67.8942Z" fill="#E0E0E0"/>
<path d="M28.5644 38.3356C28.5644 39.3887 28.3561 40.4313 27.9516 41.4035C27.5471 42.3757 26.9543 43.2583 26.2073 44.0006C25.4604 44.7428 24.574 45.3299 23.5992 45.7282C22.6244 46.1265 21.5805 46.3281 20.5275 46.3214C19.0746 46.3249 17.6488 45.928 16.4068 45.1743V34.2149H27.3661C28.134 35.4534 28.5484 36.8785 28.5644 38.3356Z" fill="#EBEBEB"/>
<path d="M93.1807 34.2149V45.1743C91.6532 46.0931 89.8623 46.4744 88.0931 46.2576C86.3239 46.0408 84.6781 45.2383 83.4177 43.9779C82.1573 42.7175 81.3548 41.0717 81.138 39.3025C80.9212 37.5332 81.3025 35.7423 82.2213 34.2149H93.1807Z" fill="#EBEBEB"/>
<path d="M28.564 91.9637C28.5665 93.4132 28.1724 94.8357 27.4242 96.0771H16.4649V85.1178C17.677 84.392 19.0599 84.0004 20.4727 83.983C21.8854 83.9657 23.2775 84.3231 24.5072 85.0188C25.7368 85.7146 26.7601 86.7239 27.4727 87.9438C28.1854 89.1638 28.5619 90.5508 28.564 91.9637Z" fill="#EBEBEB"/>
<path d="M93.1807 85.1105V96.0698H82.2213C81.4675 94.8305 81.0705 93.407 81.0742 91.9564C81.0758 90.5417 81.4524 89.1526 82.1658 87.9309C82.8792 86.7091 83.9038 85.6984 85.1352 85.0018C86.3665 84.3052 87.7606 83.9475 89.1753 83.9653C90.5899 83.9831 91.9746 84.3758 93.188 85.1032L93.1807 85.1105Z" fill="#EBEBEB"/>
<path d="M61.5143 52.4903C62.1162 48.7821 59.5981 45.2881 55.8899 44.6862C52.1818 44.0842 48.6878 46.6024 48.0858 50.3105C47.4839 54.0187 50.002 57.5127 53.7102 58.1146C57.4184 58.7165 60.9124 56.1984 61.5143 52.4903Z" fill="#E0E0E0"/>
<path d="M153.896 148.601H104.549V230.994H153.896V148.601Z" fill="#F5F5F5"/>
<path d="M106.237 148.601H104.549V230.994H106.237V148.601Z" fill="#EBEBEB"/>
<path d="M109.912 138.095H88.0515V142.472H109.912V138.095Z" fill="#FAFAFA"/>
<path d="M147.656 263.989C225.893 263.989 289.317 260.286 289.317 255.718C289.317 251.151 225.893 247.448 147.656 247.448C69.419 247.448 5.99536 251.151 5.99536 255.718C5.99536 260.286 69.419 263.989 147.656 263.989Z" fill="black" fill-opacity="0.2"/>
<path d="M213.929 204.558C226.712 204.558 237.075 194.195 237.075 181.412C237.075 168.629 226.712 158.266 213.929 158.266C201.145 158.266 190.782 168.629 190.782 181.412C190.782 194.195 201.145 204.558 213.929 204.558Z" fill="black" fill-opacity="0.2"/>
<path d="M213.931 204.845C209.296 204.847 204.766 203.474 200.911 200.9C197.057 198.326 194.053 194.667 192.278 190.386C190.504 186.104 190.039 181.393 190.942 176.847C191.845 172.302 194.076 168.126 197.353 164.848C200.629 161.571 204.804 159.338 209.35 158.434C213.895 157.529 218.607 157.993 222.889 159.766C227.171 161.539 230.831 164.542 233.405 168.396C235.98 172.249 237.355 176.779 237.355 181.414C237.349 187.625 234.88 193.581 230.488 197.973C226.097 202.366 220.142 204.837 213.931 204.845ZM213.931 158.56C209.409 158.56 204.989 159.901 201.229 162.413C197.47 164.926 194.539 168.497 192.809 172.674C191.079 176.852 190.627 181.449 191.51 185.884C192.392 190.319 194.57 194.392 197.768 197.589C200.966 200.786 205.04 202.963 209.476 203.844C213.911 204.725 218.508 204.272 222.685 202.54C226.862 200.809 230.432 197.878 232.943 194.117C235.454 190.357 236.794 185.936 236.792 181.414C236.786 175.353 234.376 169.543 230.09 165.258C225.803 160.973 219.992 158.564 213.931 158.56Z" fill="#E0E0E0"/>
<path d="M217.657 168.292H210.205V194.536H217.657V168.292Z" fill="black" fill-opacity="0.5"/>
<path d="M227.053 185.147V177.695H200.809V185.147H227.053Z" fill="black" fill-opacity="0.5"/>
<path d="M57.1386 6.45141L56.6417 5.91805C60.0239 2.72086 64.3154 0.652941 68.9235 0L69.0258 0.730624C64.5663 1.35955 60.4124 3.35864 57.1386 6.45141Z" fill="#EB5757"/>
<path d="M51.7323 14.4372L51.0528 14.1741C51.7903 12.3129 52.7732 10.5585 53.9753 8.95747L54.5598 9.39585C53.4006 10.9452 52.45 12.6402 51.7323 14.4372Z" fill="#EB5757"/>
<path d="M72.1165 42.4274C83.1889 42.4274 92.1648 33.4515 92.1648 22.3791C92.1648 11.3068 83.1889 2.33081 72.1165 2.33081C61.0441 2.33081 52.0682 11.3068 52.0682 22.3791C52.0682 33.4515 61.0441 42.4274 72.1165 42.4274Z" fill="#EB5757"/>
<path d="M84.0917 13.3487C83.3196 12.5471 82.3953 11.9075 81.3731 11.4673C80.3509 11.0271 79.2511 10.7951 78.1382 10.7849C77.0253 10.7747 75.9215 10.9865 74.8913 11.4079C73.8612 11.8293 72.9254 12.4518 72.1387 13.2391C71.3526 12.452 70.4174 11.8296 69.3879 11.4083C68.3584 10.987 67.2552 10.7753 66.1428 10.7855C65.0305 10.7957 63.9313 11.0276 62.9097 11.4677C61.8881 11.9079 60.9645 12.5473 60.193 13.3487C58.681 14.9842 57.8665 17.1448 57.9224 19.3714C57.9783 21.598 58.9004 23.715 60.4925 25.2725L69.9907 34.7706C70.2756 35.0555 70.6139 35.2816 70.9862 35.4358C71.3586 35.5901 71.7576 35.6695 72.1606 35.6695C72.5636 35.6695 72.9627 35.5901 73.335 35.4358C73.7073 35.2816 74.0456 35.0555 74.3306 34.7706L83.8287 25.2725C85.4158 23.7101 86.3312 21.5905 86.3803 19.3639C86.4294 17.1374 85.6084 14.9795 84.0917 13.3487Z" fill="white"/>
<path d="M72.1165 31.1394C71.9692 31.1343 71.8269 31.0849 71.7083 30.9975C71.5896 30.9102 71.5002 30.789 71.4516 30.6499L67.2213 18.2804L65.4532 23.4532C65.403 23.597 65.309 23.7214 65.1846 23.8092C65.0602 23.897 64.9114 23.9437 64.7591 23.9427H57.6794C57.4856 23.9427 57.2998 23.8658 57.1627 23.7287C57.0257 23.5917 56.9487 23.4059 56.9487 23.2121C56.9487 23.0183 57.0257 22.8325 57.1627 22.6955C57.2998 22.5585 57.4856 22.4815 57.6794 22.4815H64.255L66.5491 15.7817C66.5988 15.6381 66.692 15.5136 66.8158 15.4255C66.9395 15.3374 67.0877 15.29 67.2396 15.29C67.3915 15.29 67.5396 15.3374 67.6634 15.4255C67.7871 15.5136 67.8803 15.6381 67.93 15.7817L72.2334 28.3703L76.4126 18.5288C76.4654 18.4034 76.5522 18.2952 76.6632 18.2164C76.7742 18.1377 76.9051 18.0915 77.0409 18.0831C77.1777 18.0753 77.314 18.106 77.4341 18.1719C77.5543 18.2378 77.6535 18.3362 77.7204 18.4558L79.9269 22.4742H86.5829C86.7766 22.4742 86.9625 22.5512 87.0995 22.6882C87.2365 22.8252 87.3135 23.011 87.3135 23.2048C87.3135 23.3986 87.2365 23.5844 87.0995 23.7214C86.9625 23.8585 86.7766 23.9354 86.5829 23.9354H79.5031C79.3724 23.9365 79.2438 23.9025 79.1307 23.837C79.0176 23.7714 78.9242 23.6768 78.8602 23.5628L77.1286 20.465L72.7887 30.6937C72.7327 30.8258 72.6392 30.9384 72.5197 31.0177C72.4001 31.0969 72.2599 31.1393 72.1165 31.1394Z" fill="#EB5757"/>
<path d="M183.354 230.117H107.099C105.857 230.131 104.625 229.886 103.482 229.398C102.339 228.91 101.31 228.19 100.461 227.283C99.6118 226.376 98.9605 225.302 98.5486 224.13C98.1367 222.957 97.9732 221.712 98.0686 220.473L110.394 37.8173C110.61 35.2087 111.787 32.7733 113.697 30.9842C115.608 29.1952 118.115 28.1802 120.733 28.1365H197.002C198.248 28.1223 199.483 28.3681 200.629 28.8583C201.774 29.3485 202.805 30.0722 203.655 30.9833C204.505 31.8944 205.155 32.9727 205.565 34.1495C205.974 35.3262 206.134 36.5754 206.033 37.8173L193.685 220.473C193.463 223.075 192.284 225.501 190.375 227.283C188.467 229.064 185.965 230.074 183.354 230.117Z" fill="#263238"/>
<path d="M200.262 102.521H198.34C197.992 102.526 197.647 102.457 197.327 102.32C197.007 102.184 196.72 101.981 196.482 101.727C196.245 101.472 196.063 101.171 195.949 100.843C195.835 100.514 195.791 100.165 195.82 99.8182L198.179 64.9016C198.234 64.1714 198.561 63.4884 199.096 62.9878C199.63 62.4872 200.333 62.2054 201.065 62.1983H202.987C203.335 62.1941 203.68 62.2626 204 62.3994C204.32 62.5362 204.607 62.7383 204.845 62.9928C205.082 63.2473 205.264 63.5485 205.378 63.8772C205.492 64.2059 205.536 64.5549 205.508 64.9016L203.148 99.8182C203.093 100.548 202.766 101.231 202.231 101.732C201.697 102.233 200.994 102.514 200.262 102.521Z" fill="#263238"/>
<path d="M109.284 79.2289H107.37C107.086 79.2326 106.805 79.1775 106.545 79.0671C106.284 78.9566 106.049 78.7931 105.854 78.5871C105.66 78.381 105.511 78.1369 105.415 77.87C105.32 77.6032 105.282 77.3195 105.302 77.037L106.157 64.4264C106.211 63.8344 106.482 63.2832 106.917 62.8787C107.353 62.4741 107.922 62.2447 108.517 62.2346H110.438C110.721 62.2329 111 62.2895 111.26 62.4008C111.519 62.5121 111.753 62.6757 111.946 62.8814C112.14 63.0871 112.288 63.3305 112.383 63.5963C112.479 63.8622 112.518 64.1448 112.499 64.4264L111.644 77.037C111.591 77.6296 111.321 78.1818 110.885 78.5866C110.449 78.9915 109.879 79.2203 109.284 79.2289Z" fill="#407BFF"/>
<path d="M107.764 101.747H105.843C105.56 101.75 105.28 101.694 105.02 101.583C104.76 101.472 104.526 101.308 104.332 101.102C104.139 100.896 103.99 100.653 103.895 100.386C103.801 100.12 103.762 99.8369 103.782 99.5549L104.637 86.9444C104.691 86.3524 104.962 85.8012 105.398 85.3966C105.833 84.992 106.403 84.7627 106.997 84.7525H108.933C109.216 84.7509 109.495 84.8074 109.755 84.9187C110.014 85.03 110.248 85.1937 110.441 85.3994C110.635 85.6051 110.783 85.8484 110.879 86.1143C110.974 86.3801 111.013 86.6627 110.994 86.9444L110.139 99.5549C110.086 100.15 109.814 100.704 109.375 101.109C108.936 101.515 108.362 101.742 107.764 101.747Z" fill="#407BFF"/>
<path d="M181.74 230.118H105.485C104.242 230.131 103.011 229.887 101.868 229.399C100.725 228.911 99.6963 228.19 98.8469 227.283C97.9976 226.376 97.3463 225.302 96.9344 224.13C96.5225 222.958 96.3591 221.712 96.4544 220.473L108.787 37.8175C109.01 35.2079 110.196 32.7746 112.113 30.9907C114.031 29.2068 116.543 28.1999 119.162 28.1659H195.388C196.631 28.152 197.864 28.3971 199.007 28.8855C200.15 29.3739 201.18 30.095 202.029 31.0029C202.878 31.9107 203.53 32.9854 203.941 34.1587C204.352 35.3319 204.515 36.5779 204.419 37.8175L192.078 220.473C191.856 223.076 190.676 225.504 188.766 227.285C186.855 229.067 184.352 230.076 181.74 230.118Z" fill="#090F47"/>
<path opacity="0.3" d="M97.2578 218.427L109.298 40.1843H203.593L191.552 218.427H97.2578Z" fill="white"/>
<path opacity="0.1" d="M134.484 218.427L168.136 40.1843H189.259L155.606 218.427H134.484Z" fill="white"/>
<path opacity="0.1" d="M118.527 218.427L152.179 40.1843H162.883L129.23 218.427H118.527Z" fill="white"/>
<path d="M147.759 32.6442H166.148C166.302 32.6416 166.454 32.6712 166.596 32.7312C166.737 32.7912 166.864 32.8803 166.969 32.9925C167.073 33.1048 167.153 33.2378 167.203 33.383C167.253 33.5281 167.272 33.6822 167.259 33.8351C167.234 34.157 167.089 34.458 166.854 34.6795C166.619 34.9009 166.31 35.0271 165.988 35.0333H147.598C147.444 35.0349 147.292 35.0043 147.15 34.9435C147.009 34.8826 146.882 34.7929 146.777 34.6801C146.673 34.5673 146.593 34.4338 146.543 34.2883C146.493 34.1427 146.474 33.9884 146.487 33.8351C146.513 33.5139 146.657 33.2138 146.892 32.9935C147.127 32.7732 147.436 32.6486 147.759 32.6442Z" fill="white"/>
<path d="M143.93 247.689L137.486 248.303L135.163 233.434L141.607 232.813L143.93 247.689Z" fill="#FFB573"/>
<path d="M136.748 245.154L143.499 243.057C143.615 243.016 143.743 243.023 143.854 243.075C143.966 243.126 144.054 243.22 144.098 243.335L146.29 248.69C146.344 248.833 146.368 248.987 146.361 249.14C146.353 249.293 146.313 249.443 146.245 249.581C146.176 249.718 146.08 249.84 145.962 249.938C145.844 250.036 145.707 250.109 145.559 250.151C143.119 250.882 140.795 251.05 137.851 252.343C134.41 253.804 132.97 255.762 129.266 255.762C126.614 255.762 126.015 253.329 127.14 252.993C132.254 251.444 131.582 250.173 135.294 246.177C135.68 245.713 136.181 245.361 136.748 245.154Z" fill="#090F47"/>
<path opacity="0.2" d="M135.163 233.434L136.361 241.106L142.812 240.485L141.614 232.813L135.163 233.434Z" fill="black"/>
<path d="M139.824 45.5617C131.371 44.568 122.961 45.2329 114.522 46.8695C113.116 47.1424 111.833 47.8561 110.86 48.907C109.887 49.9579 109.273 51.2915 109.108 52.7145C108.195 60.7952 107.15 78.9073 111.227 105.926L145.771 103.003C145.837 98.1008 142.352 75.7656 145.231 52.5903C145.348 51.7721 145.301 50.9387 145.092 50.1392C144.882 49.3397 144.514 48.5902 144.01 47.935C143.506 47.2799 142.876 46.7324 142.157 46.3247C141.438 45.9171 140.645 45.6576 139.824 45.5617Z" fill="white"/>
<path d="M119.71 52.4883L120.945 54.9578C121.002 55.0824 121.094 55.1882 121.209 55.2632C121.324 55.3381 121.458 55.3791 121.595 55.3815L122.932 55.4546C123.171 55.465 123.405 55.3927 123.597 55.25L125.898 53.5331L123.056 51.4654L119.71 52.4883Z" fill="#263238"/>
<path d="M122.976 54.7457C122.489 54.5199 121.937 54.4759 121.42 54.6215C120.331 58.4573 119.14 69.4678 119.016 74.3483C122.318 83.9706 123.4 84.9424 123.4 84.9424L125.073 73.362C125.073 73.362 123.195 61.5186 122.976 54.7457Z" fill="#263238"/>
<path d="M132.511 28.9038C131.722 33.6675 131.049 42.3692 134.469 45.4452C131.963 48.0754 128.682 51.1221 123.056 51.4655C117.431 51.8089 118.3 47.9147 119.725 45.8324C124.978 44.4296 124.722 40.5134 123.692 36.853L132.511 28.9038Z" fill="#FFC3BD"/>
<path d="M135.901 45.0284C135.502 44.8566 135.089 44.7221 134.666 44.6266C134.562 44.5992 134.453 44.6065 134.354 44.6474C134.255 44.6884 134.172 44.7606 134.118 44.8531C133.577 45.7737 131.926 49.8871 123.056 51.4652C124.518 52.3274 126.454 55.0015 127.287 56.2874C129.946 54.9065 136.865 50.7784 136.208 45.4376C136.194 45.3494 136.159 45.2658 136.106 45.1944C136.052 45.123 135.982 45.066 135.901 45.0284Z" fill="#F5F5F5"/>
<path d="M119.776 46.0513C119.795 45.9681 119.792 45.8816 119.769 45.7997C119.746 45.7177 119.702 45.6428 119.643 45.5818C119.583 45.5208 119.51 45.4757 119.428 45.4505C119.347 45.4253 119.26 45.4209 119.177 45.4375C118.87 45.4972 118.567 45.5777 118.271 45.6786C118.202 45.7054 118.138 45.7424 118.081 45.7882C117.401 46.4166 113.697 51.7647 117.168 56.09C117.898 54.9137 120.419 52.247 123.056 51.4652C120.558 50.34 119.33 48.2431 119.776 46.0513Z" fill="#F5F5F5"/>
<path opacity="0.2" d="M128.916 32.1475L123.7 36.8527C123.951 37.7026 124.127 38.573 124.226 39.4537C126.242 39.1104 128.953 36.8235 129.099 34.7047C129.198 33.8484 129.136 32.9811 128.916 32.1475Z" fill="black"/>
<path d="M121.946 14.5033C117.445 16.2641 117.153 19.961 117.562 24.0014C117.971 28.0417 122.37 25.3677 123.349 22.8397C124.328 20.3117 128.178 12.063 121.946 14.5033Z" fill="#263238"/>
<path d="M136.303 22.5617C135.053 28.9255 134.637 32.7028 130.998 35.6326C125.511 40.0163 118.081 36.2317 117.423 29.6707C116.831 23.76 118.972 14.3276 125.526 12.4864C126.955 12.0656 128.469 12.025 129.919 12.3686C131.369 12.7122 132.704 13.4282 133.792 14.4457C134.881 15.4632 135.685 16.7471 136.125 18.1705C136.565 19.5938 136.626 21.1074 136.303 22.5617Z" fill="#FFC3BD"/>
<path d="M136.04 27.8296C130.684 28.1145 131.817 25.0751 132.788 23.3289C133.76 21.5827 131.78 18.6968 133.073 17.199C130.765 18.1196 128.332 17.3597 125.241 15.2117C122.845 13.5386 119.842 20.2238 116.919 16.8702C114.157 13.7066 116.722 8.93563 123.356 8.16847C129.99 7.40132 131.196 12.0919 135.55 11.6755C139.905 11.259 138.392 14.8464 137.537 15.577C141.191 15.8181 143.185 19.3105 136.04 27.8296Z" fill="#263238"/>
<path d="M136.697 16.0229C137.535 15.5634 138.235 14.8882 138.724 14.0674C139.214 13.2466 139.475 12.3099 139.481 11.3542C140.927 13.8895 140.774 16.7682 136.697 16.0229Z" fill="#263238"/>
<path d="M122.815 29.3565C123.397 29.4572 123.994 29.4393 124.569 29.3037C125.144 29.1681 125.686 28.9176 126.162 28.5674C126.176 28.5538 126.187 28.5373 126.195 28.5191C126.203 28.5009 126.207 28.4813 126.207 28.4615C126.207 28.4416 126.203 28.422 126.195 28.4038C126.187 28.3856 126.176 28.3692 126.162 28.3555C126.133 28.3283 126.095 28.3131 126.056 28.3131C126.016 28.3131 125.978 28.3283 125.95 28.3555C125.417 28.7332 124.804 28.982 124.158 29.0821C123.513 29.1823 122.853 29.1311 122.231 28.9327C122.191 28.9228 122.149 28.9278 122.113 28.9466C122.077 28.9654 122.048 28.9969 122.034 29.035C122.022 29.0738 122.026 29.1154 122.046 29.151C122.065 29.1866 122.097 29.2131 122.136 29.225C122.358 29.289 122.585 29.333 122.815 29.3565Z" fill="#263238"/>
<path d="M137.596 29.7802C136.595 31.0695 135.129 31.9143 133.512 32.1329C131.386 32.4105 130.677 30.4305 131.568 28.582C132.379 26.9162 134.491 24.7682 136.449 25.3454C138.407 25.9225 138.823 28.1729 137.596 29.7802Z" fill="#FFC3BD"/>
<path d="M135.484 168.139C135.74 149.062 138.18 103.625 138.18 103.625L111.249 105.897C111.249 105.897 116.605 152.722 119.834 172.186C123.195 192.417 133.504 239.813 133.504 239.813L144.464 238.878C144.464 238.878 140.46 182.89 135.484 168.139Z" fill="black"/>
<path d="M132.846 240.113L145.844 239.009L145.333 234.816L131.787 235.722L132.846 240.113Z" fill="#407BFF"/>
<path d="M126.702 22.9417C126.636 23.4605 126.3 23.855 125.972 23.8185C125.643 23.7819 125.416 23.3289 125.489 22.8029C125.562 22.2768 125.891 21.8896 126.22 21.9262C126.549 21.9627 126.775 22.423 126.702 22.9417Z" fill="#263238"/>
<path d="M120.74 22.4741C120.675 23.0002 120.338 23.3874 120.01 23.3509C119.681 23.3143 119.454 22.8614 119.527 22.3426C119.6 21.8239 119.929 21.4293 120.258 21.4659C120.587 21.5024 120.813 21.9262 120.74 22.4741Z" fill="#263238"/>
<path d="M122.421 23.0878C121.541 24.4398 120.484 25.6684 119.279 26.7409C120.053 27.5519 121.653 27.3327 121.653 27.3327L122.421 23.0878Z" fill="#ED893E"/>
<path opacity="0.4" d="M116.971 22.6056C116.861 23.4385 117.701 24.1326 118.863 24.2787C120.025 24.4248 121.099 23.7892 121.201 22.9563" fill="#407BFF"/>
<path opacity="0.4" d="M123.875 23.3802C123.714 24.2058 124.525 24.951 125.665 25.1702C126.804 25.3894 127.922 24.8049 128.076 23.9866" fill="#407BFF"/>
<path d="M126.118 25.3966C125.986 25.4039 125.854 25.4039 125.723 25.3966C125.162 25.3294 124.634 25.0924 124.211 24.7171C124.026 24.5593 123.882 24.3595 123.79 24.1345C123.699 23.9095 123.663 23.6658 123.685 23.4239C123.314 23.2625 122.919 23.1637 122.516 23.1317C122.11 23.0305 121.686 23.0305 121.281 23.1317C121.179 24.023 120.068 24.6367 118.826 24.4833C118.264 24.4219 117.736 24.187 117.314 23.8111C117.13 23.6525 116.986 23.4526 116.895 23.2278C116.804 23.003 116.767 22.7597 116.788 22.5179L117.138 22.5618C117.124 22.7486 117.154 22.9362 117.226 23.1091C117.298 23.2819 117.411 23.4349 117.555 23.5554C117.923 23.8794 118.382 24.081 118.87 24.1326C119.922 24.2714 120.857 23.7819 120.952 23.0513C121.003 22.6421 121.851 22.6714 122.552 22.759C123.254 22.8467 124.086 23.044 124.013 23.4458C123.998 23.6327 124.028 23.8205 124.1 23.9935C124.173 24.1664 124.286 24.3194 124.43 24.4395C124.802 24.7591 125.26 24.9626 125.747 25.0249C126.234 25.0873 126.729 25.0056 127.17 24.7902C127.34 24.7109 127.489 24.5919 127.603 24.4431C127.717 24.2943 127.794 24.1202 127.827 23.9353V23.76L136.843 24.9217L136.799 25.2724L128.12 24.1545C128.056 24.3579 127.953 24.5463 127.815 24.7083C127.676 24.8704 127.507 25.0026 127.316 25.097C126.947 25.2925 126.535 25.3953 126.118 25.3966Z" fill="#263238"/>
<path d="M128.996 20.6477C129.048 20.6478 129.099 20.6326 129.142 20.6038C129.213 20.5625 129.265 20.495 129.287 20.4158C129.309 20.3366 129.299 20.252 129.259 20.1801C129.033 19.7551 128.705 19.3927 128.305 19.125C127.904 18.8574 127.444 18.6927 126.965 18.6458C126.883 18.6417 126.802 18.6701 126.741 18.7247C126.679 18.7794 126.642 18.856 126.636 18.938C126.632 19.0182 126.66 19.0968 126.713 19.1569C126.766 19.217 126.841 19.2538 126.921 19.2595C127.3 19.304 127.663 19.4404 127.977 19.6569C128.292 19.8733 128.549 20.1633 128.726 20.5015C128.753 20.548 128.793 20.5862 128.841 20.6119C128.888 20.6376 128.942 20.65 128.996 20.6477Z" fill="#263238"/>
<path d="M118.812 19.8219C118.862 19.8269 118.913 19.8195 118.96 19.8004C119.007 19.7813 119.049 19.7511 119.082 19.7124C119.318 19.403 119.624 19.1533 119.974 18.9832C120.324 18.8132 120.709 18.7276 121.099 18.7333C121.139 18.7373 121.18 18.7333 121.218 18.7215C121.257 18.7097 121.293 18.6904 121.324 18.6645C121.356 18.6387 121.382 18.607 121.4 18.5711C121.419 18.5353 121.431 18.496 121.435 18.4557C121.44 18.4163 121.437 18.3763 121.426 18.338C121.416 18.2997 121.398 18.2639 121.373 18.2326C121.349 18.2013 121.319 18.1752 121.284 18.1558C121.249 18.1364 121.211 18.1241 121.172 18.1196C120.681 18.1067 120.194 18.2091 119.75 18.4185C119.306 18.6278 118.917 18.9383 118.614 19.3251C118.562 19.3872 118.537 19.4674 118.544 19.5482C118.551 19.6289 118.589 19.7037 118.651 19.7562C118.699 19.7905 118.754 19.813 118.812 19.8219Z" fill="#263238"/>
<path d="M157.922 165.063C152.332 136.335 151.076 113.868 145.771 102.96L119.681 105.882C119.681 105.882 135.221 148.689 142.812 166.962C150.696 185.959 166.258 218.413 166.258 218.413H179.292C179.292 218.413 167.128 178.148 157.922 165.063Z" fill="black"/>
<path d="M75.2223 56.3093L72.4021 54.5266C71.9443 54.2317 71.3984 54.1047 70.8575 54.1673C70.3165 54.2299 69.8141 54.4783 69.4358 54.87L67.5216 56.8865C67.3154 57.1041 67.156 57.3617 67.0534 57.6434C66.9508 57.9251 66.907 58.2248 66.9248 58.5241C66.9426 58.8233 67.0216 59.1157 67.1569 59.3832C67.2922 59.6508 67.481 59.8877 67.7115 60.0793L69.0778 61.2483C70.2662 62.2554 71.6525 63.0021 73.1474 63.4402L77.2754 64.6603L79.986 61.7378C80.8116 58.6911 75.2223 56.3093 75.2223 56.3093Z" fill="#FFC3BD"/>
<path d="M116.97 54.943C115.947 57.4417 114.946 59.7651 113.858 62.1396C112.769 64.5141 111.666 66.8594 110.446 69.1901C109.225 71.5208 107.925 73.8369 106.449 76.1603C105.718 77.3147 104.907 78.469 103.987 79.6307C102.997 80.9117 101.87 82.0803 100.626 83.1158C99.8045 83.7872 98.898 84.3473 97.93 84.7816C97.6231 84.8985 97.3382 85.0154 97.0021 85.1177L96.4907 85.2565C96.2334 85.3197 95.9722 85.3661 95.7089 85.3954C94.8182 85.4957 93.9167 85.4313 93.0494 85.2054C91.965 84.9019 90.9347 84.431 89.9954 83.8099C89.292 83.3709 88.6205 82.8826 87.9862 82.3487C85.8776 80.5077 83.9341 78.4859 82.1777 76.3064C80.4754 74.2606 78.868 72.2076 77.3264 70.1107C75.7848 68.0138 74.3016 65.9535 72.7819 63.7543L80.8626 58.5376C83.4127 62.6541 86.2343 66.596 89.3086 70.3372C90.7219 72.0701 92.2787 73.6808 93.9627 75.152C94.2889 75.4189 94.6331 75.663 94.9929 75.8826C95.2632 76.0653 95.5335 76.1384 95.3436 76.0726C95.0867 76.002 94.8176 75.987 94.5545 76.0288C94.4482 76.0386 94.343 76.0581 94.2403 76.0872H94.1819C94.1453 76.0872 94.1453 76.0872 94.138 76.0872C94.3042 75.9787 94.4629 75.8591 94.6129 75.7292C95.2799 75.1239 95.8844 74.4532 96.4176 73.7273C97.0386 72.8944 97.6597 71.9592 98.2515 70.9875C99.4611 68.9671 100.563 66.8844 101.554 64.7479C102.577 62.5561 103.563 60.3642 104.476 58.0846C105.39 55.8051 106.259 53.489 106.997 51.2752L116.97 54.943Z" fill="#E0E0E0"/>
<g opacity="0.6">
<path opacity="0.6" d="M116.97 54.943C115.947 57.4417 114.946 59.7651 113.858 62.1396C112.769 64.5141 111.666 66.8594 110.446 69.1901C109.225 71.5208 107.925 73.8369 106.449 76.1603C105.718 77.3147 104.907 78.469 103.987 79.6307C102.997 80.9117 101.87 82.0803 100.626 83.1158C99.8045 83.7872 98.898 84.3473 97.93 84.7816C97.6231 84.8985 97.3382 85.0154 97.0021 85.1177L96.4907 85.2565C96.2334 85.3197 95.9722 85.3661 95.7089 85.3954C94.8182 85.4957 93.9167 85.4313 93.0494 85.2054C91.965 84.9019 90.9347 84.431 89.9954 83.8099C89.292 83.3709 88.6205 82.8826 87.9862 82.3487C85.8776 80.5077 83.9341 78.4859 82.1777 76.3064C80.4754 74.2606 78.868 72.2076 77.3264 70.1107C75.7848 68.0138 74.3016 65.9535 72.7819 63.7543L80.8626 58.5376C83.4127 62.6541 86.2343 66.596 89.3086 70.3372C90.7219 72.0701 92.2787 73.6808 93.9627 75.152C94.2889 75.4189 94.6331 75.663 94.9929 75.8826C95.2632 76.0653 95.5335 76.1384 95.3436 76.0726C95.0867 76.002 94.8176 75.987 94.5545 76.0288C94.4482 76.0386 94.343 76.0581 94.2403 76.0872H94.1819C94.1453 76.0872 94.1453 76.0872 94.138 76.0872C94.3042 75.9787 94.4629 75.8591 94.6129 75.7292C95.2799 75.1239 95.8844 74.4532 96.4176 73.7273C97.0386 72.8944 97.6597 71.9592 98.2515 70.9875C99.4611 68.9671 100.563 66.8844 101.554 64.7479C102.577 62.5561 103.563 60.3642 104.476 58.0846C105.39 55.8051 106.259 53.489 106.997 51.2752L116.97 54.943Z" fill="white"/>
</g>
<path d="M136.098 43.728C133.358 48.8424 123.604 68.3282 122.42 80.3542C118.102 69.3949 119.045 45.1528 119.045 45.1528C115.968 45.4527 112.949 46.1908 110.08 47.3446C109.156 47.7245 108.354 48.3529 107.765 49.1601C107.176 49.9674 106.821 50.9221 106.741 51.9183C105.9 64.4619 106.297 77.0577 107.925 89.5236C110.957 113.123 113.77 149.822 113.77 149.822C113.77 149.822 137.917 148.814 156.548 144.883C154.276 126.844 146.502 96.6106 146.429 88.5153C146.341 78.0966 146.582 57.7268 146.911 49.2223C146.966 48.0216 146.59 46.8408 145.85 45.8934C145.11 44.946 144.056 44.2946 142.878 44.0568C140.643 43.6426 138.362 43.532 136.098 43.728Z" fill="#F2F2F2"/>
<path opacity="0.7" d="M136.098 43.7279C133.358 48.8423 123.604 68.3281 122.42 80.3541C118.102 69.3948 119.045 45.1527 119.045 45.1527C115.968 45.4526 112.949 46.1907 110.08 47.3445C109.156 47.7244 108.354 48.3528 107.765 49.16C107.176 49.9673 106.821 50.922 106.741 51.9182C105.9 64.4618 106.297 77.0576 107.925 89.5235C110.957 113.123 113.77 149.822 113.77 149.822C113.77 149.822 137.917 148.814 156.548 144.883C154.276 126.844 146.502 96.6105 146.429 88.5152C146.341 78.0965 146.582 57.7194 146.911 49.2149C146.98 48.0508 146.636 46.8995 145.94 45.964C145.243 45.0284 144.239 44.3686 143.104 44.1006C140.798 43.6485 138.439 43.5231 136.098 43.7279Z" fill="white"/>
<path d="M130.406 145.906C126.212 122.767 122.888 88.8148 122.618 84.7307H122.99C123.261 88.8148 126.592 122.723 130.779 145.862L130.406 145.906Z" fill="white"/>
<path d="M128.317 104.742H106.047C105.598 104.722 105.167 104.557 104.819 104.271C104.471 103.985 104.225 103.594 104.118 103.157L96.6733 68.5472C96.6188 68.3583 96.6099 68.1591 96.6474 67.9661C96.6849 67.7731 96.7676 67.5917 96.8889 67.4369C97.0102 67.2821 97.1665 67.1583 97.3449 67.0757C97.5234 66.9931 97.7189 66.9541 97.9153 66.9618H120.177C120.628 66.9805 121.061 67.1452 121.41 67.4312C121.759 67.7171 122.006 68.1088 122.114 68.5472L129.559 103.157C129.613 103.346 129.622 103.545 129.585 103.738C129.547 103.931 129.464 104.112 129.343 104.267C129.222 104.422 129.065 104.546 128.887 104.628C128.709 104.711 128.513 104.75 128.317 104.742Z" fill="white"/>
<path d="M127.623 105.035H104.973C104.516 105.013 104.077 104.845 103.723 104.554C103.368 104.263 103.118 103.865 103.008 103.42L95.4315 68.2257C95.3772 68.0329 95.3693 67.8299 95.4084 67.6334C95.4475 67.4369 95.5325 67.2524 95.6564 67.095C95.7803 66.9376 95.9397 66.8117 96.1216 66.7276C96.3034 66.6435 96.5025 66.6036 96.7027 66.6111H119.352C119.81 66.6324 120.249 66.8011 120.603 67.0921C120.957 67.383 121.208 67.7807 121.317 68.2257L128.887 103.42C128.942 103.612 128.952 103.815 128.914 104.012C128.876 104.208 128.791 104.393 128.668 104.551C128.545 104.708 128.385 104.834 128.204 104.919C128.022 105.003 127.823 105.042 127.623 105.035Z" fill="#4157FF"/>
<path d="M130.216 85.1763L124.583 84.9644C123.906 84.9411 123.231 85.0606 122.603 85.3151L119.681 86.4841C119.407 86.5927 119.157 86.7555 118.947 86.9628C118.738 87.1701 118.572 87.4176 118.46 87.6905C118.348 87.9633 118.292 88.256 118.296 88.5508C118.3 88.8457 118.364 89.1368 118.483 89.4066L119.652 91.9346C119.887 92.4249 120.285 92.8189 120.777 93.0505C121.27 93.282 121.827 93.3369 122.355 93.2059L125.577 92.4022C125.577 92.4022 131.627 91.92 131.846 88.7491L130.216 85.1763Z" fill="#FFC3BD"/>
<path d="M145.772 46.8623C147.167 49.0541 148.446 51.056 149.702 53.2041C150.959 55.3521 152.194 57.4782 153.355 59.6993C154.517 61.9204 155.62 64.2146 156.621 66.6695C157.141 67.9551 157.585 69.27 157.951 70.6075C158.422 72.2377 158.639 73.9307 158.594 75.6269V75.9119C158.597 75.9605 158.597 76.0093 158.594 76.058C158.594 76.321 158.521 76.584 158.47 76.8471C158.419 77.1101 158.353 77.3147 158.28 77.5777C158.207 77.8407 158.126 77.9795 158.046 78.1841C157.767 78.8163 157.408 79.4104 156.979 79.9522C156.382 80.6981 155.704 81.3745 154.956 81.9687C153.806 82.8739 152.585 83.6828 151.302 84.3871C149.047 85.6204 146.725 86.7277 144.347 87.7041C142.045 88.6832 139.751 89.5745 137.442 90.4147C135.134 91.255 132.861 92.066 130.458 92.8696L127.674 83.6638C129.866 83.0647 132.102 82.3267 134.286 81.5815C136.471 80.8363 138.67 80.0034 140.745 79.1339C142.781 78.2927 144.767 77.334 146.692 76.2626C147.505 75.8122 148.279 75.2966 149.008 74.7209C149.2 74.5757 149.372 74.4062 149.52 74.2168C149.457 74.2877 149.407 74.3694 149.374 74.4579C149.374 74.5237 149.337 74.5675 149.301 74.6479C149.272 74.7337 149.25 74.8217 149.235 74.9109C149.204 75.0232 149.184 75.1382 149.176 75.2543C149.176 75.2981 149.176 75.3054 149.176 75.2908V75.2397C149.125 74.5465 148.99 73.862 148.774 73.2012C148.482 72.2447 148.136 71.3055 147.737 70.3883C146.844 68.366 145.834 66.3973 144.712 64.4922C143.572 62.5341 142.36 60.5761 141.059 58.6472C139.759 56.7184 138.429 54.7968 137.092 53.0433L145.772 46.8623Z" fill="#E0E0E0"/>
<g opacity="0.7">
<path opacity="0.7" d="M145.772 46.8623C147.167 49.0541 148.446 51.056 149.702 53.2041C150.959 55.3521 152.194 57.4782 153.355 59.6993C154.517 61.9204 155.62 64.2146 156.621 66.6695C157.141 67.9551 157.585 69.27 157.951 70.6075C158.422 72.2377 158.639 73.9307 158.594 75.6269V75.9119C158.597 75.9605 158.597 76.0093 158.594 76.058C158.594 76.321 158.521 76.584 158.47 76.8471C158.419 77.1101 158.353 77.3147 158.28 77.5777C158.207 77.8407 158.126 77.9795 158.046 78.1841C157.767 78.8163 157.408 79.4104 156.979 79.9522C156.382 80.6981 155.704 81.3745 154.956 81.9687C153.806 82.8739 152.585 83.6828 151.302 84.3871C149.047 85.6204 146.725 86.7277 144.347 87.7041C142.045 88.6832 139.751 89.5745 137.442 90.4147C135.134 91.255 132.861 92.066 130.458 92.8696L127.674 83.6638C129.866 83.0647 132.102 82.3267 134.286 81.5815C136.471 80.8363 138.67 80.0034 140.745 79.1339C142.781 78.2927 144.767 77.334 146.692 76.2626C147.505 75.8122 148.279 75.2966 149.008 74.7209C149.2 74.5757 149.372 74.4062 149.52 74.2168C149.457 74.2877 149.407 74.3694 149.374 74.4579C149.374 74.5237 149.337 74.5675 149.301 74.6479C149.272 74.7337 149.25 74.8217 149.235 74.9109C149.204 75.0232 149.184 75.1382 149.176 75.2543C149.176 75.2981 149.176 75.3054 149.176 75.2908V75.2397C149.125 74.5465 148.99 73.862 148.774 73.2012C148.482 72.2447 148.136 71.3055 147.737 70.3883C146.844 68.366 145.834 66.3973 144.712 64.4922C143.572 62.5341 142.36 60.5761 141.059 58.6472C139.759 56.7184 138.429 54.7968 137.092 53.0433L145.772 46.8623Z" fill="white"/>
</g>
<path d="M138.378 72.2149C138.329 72.2143 138.281 72.2013 138.239 72.177C138.197 72.1527 138.162 72.1179 138.137 72.0761C138.115 72.0442 138.1 72.0083 138.093 71.9706C138.086 71.9329 138.087 71.8941 138.095 71.8565C138.103 71.819 138.119 71.7835 138.141 71.7522C138.163 71.7209 138.192 71.6944 138.224 71.6743L139.364 70.9437C140.428 70.2727 141.263 69.2946 141.759 68.1387C142.254 66.9828 142.388 65.7036 142.14 64.4703L139.846 52.8534C139.678 51.9848 139.222 51.1982 138.552 50.6209C137.882 50.0436 137.036 49.7094 136.152 49.6722C135.268 49.635 134.398 49.8971 133.681 50.4161C132.965 50.935 132.444 51.6805 132.204 52.5319L128.953 63.9224C128.598 65.1264 128.617 66.41 129.009 67.6027C129.4 68.7954 130.145 69.8408 131.145 70.6003L132.226 71.4186C132.287 71.4662 132.326 71.5359 132.336 71.6126C132.345 71.6893 132.324 71.7666 132.277 71.8277C132.254 71.8576 132.225 71.8827 132.193 71.9015C132.16 71.9203 132.124 71.9324 132.087 71.9371C132.049 71.9419 132.011 71.9392 131.975 71.9292C131.939 71.9192 131.905 71.9021 131.875 71.8789L130.852 71.0679C129.754 70.2405 128.932 69.0986 128.498 67.7937C128.063 66.4887 128.036 65.0825 128.419 63.7616L131.678 52.3712C131.958 51.3986 132.556 50.5481 133.377 49.9563C134.198 49.3646 135.194 49.0657 136.205 49.1079C137.216 49.15 138.184 49.5306 138.953 50.1887C139.722 50.8467 140.248 51.744 140.445 52.7365L142.74 64.3607C143.01 65.708 142.865 67.1057 142.324 68.3688C141.783 69.6318 140.87 70.7005 139.707 71.4332L138.56 72.1638C138.535 72.1842 138.506 72.1993 138.474 72.2081C138.443 72.2169 138.41 72.2192 138.378 72.2149Z" fill="#263238"/>
<path d="M140.131 53.0947L131.926 52.7513C131.887 52.7494 131.85 52.74 131.815 52.7235C131.78 52.7071 131.749 52.684 131.723 52.6555C131.698 52.627 131.678 52.5937 131.665 52.5574C131.652 52.5212 131.646 52.4828 131.648 52.4444C131.655 52.3682 131.691 52.2975 131.748 52.2461C131.805 52.1947 131.878 52.1664 131.955 52.1668L140.153 52.5102C140.191 52.5121 140.229 52.5215 140.263 52.5379C140.298 52.5544 140.329 52.5775 140.355 52.606C140.381 52.6345 140.401 52.6678 140.414 52.7041C140.427 52.7403 140.432 52.7787 140.43 52.8171C140.429 52.8551 140.421 52.8926 140.405 52.9273C140.389 52.962 140.367 52.9932 140.339 53.0191C140.311 53.045 140.278 53.065 140.243 53.078C140.207 53.091 140.169 53.0967 140.131 53.0947Z" fill="#263238"/>
<path d="M136.142 49.6898C136.066 49.688 135.994 49.6576 135.94 49.6048C135.885 49.5519 135.853 49.4805 135.849 49.4048C135.849 47.9436 135.397 45.4083 134.03 44.853C133.992 44.8403 133.958 44.82 133.928 44.7934C133.898 44.7667 133.874 44.7343 133.858 44.698C133.841 44.6618 133.832 44.6225 133.831 44.5827C133.83 44.5428 133.837 44.5031 133.852 44.4662C133.867 44.4292 133.89 44.3957 133.918 44.3677C133.947 44.3397 133.98 44.3179 134.018 44.3035C134.055 44.289 134.095 44.2824 134.134 44.2839C134.174 44.2855 134.213 44.2951 134.249 44.3124C136.273 45.1453 136.441 48.9591 136.441 49.4267C136.441 49.5037 136.412 49.5778 136.359 49.6335C136.306 49.6893 136.233 49.7225 136.156 49.7263L136.142 49.6898Z" fill="#263238"/>
<path d="M111.045 59.6191H110.986C110.911 59.6033 110.845 59.5583 110.803 59.494C110.76 59.4297 110.745 59.3513 110.76 59.2757C111.724 54.4755 115.714 46.899 119.228 44.6633C119.26 44.6433 119.296 44.63 119.333 44.6239C119.37 44.6179 119.408 44.6194 119.445 44.6282C119.482 44.6371 119.516 44.6531 119.547 44.6754C119.577 44.6977 119.603 44.7259 119.622 44.7582C119.644 44.7895 119.658 44.8249 119.665 44.8621C119.673 44.8992 119.672 44.9375 119.664 44.9744C119.656 45.0114 119.64 45.0463 119.618 45.0769C119.595 45.1076 119.567 45.1334 119.535 45.1528C116.137 47.3008 112.265 54.6509 111.33 59.378C111.318 59.4451 111.283 59.506 111.231 59.55C111.179 59.594 111.113 59.6185 111.045 59.6191Z" fill="#263238"/>
<path d="M113.441 60.3714C112.988 61.5331 111.98 62.2345 111.249 61.935C110.519 61.6354 110.234 60.4737 110.687 59.2828C111.14 58.0919 112.148 57.4197 112.879 57.7266C113.609 58.0334 113.901 59.2097 113.441 60.3714Z" fill="white"/>
<path d="M132.729 71.6889C132.729 72.2295 132.393 72.6606 132.035 72.646C131.677 72.6314 131.4 72.1784 131.422 71.6304C131.444 71.0824 131.758 70.6514 132.116 70.6733C132.474 70.6952 132.751 71.1409 132.729 71.6889Z" fill="white"/>
<path d="M139.028 71.9519C139.028 72.4926 138.699 72.9237 138.334 72.909C137.968 72.8944 137.705 72.4414 137.727 71.8935C137.749 71.3455 138.056 70.9217 138.458 70.9364C138.86 70.951 139.05 71.4259 139.028 71.9519Z" fill="white"/>
</g>
<defs>
<linearGradient id="paint0_linear_1_14" x1="145.5" y1="-55.2121" x2="145.5" y2="261.788" gradientUnits="userSpaceOnUse">
<stop stop-color="#73B2FF"/>
<stop offset="1" stop-color="#4D61FF"/>
</linearGradient>
</defs>
</svg>
