<svg width="17" height="18" viewBox="0 0 17 18" fill="none" xmlns="http://www.w3.org/2000/svg">
<path fill-rule="evenodd" clip-rule="evenodd" d="M6.91428 6.69986C6.91428 3.41581 8.50004 0.75355 8.50004 0.75355C8.50004 0.75355 10.0858 3.41581 10.0858 6.69986C10.0858 9.98391 8.50004 12.6462 8.50004 12.6462C8.50004 12.6462 6.91428 9.98391 6.91428 6.69986V6.69986Z" stroke="white" stroke-width="1.5" stroke-linecap="round" stroke-linejoin="round"/>
<path fill-rule="evenodd" clip-rule="evenodd" d="M12.1387 9.84106C13.6613 8.31845 15.7368 7.9246 15.7368 7.9246C15.7368 7.9246 15.3435 10.0001 13.8203 11.5227C12.2977 13.0459 10.2222 13.4392 10.2222 13.4392C10.2222 13.4392 10.616 11.3637 12.1387 9.84106V9.84106Z" stroke="white" stroke-width="1.5" stroke-linecap="round" stroke-linejoin="round"/>
<path fill-rule="evenodd" clip-rule="evenodd" d="M13.2345 14.5327C14.8984 14.5327 16.2464 15.681 16.2464 15.681C16.2464 15.681 14.8984 16.8292 13.2345 16.8292C11.5707 16.8292 10.2226 15.681 10.2226 15.681C10.2226 15.681 11.5707 14.5327 13.2345 14.5327V14.5327Z" stroke="white" stroke-width="1.5" stroke-linecap="round" stroke-linejoin="round"/>
<path fill-rule="evenodd" clip-rule="evenodd" d="M4.86144 9.78636C3.33883 8.26375 1.26334 7.8699 1.26334 7.8699C1.26334 7.8699 1.65662 9.94539 3.1798 11.468C4.7024 12.9912 6.7779 13.3845 6.7779 13.3845C6.7779 13.3845 6.38404 11.309 4.86144 9.78636V9.78636Z" stroke="white" stroke-width="1.5" stroke-linecap="round" stroke-linejoin="round"/>
<path fill-rule="evenodd" clip-rule="evenodd" d="M3.76546 14.5327C2.10162 14.5327 0.75355 15.681 0.75355 15.681C0.75355 15.681 2.10162 16.8292 3.76546 16.8292C5.4293 16.8292 6.77737 15.681 6.77737 15.681C6.77737 15.681 5.4293 14.5327 3.76546 14.5327V14.5327Z" stroke="white" stroke-width="1.5" stroke-linecap="round" stroke-linejoin="round"/>
</svg>
