<svg width="13" height="12" viewBox="0 0 13 12" fill="none" xmlns="http://www.w3.org/2000/svg">
<path d="M7.09107 2.92039C7.09107 1.31022 5.76544 0 4.13632 0C2.50721 0 1.18157 1.31022 1.18157 2.92039C1.18157 4.53056 2.50721 5.84078 4.13632 5.84078C5.76544 5.84078 7.09107 4.53056 7.09107 2.92039Z" fill="white"/>
<path d="M0 9.92934V11.7205H8.2733V9.92934C8.2733 7.67516 6.41735 5.84079 4.13665 5.84079C1.85595 5.84079 0 7.67516 0 9.92934Z" fill="white"/>
<path d="M13 11.0975C13 9.4873 11.6744 8.17708 10.0453 8.17708C9.73964 8.17708 9.45063 8.2364 9.17316 8.32188C9.34044 8.83174 9.45432 9.36516 9.45432 9.92932V11.7205H13V11.0975Z" fill="white"/>
<path d="M12.4103 5.84081C12.4103 4.55234 11.3502 3.5045 10.0465 3.5045C8.7429 3.5045 7.68273 4.55234 7.68273 5.84081C7.68273 5.91519 7.69797 5.98546 7.70489 6.05802C8.28769 6.58308 8.75768 7.22389 9.05962 7.95688C9.36094 8.09484 9.69319 8.17713 10.0465 8.17713C11.3502 8.17713 12.4103 7.12928 12.4103 5.84081Z" fill="white"/>
</svg>
