<svg width="19" height="16" viewBox="0 0 19 16" fill="none" xmlns="http://www.w3.org/2000/svg">
<path d="M9.07074 2.957L9.49999 3.67569L9.92926 2.95701C10.2205 2.46934 10.7093 1.8102 11.4327 1.29762L11.1502 0.898823L11.4327 1.29762C12.1805 0.76778 13.0246 0.5 13.9531 0.5C16.5571 0.5 18.5 2.43513 18.5 5.01509C18.5 6.3912 17.9048 7.57727 16.7636 8.83888C15.6102 10.114 13.949 11.413 11.888 13.022L11.888 13.022L11.8875 13.0224C11.1916 13.5657 10.4007 14.1832 9.5782 14.8422L9.57803 14.8424C9.56238 14.8549 9.53507 14.8668 9.5 14.8668C9.46494 14.8668 9.43766 14.8549 9.42205 14.8424L9.42178 14.8422C8.59975 14.1836 7.80916 13.5663 7.11389 13.0235L7.11241 13.0223L7.1124 13.0223C5.05121 11.4131 3.38994 10.114 2.23646 8.83892C1.09516 7.57726 0.5 6.3912 0.5 5.01509C0.5 2.43513 2.44287 0.5 5.04688 0.5C5.97541 0.5 6.81945 0.76778 7.56725 1.29762C8.29071 1.81021 8.77946 2.46931 9.07074 2.957Z" stroke="#B9B9B9"/>
</svg>
