<svg width="16" height="18" viewBox="0 0 16 18" fill="none" xmlns="http://www.w3.org/2000/svg">
<path d="M3.07692 0.61536L0.615383 3.89741V15.3846C0.615383 15.8198 0.788276 16.2372 1.09603 16.545C1.40378 16.8527 1.82118 17.0256 2.25641 17.0256H13.7436C14.1788 17.0256 14.5962 16.8527 14.904 16.545C15.2117 16.2372 15.3846 15.8198 15.3846 15.3846V3.89741L12.9231 0.61536H3.07692Z" stroke="white" stroke-width="1.2" stroke-linecap="round" stroke-linejoin="round"/>
<path d="M0.615383 3.89742H15.3846" stroke="white" stroke-width="1.2" stroke-linecap="round" stroke-linejoin="round"/>
<path d="M11.2821 7.17949C11.2821 8.04994 10.9363 8.88474 10.3208 9.50025C9.70526 10.1158 8.87045 10.4615 8 10.4615C7.12955 10.4615 6.29474 10.1158 5.67924 9.50025C5.06373 8.88474 4.71795 8.04994 4.71795 7.17949" stroke="white" stroke-width="1.2" stroke-linecap="round" stroke-linejoin="round"/>
</svg>
