<svg width="10" height="9" viewBox="0 0 10 9" fill="none" xmlns="http://www.w3.org/2000/svg">
<path d="M4.56003 1.80998L4.99999 2.62488L5.43997 1.80999C5.58634 1.53889 5.82667 1.18341 6.17355 0.911517L5.86885 0.52279L6.17355 0.911516C6.52659 0.634791 6.91613 0.5 7.34375 0.5C8.53841 0.5 9.5 1.48588 9.5 2.92005C9.5 3.66759 9.21062 4.31644 8.63103 5.02526C8.03876 5.74958 7.18166 6.49202 6.09199 7.43317L6.09198 7.43317L6.0916 7.4335C5.76102 7.71903 5.38873 8.04059 5.00001 8.38356C4.61164 8.04091 4.23964 7.7196 3.90946 7.43441L3.90826 7.43337L3.90825 7.43336C2.81845 6.49212 1.9613 5.74963 1.369 5.02528C0.789382 4.31644 0.5 3.66758 0.5 2.92005C0.5 1.48588 1.46159 0.5 2.65625 0.5C3.08386 0.5 3.47341 0.634791 3.82645 0.911516L4.10293 0.558784L3.82645 0.911517C4.17333 1.18341 4.41366 1.53888 4.56003 1.80998Z" stroke="#777EA5"/>
</svg>
