<svg width="17" height="15" viewBox="0 0 17 15" fill="none" xmlns="http://www.w3.org/2000/svg">
<path d="M12.3116 0C11.4019 0 10.5678 0.292168 9.83266 0.868407C9.12786 1.42085 8.65861 2.12449 8.38235 2.63615C8.1061 2.12446 7.63685 1.42085 6.93204 0.868407C6.19688 0.292168 5.36284 0 4.45312 0C1.91445 0 0 2.10455 0 4.89538C0 7.91044 2.38841 9.97331 6.00416 13.0962C6.61816 13.6265 7.31413 14.2277 8.0375 14.8688C8.13285 14.9534 8.25531 15 8.38235 15C8.5094 15 8.63186 14.9534 8.72721 14.8688C9.45064 14.2276 10.1466 13.6265 10.7609 13.0959C14.3763 9.97331 16.7647 7.91044 16.7647 4.89538C16.7647 2.10455 14.8503 0 12.3116 0Z" fill="#FB0000"/>
</svg>
