<svg width="48" height="48" viewBox="0 0 48 48" fill="none" xmlns="http://www.w3.org/2000/svg">
<circle cx="24" cy="24" r="24" fill="#0EBEBE"/>
<path d="M33.4628 22.6502C33.4623 22.6498 33.4618 22.6493 33.4614 22.6488L25.3021 14.5365C24.9544 14.1906 24.492 14 24.0001 14C23.5083 14 23.0459 14.1904 22.698 14.5364L14.543 22.6446C14.5402 22.6473 14.5375 22.6502 14.5347 22.6529C13.8206 23.3671 13.8218 24.5259 14.5383 25.2383C14.8656 25.5639 15.2979 25.7525 15.7601 25.7722C15.7789 25.7741 15.7978 25.775 15.8169 25.775H16.1421V31.7451C16.1421 32.9265 17.1089 33.8877 18.2973 33.8877H21.4895C21.813 33.8877 22.0755 33.6269 22.0755 33.3051V28.6245C22.0755 28.0854 22.5165 27.6469 23.0587 27.6469H24.9415C25.4837 27.6469 25.9248 28.0854 25.9248 28.6245V33.3051C25.9248 33.6269 26.1871 33.8877 26.5108 33.8877H29.7029C30.8914 33.8877 31.8581 32.9265 31.8581 31.7451V25.775H32.1597C32.6514 25.775 33.1138 25.5845 33.4618 25.2386C34.1791 24.525 34.1794 23.3643 33.4628 22.6502Z" fill="white"/>
</svg>
