<svg width="9" height="9" viewBox="0 0 9 9" fill="none" xmlns="http://www.w3.org/2000/svg">
<path d="M8.98707 3.41753C8.95607 3.31746 8.87357 3.24452 8.77426 3.22941L5.98422 2.80439L4.73644 0.154069C4.69204 0.0597224 4.60037 0 4.50001 0C4.39964 0 4.30799 0.0597224 4.26357 0.154069L3.01574 2.80439L0.225753 3.22941C0.126454 3.24452 0.0439252 3.31746 0.0129175 3.41752C-0.0181077 3.51759 0.00776717 3.62744 0.0796438 3.70087L2.09845 5.76386L1.62194 8.67688C1.60496 8.78059 1.64564 8.88537 1.72683 8.94722C1.77276 8.9822 1.82717 9 1.88183 9C1.92381 9 1.96593 8.98952 2.00449 8.96825L4.5 7.59289L6.99539 8.96823C7.08425 9.01719 7.19188 9.00905 7.27307 8.94721C7.35427 8.88536 7.39496 8.78055 7.378 8.67684L6.90133 5.76386L8.92037 3.70085C8.99222 3.62744 9.01812 3.51759 8.98707 3.41753Z" fill="#F6D060"/>
</svg>
