<svg width="17" height="14" viewBox="0 0 17 14" fill="none" xmlns="http://www.w3.org/2000/svg">
<path d="M7.98389 4.43212L10.3049 6.75317L10.316 6.63159C10.316 5.41211 9.32495 4.42107 8.10547 4.42107L7.98389 4.43212Z" fill="#677294"/>
<path d="M8.10522 2.94741C10.1389 2.94741 11.7894 4.59795 11.7894 6.63164C11.7894 7.1069 11.6937 7.56006 11.5279 7.97636L13.6831 10.1316C14.7958 9.20321 15.6726 8.00216 16.2142 6.63164C14.9358 3.39691 11.7931 1.10532 8.10525 1.10532C7.07366 1.10532 6.08631 1.28952 5.16895 1.62109L6.76053 3.20898C7.1768 3.04689 7.62995 2.94741 8.10522 2.94741Z" fill="#677294"/>
<path d="M0.736831 0.939474L2.41683 2.61948L2.75211 2.95475C1.53632 3.90528 0.574737 5.16898 0 6.63159C1.27475 9.86631 4.42106 12.1579 8.10528 12.1579C9.2474 12.1579 10.3379 11.9369 11.3363 11.5353L11.6495 11.8484L13.7974 14L14.7369 13.0642L1.67631 0L0.736831 0.939474ZM4.81159 5.01054L5.95002 6.14896C5.91686 6.3074 5.89475 6.4658 5.89475 6.63159C5.89475 7.85107 6.88579 8.84211 8.10528 8.84211C8.27107 8.84211 8.4295 8.82001 8.58424 8.78685L9.72266 9.92527C9.23265 10.1684 8.68741 10.3158 8.10528 10.3158C6.0716 10.3158 4.42106 8.66527 4.42106 6.63159C4.42106 6.04949 4.56844 5.50422 4.81159 5.01054Z" fill="#677294"/>
</svg>
