<svg width="80" height="12" viewBox="0 0 80 12" fill="none" xmlns="http://www.w3.org/2000/svg">
<path d="M11.9828 4.55671C11.9414 4.42327 11.8314 4.32603 11.699 4.30588L7.97896 3.73919L6.31525 0.205426C6.25605 0.0796298 6.13382 0 6.00002 0C5.86619 0 5.74399 0.0796298 5.68476 0.205426L4.02099 3.73919L0.301003 4.30588C0.168606 4.32603 0.058567 4.42328 0.0172234 4.55669C-0.0241436 4.69012 0.0103562 4.83658 0.106192 4.93449L2.79793 7.68515L2.16259 11.5692C2.13995 11.7074 2.19418 11.8472 2.30244 11.9296C2.36368 11.9763 2.43622 12 2.50911 12C2.56508 12 2.62124 11.986 2.67266 11.9577L6 10.1238L9.32719 11.9576C9.44567 12.0229 9.58918 12.0121 9.69743 11.9296C9.80569 11.8472 9.85995 11.7074 9.83733 11.5691L9.20178 7.68515L11.8938 4.93447C11.9896 4.83658 12.0242 4.69012 11.9828 4.55671Z" fill="#F6D060"/>
<path d="M28.9828 4.55671C28.9414 4.42327 28.8314 4.32603 28.699 4.30588L24.979 3.73919L23.3153 0.205426C23.256 0.0796298 23.1338 0 23 0C22.8662 0 22.744 0.0796298 22.6848 0.205426L21.021 3.73919L17.301 4.30588C17.1686 4.32603 17.0586 4.42328 17.0172 4.55669C16.9759 4.69012 17.0104 4.83658 17.1062 4.93449L19.7979 7.68515L19.1626 11.5692C19.1399 11.7074 19.1942 11.8472 19.3024 11.9296C19.3637 11.9763 19.4362 12 19.5091 12C19.5651 12 19.6212 11.986 19.6727 11.9577L23 10.1238L26.3272 11.9576C26.4457 12.0229 26.5892 12.0121 26.6974 11.9296C26.8057 11.8472 26.8599 11.7074 26.8373 11.5691L26.2018 7.68515L28.8938 4.93447C28.9896 4.83658 29.0242 4.69012 28.9828 4.55671Z" fill="#F6D060"/>
<path d="M45.9828 4.55671C45.9414 4.42327 45.8314 4.32603 45.699 4.30588L41.979 3.73919L40.3153 0.205426C40.256 0.0796298 40.1338 0 40 0C39.8662 0 39.744 0.0796298 39.6848 0.205426L38.021 3.73919L34.301 4.30588C34.1686 4.32603 34.0586 4.42328 34.0172 4.55669C33.9759 4.69012 34.0104 4.83658 34.1062 4.93449L36.7979 7.68515L36.1626 11.5692C36.1399 11.7074 36.1942 11.8472 36.3024 11.9296C36.3637 11.9763 36.4362 12 36.5091 12C36.5651 12 36.6212 11.986 36.6727 11.9577L40 10.1238L43.3272 11.9576C43.4457 12.0229 43.5892 12.0121 43.6974 11.9296C43.8057 11.8472 43.8599 11.7074 43.8373 11.5691L43.2018 7.68515L45.8938 4.93447C45.9896 4.83658 46.0242 4.69012 45.9828 4.55671Z" fill="#F6D060"/>
<path d="M62.9828 4.55671C62.9414 4.42327 62.8314 4.32603 62.699 4.30588L58.979 3.73919L57.3153 0.205426C57.256 0.0796298 57.1338 0 57 0C56.8662 0 56.744 0.0796298 56.6848 0.205426L55.021 3.73919L51.301 4.30588C51.1686 4.32603 51.0586 4.42328 51.0172 4.55669C50.9759 4.69012 51.0104 4.83658 51.1062 4.93449L53.7979 7.68515L53.1626 11.5692C53.1399 11.7074 53.1942 11.8472 53.3024 11.9296C53.3637 11.9763 53.4362 12 53.5091 12C53.5651 12 53.6212 11.986 53.6727 11.9577L57 10.1238L60.3272 11.9576C60.4457 12.0229 60.5892 12.0121 60.6974 11.9296C60.8057 11.8472 60.8599 11.7074 60.8373 11.5691L60.2018 7.68515L62.8938 4.93447C62.9896 4.83658 63.0242 4.69012 62.9828 4.55671Z" fill="#F6D060"/>
<path d="M79.9828 4.55671C79.9414 4.42327 79.8314 4.32603 79.699 4.30588L75.979 3.73919L74.3153 0.205426C74.256 0.0796298 74.1338 0 74 0C73.8662 0 73.744 0.0796298 73.6848 0.205426L72.021 3.73919L68.301 4.30588C68.1686 4.32603 68.0586 4.42328 68.0172 4.55669C67.9759 4.69012 68.0104 4.83658 68.1062 4.93449L70.7979 7.68515L70.1626 11.5692C70.1399 11.7074 70.1942 11.8472 70.3024 11.9296C70.3637 11.9763 70.4362 12 70.5091 12C70.5651 12 70.6212 11.986 70.6727 11.9577L74 10.1238L77.3272 11.9576C77.4457 12.0229 77.5892 12.0121 77.6974 11.9296C77.8057 11.8472 77.8599 11.7074 77.8373 11.5691L77.2018 7.68515L79.8938 4.93447C79.9896 4.83658 80.0242 4.69012 79.9828 4.55671Z" fill="#E2E5EA"/>
</svg>
