<svg width="28" height="38" viewBox="0 0 28 38" fill="none" xmlns="http://www.w3.org/2000/svg">
<g filter="url(#filter0_d_9_1804)">
<path d="M23.4628 7.96936C23.4623 7.96894 23.4618 7.96852 23.4614 7.9681L15.3021 0.494293C14.9544 0.175575 14.492 0 14.0001 0C13.5083 0 13.0459 0.175435 12.698 0.494154L4.54298 7.96419C4.54024 7.96671 4.53749 7.96936 4.53474 7.97188C3.82056 8.62986 3.82178 9.69743 4.53825 10.3537C4.86559 10.6537 5.29791 10.8275 5.76015 10.8457C5.77892 10.8473 5.79784 10.8482 5.81692 10.8482H6.14212V16.3484C6.14212 17.4368 7.10886 18.3224 8.29733 18.3224H11.4895C11.813 18.3224 12.0755 18.0821 12.0755 17.7856V13.4734C12.0755 12.9767 12.5165 12.5728 13.0587 12.5728H14.9415C15.4837 12.5728 15.9248 12.9767 15.9248 13.4734V17.7856C15.9248 18.0821 16.1871 18.3224 16.5108 18.3224H19.7029C20.8914 18.3224 21.8581 17.4368 21.8581 16.3484V10.8482H22.1597C22.6514 10.8482 23.1138 10.6727 23.4618 10.354C24.1791 9.69659 24.1794 8.62721 23.4628 7.96936Z" fill="#4157FF"/>
<path d="M16 27.0504C16 28.155 15.1046 29.0504 14 29.0504C12.8954 29.0504 12 28.155 12 27.0504C12 25.9458 12.8954 25.0504 14 25.0504C15.1046 25.0504 16 25.9458 16 27.0504Z" fill="#4157FF"/>
</g>
<defs>
<filter id="filter0_d_9_1804" x="0" y="0" width="28" height="37.0504" filterUnits="userSpaceOnUse" color-interpolation-filters="sRGB">
<feFlood flood-opacity="0" result="BackgroundImageFix"/>
<feColorMatrix in="SourceAlpha" type="matrix" values="0 0 0 0 0 0 0 0 0 0 0 0 0 0 0 0 0 0 127 0" result="hardAlpha"/>
<feOffset dy="4"/>
<feGaussianBlur stdDeviation="2"/>
<feComposite in2="hardAlpha" operator="out"/>
<feColorMatrix type="matrix" values="0 0 0 0 0 0 0 0 0 0 0 0 0 0 0 0 0 0 0.25 0"/>
<feBlend mode="normal" in2="BackgroundImageFix" result="effect1_dropShadow_9_1804"/>
<feBlend mode="normal" in="SourceGraphic" in2="effect1_dropShadow_9_1804" result="shape"/>
</filter>
</defs>
</svg>
