<svg width="15" height="15" viewBox="0 0 15 15" fill="none" xmlns="http://www.w3.org/2000/svg">
<path d="M8.40813 0C8.16524 0 7.96869 0.196551 7.96869 0.43945V6.62104C7.96869 6.86394 8.16524 7.06049 8.40813 7.06049H14.5604C14.8033 7.06049 14.9999 6.86394 14.9999 6.62104C14.9999 2.98615 12.043 0 8.40813 0Z" fill="white"/>
<path d="M9.22223 14.0145L7.08979 8.299V2.22654C7.08979 1.98365 6.89323 1.78709 6.65034 1.78709C3.01544 1.78709 0 4.74395 0 8.37884C0 12.0137 3.01544 14.9999 6.65034 14.9999C7.44597 14.9999 8.22488 14.8587 8.96518 14.5806C9.1922 14.4952 9.30722 14.242 9.22223 14.0145Z" fill="white"/>
<path d="M14.5605 7.93939H8.40822C8.26402 7.93939 8.12929 8.0102 8.04688 8.12864C7.9649 8.24709 7.94604 8.39814 7.99666 8.53332L10.157 14.3235C10.1982 14.4325 10.2806 14.5209 10.387 14.569C10.4935 14.6174 10.6135 14.6215 10.7235 14.5802C13.2812 13.6176 15 11.1082 15 8.37884C15 8.13594 14.8034 7.93939 14.5605 7.93939Z" fill="white"/>
</svg>
