<svg width="13" height="13" viewBox="0 0 13 13" fill="none" xmlns="http://www.w3.org/2000/svg">
<path d="M5.7248 0C2.56823 0 0 2.56826 0 5.72487C0 8.88165 2.56823 11.4497 5.7248 11.4497C8.88154 11.4497 11.4496 8.88165 11.4496 5.72487C11.4496 2.56826 8.88154 0 5.7248 0ZM5.7248 10.3929C3.15093 10.3929 1.05689 8.29879 1.05689 5.72489C1.05689 3.15099 3.15093 1.0569 5.7248 1.0569C8.29866 1.0569 10.3927 3.15097 10.3927 5.72487C10.3927 8.29876 8.29866 10.3929 5.7248 10.3929Z" fill="#677294"/>
<path d="M12.8449 12.0979L9.81515 9.06817C9.6087 8.86172 9.27437 8.86172 9.06792 9.06817C8.86147 9.27444 8.86147 9.60913 9.06792 9.81541L12.0976 12.8452C12.2009 12.9484 12.336 13 12.4713 13C12.6064 13 12.7416 12.9484 12.8449 12.8452C13.0513 12.6389 13.0513 12.3042 12.8449 12.0979Z" fill="#677294"/>
</svg>
