<svg width="18" height="18" viewBox="0 0 18 18" fill="none" xmlns="http://www.w3.org/2000/svg">
<path d="M0.423523 6.9505L1.80698 6.64975C1.92728 6.28143 2.07628 5.92218 2.2522 5.57611L1.48631 4.38478C1.34953 4.17192 1.37961 3.89246 1.55841 3.71365L3.71365 1.55841C3.89246 1.37961 4.17192 1.34953 4.38478 1.48631L5.57611 2.2522C5.92218 2.07628 6.28143 1.92728 6.64975 1.80698L6.9505 0.423523C7.0042 0.176331 7.2231 0 7.47606 0H10.5239C10.7769 0 10.9958 0.176331 11.0495 0.423523L11.3503 1.80698C11.7186 1.92728 12.0778 2.07628 12.4239 2.2522L13.6152 1.48631C13.8281 1.34953 14.1075 1.37961 14.2863 1.55841L16.4416 3.71365C16.6204 3.89246 16.6505 4.17192 16.5137 4.38478L15.7478 5.57611C15.9237 5.92218 16.0727 6.28143 16.193 6.64975L17.5765 6.9505C17.8237 7.00433 18 7.2231 18 7.47606V10.5239C18 10.7769 17.8237 10.9957 17.5765 11.0495L16.193 11.3503C16.0727 11.7186 15.9237 12.0778 15.7478 12.4239L16.5137 13.6152C16.6505 13.8281 16.6204 14.1075 16.4416 14.2863L14.2863 16.4416C14.1075 16.6204 13.8281 16.6505 13.6152 16.5137L12.4239 15.7478C12.0778 15.9237 11.7186 16.0727 11.3503 16.193L11.0495 17.5765C10.9958 17.8237 10.7769 18 10.5239 18H7.47606C7.2231 18 7.0042 17.8237 6.9505 17.5765L6.64975 16.193C6.28143 16.0727 5.92218 15.9237 5.57611 15.7478L4.38478 16.5137C4.17192 16.6505 3.89246 16.6205 3.71365 16.4416L1.55841 14.2863C1.37961 14.1075 1.34953 13.8281 1.48631 13.6152L2.2522 12.4239C2.07628 12.0778 1.92728 11.7186 1.80698 11.3503L0.423523 11.0495C0.176331 10.9957 0 10.7769 0 10.5239V7.47606C0 7.2231 0.176331 7.00433 0.423523 6.9505ZM5.7729 9C5.7729 10.7794 7.22063 12.2271 9 12.2271C10.7794 12.2271 12.2271 10.7794 12.2271 9C12.2271 7.22063 10.7794 5.7729 9 5.7729C7.22063 5.7729 5.7729 7.22063 5.7729 9Z" fill="black"/>
</svg>
