<svg width="19" height="16" viewBox="0 0 19 16" fill="none" xmlns="http://www.w3.org/2000/svg">
<path d="M12.5642 9.01725C12.5642 10.7069 11.1896 12.0815 9.49994 12.0815C7.81026 12.0815 6.43624 10.7069 6.43624 9.01725C6.43624 7.32757 7.81026 5.95302 9.49994 5.95302C11.1896 5.95302 12.5642 7.32809 12.5642 9.01725ZM18.9999 4.6662V13.3694C18.9999 14.5296 18.0592 15.4703 16.8989 15.4703H2.10094C0.940698 15.4703 0 14.5296 0 13.3694V4.6662C0 3.50595 0.940698 2.56525 2.10094 2.56525H4.6851V1.83833C4.6851 0.823045 5.50762 0 6.52343 0H12.4765C13.4923 0 14.3148 0.823045 14.3148 1.83833V2.56473H16.8989C18.0592 2.56525 18.9999 3.50595 18.9999 4.6662ZM14.1399 9.01725C14.1399 6.45883 12.0584 4.37732 9.49994 4.37732C6.94204 4.37732 4.86053 6.45883 4.86053 9.01725C4.86053 11.5757 6.94204 13.6572 9.49994 13.6572C12.0584 13.6572 14.1399 11.5757 14.1399 9.01725Z" fill="white"/>
</svg>
