<svg width="22" height="22" viewBox="0 0 22 22" fill="none" xmlns="http://www.w3.org/2000/svg">
<path d="M19.0673 3.18974C19.0673 2.40677 18.4107 1.77208 17.6006 1.77208H17.234V2.83532C17.234 3.22679 16.9056 3.54415 16.5006 3.54415H15.7673C16.1723 3.54415 16.5006 3.22679 16.5006 2.83532V0.708831C16.5006 0.31734 16.1723 0 15.7673 0C15.3623 0 15.034 0.31734 15.034 0.708831V1.77208H13.2006V2.83532C13.2006 3.22679 12.8723 3.54415 12.4673 3.54415H11.7339C12.1389 3.54415 12.4673 3.22679 12.4673 2.83532V0.708831C12.4673 0.31734 12.1389 0 11.7339 0C11.3289 0 11.0006 0.31734 11.0006 0.708831V1.77208H8.80057V2.83532C8.80057 3.22679 8.47224 3.54415 8.06723 3.54415H7.3339C7.7389 3.54415 8.06723 3.22679 8.06723 2.83532V0.708831C8.06723 0.31734 7.7389 0 7.3339 0C6.92889 0 6.60056 0.31734 6.60056 0.708831V1.77208H4.76721V2.83532C4.76721 3.22679 4.43888 3.54415 4.03387 3.54415H3.30053C3.70554 3.54415 4.03387 3.22679 4.03387 2.83532V0.708831C4.03387 0.31734 3.70554 0 3.30053 0C2.89553 0 2.56719 0.31734 2.56719 0.708831V1.77208H1.46719C0.657152 1.77208 0.000509452 2.40677 0.000509452 3.18974V5.31623H19.0673V3.18974Z" fill="black"/>
<path d="M17.9666 13.4679C15.7391 13.4679 13.9333 15.2134 13.9333 17.3665C13.9333 19.5196 15.7391 21.2651 17.9666 21.2651C20.1942 21.2651 22 19.5196 22 17.3665C22 15.2134 20.1942 13.4679 17.9666 13.4679ZM17.9666 18.0753C17.8728 18.0753 17.7837 18.0567 17.7012 18.0256L16.3625 19.061L15.9041 18.5073L17.2442 17.4712C17.2389 17.4368 17.2333 17.4024 17.2333 17.3665C17.2333 17.1048 17.3817 16.8788 17.6 16.756V14.5312H18.3333V16.756C18.5516 16.8788 18.7 17.1048 18.7 17.3665C18.7 17.758 18.3716 18.0753 17.9666 18.0753Z" fill="black"/>
<path d="M1.46668 19.1384H13.5666C13.3311 18.5928 13.2001 17.9945 13.2001 17.3663C13.2001 15.45 14.411 13.8079 16.133 13.1134H14.3001V10.9869H16.5001V12.9835C16.9625 12.839 17.4547 12.7589 17.9668 12.7589C18.3461 12.7589 18.7131 12.8063 19.0668 12.8872V6.02505H0V17.7208C0 18.504 0.656331 19.1384 1.46668 19.1384ZM14.3001 7.0883H16.5001V9.21479H14.3001V7.0883ZM10.2667 7.0883H12.4668V9.21479H10.2667V7.0883ZM10.2667 10.9869H12.4668V13.1134H10.2667V10.9869ZM10.2667 14.8854H12.4668V17.0119H10.2667V14.8854ZM6.23338 7.0883H8.43339V9.21479H6.23338V7.0883ZM6.23338 10.9869H8.43339V13.1134H6.23338V10.9869ZM6.23338 14.8854H8.43339V17.0119H6.23338V14.8854ZM2.20002 7.0883H4.40003V9.21479H2.20002V7.0883ZM2.20002 10.9869H4.40003V13.1134H2.20002V10.9869ZM2.20002 14.8854H4.40003V17.0119H2.20002V14.8854Z" fill="black"/>
</svg>
