<svg width="324" height="339" viewBox="0 0 324 339" fill="none" xmlns="http://www.w3.org/2000/svg">
<path fill-rule="evenodd" clip-rule="evenodd" d="M324 338.288L14 227.322L133.726 169.504L324 202.17V338.288Z" fill="url(#paint0_linear_0_707)" fill-opacity="0.64"/>
<path fill-rule="evenodd" clip-rule="evenodd" d="M25.4998 51.6701C27.9851 51.6701 30.0794 53.6848 30.1775 56.1701L33.2188 133.17C33.3169 135.655 29.861 137.67 25.4998 137.67C21.1386 137.67 17.6827 135.655 17.7808 133.17L20.8221 56.1701C20.9202 53.6848 23.0145 51.6701 25.4998 51.6701Z" fill="url(#paint1_linear_0_707)"/>
<path fill-rule="evenodd" clip-rule="evenodd" d="M139.501 51.6701C141.987 51.6701 144.081 53.6848 144.179 56.1701L147.22 133.17C147.318 135.655 143.862 137.67 139.501 137.67C135.14 137.67 131.684 135.655 131.782 133.17L134.824 56.1701C134.922 53.6848 137.016 51.6701 139.501 51.6701Z" fill="url(#paint2_linear_0_707)"/>
<path fill-rule="evenodd" clip-rule="evenodd" d="M28.0368 130.67H136.686C146.287 130.67 155.802 139.624 157.958 150.67L164.327 182.67C166.568 193.716 159.063 202.67 147.543 202.67H17.18C5.66039 202.67 -1.84539 193.716 0.395633 182.67L6.76498 150.67C8.92107 139.624 18.436 130.67 28.0368 130.67Z" fill="url(#paint3_linear_0_707)"/>
<path fill-rule="evenodd" clip-rule="evenodd" d="M0 186.67C0 175.624 8.95431 166.67 20 166.67H145C156.046 166.67 165 175.624 165 186.67C165 197.716 156.046 206.67 145 206.67H20C8.95431 206.67 0 197.716 0 186.67Z" fill="url(#paint4_linear_0_707)"/>
<path fill-rule="evenodd" clip-rule="evenodd" d="M0 189.67C0 178.624 8.95431 169.67 20 169.67H145C156.046 169.67 165 178.624 165 189.67V208.67C165 219.716 156.046 228.67 145 228.67H20C8.95431 228.67 0 219.716 0 208.67V189.67Z" fill="url(#paint5_linear_0_707)"/>
<path d="M34.5 203.67C34.5 203.67 39.5381 206.67 44.8667 206.67C50.1952 206.67 55.5238 203.67 55.5238 203.67" stroke="#292929" stroke-width="4" stroke-linecap="round"/>
<path d="M77.5 203.67C77.5 203.67 82.5381 206.67 87.8667 206.67C93.1952 206.67 98.5238 203.67 98.5238 203.67" stroke="#292929" stroke-width="4" stroke-linecap="round"/>
<ellipse cx="70" cy="213.67" rx="5" ry="3" fill="#282828"/>
<rect x="15" y="183.67" width="7.17526" height="7" rx="3.5" fill="#55AA62"/>
<rect x="47.2886" y="183.67" width="7.17526" height="7" rx="3.5" fill="#55AA62"/>
<rect x="59.2476" y="183.67" width="7.17526" height="7" rx="3.5" fill="#D06E6E"/>
<rect x="87.9482" y="183.67" width="7.17526" height="7" rx="3.5" fill="#636363"/>
<rect x="99.9072" y="183.67" width="7.17526" height="7" rx="3.5" fill="#636363"/>
<rect x="111.866" y="183.67" width="7.17526" height="7" rx="3.5" fill="#636363"/>
<rect x="123.825" y="183.67" width="7.17526" height="7" rx="3.5" fill="#636363"/>
<path opacity="0.11" fill-rule="evenodd" clip-rule="evenodd" d="M13.4334 168.174C15.2119 154.037 18.4578 138.83 18.7095 134.44C20.6799 130.734 26.5667 129.698 26.5667 129.698L25.3322 165.566C25.3322 165.566 16.2021 165.495 13.4334 168.174Z" fill="url(#paint6_linear_0_707)"/>
<g opacity="0.3">
<path fill-rule="evenodd" clip-rule="evenodd" d="M134.862 36.3945C134.514 37.0224 134.741 37.8137 135.369 38.1617L141.102 41.3394C141.694 41.6675 142.44 41.4536 142.768 40.8616C143.096 40.2695 142.882 39.5236 142.29 39.1954L138.857 37.2926C138.806 37.2644 138.788 37.2004 138.816 37.1496C138.827 37.13 138.844 37.1143 138.865 37.105L146.229 33.7435C146.512 33.6141 146.747 33.3973 146.898 33.1249C147.287 32.4218 147.033 31.5358 146.33 31.146L140.921 28.1475C140.329 27.8193 139.583 28.0332 139.254 28.6252C138.926 29.2173 139.14 29.9632 139.732 30.2914L143.146 32.184C143.197 32.2121 143.215 32.276 143.187 32.3267C143.176 32.3464 143.159 32.3621 143.139 32.3714L135.464 35.8401C135.209 35.9553 134.998 36.1497 134.862 36.3945Z" fill="#685C57"/>
<path fill-rule="evenodd" clip-rule="evenodd" d="M154.015 33.1334C153.841 33.9524 154.364 34.7575 155.183 34.9316L162.66 36.5209C163.432 36.685 164.191 36.1921 164.356 35.4199C164.52 34.6477 164.027 33.8887 163.255 33.7245L158.777 32.7728C158.711 32.7587 158.669 32.6936 158.683 32.6274C158.688 32.6017 158.702 32.5785 158.721 32.5611L165.788 26.3009C166.06 26.0601 166.248 25.7384 166.323 25.3831C166.518 24.4659 165.933 23.5644 165.016 23.3695L157.96 21.8697C157.188 21.7056 156.429 22.1985 156.265 22.9707C156.101 23.7429 156.593 24.502 157.366 24.6661L161.819 25.6127C161.885 25.6267 161.927 25.6917 161.913 25.7579C161.908 25.7836 161.894 25.807 161.874 25.8244L154.497 32.3099C154.252 32.5254 154.083 32.8142 154.015 33.1334Z" fill="#685C57"/>
<path fill-rule="evenodd" clip-rule="evenodd" d="M177.173 28.6228C178.215 29.8225 180.033 29.9496 181.233 28.9068L192.185 19.3867C193.316 18.4035 193.436 16.6895 192.452 15.5585C191.469 14.4275 189.755 14.3076 188.624 15.2908L182.066 20.9917C181.969 21.0761 181.822 21.0658 181.738 20.9688C181.705 20.9312 181.685 20.8841 181.681 20.8345L180.264 2.9681C180.21 2.28071 179.936 1.62893 179.484 1.10852C178.316 -0.234811 176.28 -0.377158 174.937 0.790586L164.603 9.77424C163.472 10.7574 163.352 12.4714 164.335 13.6024C165.318 14.7334 167.032 14.8533 168.163 13.8701L174.686 8.19996C174.783 8.11575 174.929 8.12602 175.014 8.22288C175.046 8.26063 175.066 8.30797 175.07 8.35784L176.475 26.9514C176.521 27.5691 176.766 28.1553 177.173 28.6228Z" fill="#685C57"/>
</g>
<defs>
<linearGradient id="paint0_linear_0_707" x1="1.1941" y1="142.014" x2="12.7561" y2="266.775" gradientUnits="userSpaceOnUse">
<stop stop-color="#4D3826"/>
<stop offset="1" stop-color="#D1C6B2"/>
</linearGradient>
<linearGradient id="paint1_linear_0_707" x1="33.2208" y1="74.5678" x2="22.896" y2="74.5678" gradientUnits="userSpaceOnUse">
<stop stop-color="#292929"/>
<stop offset="1" stop-color="#3D3D3D"/>
</linearGradient>
<linearGradient id="paint2_linear_0_707" x1="147.222" y1="74.5678" x2="136.897" y2="74.5678" gradientUnits="userSpaceOnUse">
<stop stop-color="#292929"/>
<stop offset="1" stop-color="#3D3D3D"/>
</linearGradient>
<linearGradient id="paint3_linear_0_707" x1="97.9749" y1="48.7631" x2="58.9939" y2="175.269" gradientUnits="userSpaceOnUse">
<stop stop-color="#292929"/>
<stop offset="1" stop-color="#3D3D3D"/>
</linearGradient>
<linearGradient id="paint4_linear_0_707" x1="251.708" y1="158.871" x2="222.789" y2="69.1866" gradientUnits="userSpaceOnUse">
<stop stop-color="#2C2C2C"/>
<stop offset="1" stop-color="#5D5D5D"/>
</linearGradient>
<linearGradient id="paint5_linear_0_707" x1="269.969" y1="210.458" x2="245.548" y2="102.424" gradientUnits="userSpaceOnUse">
<stop stop-color="#292929"/>
<stop offset="1" stop-color="#3D3D3D"/>
</linearGradient>
<linearGradient id="paint6_linear_0_707" x1="26.5667" y1="129.698" x2="12.1074" y2="130.203" gradientUnits="userSpaceOnUse">
<stop stop-opacity="0.01"/>
<stop offset="1" stop-color="white"/>
</linearGradient>
</defs>
</svg>
