<svg width="10" height="15" viewBox="0 0 10 15" fill="none" xmlns="http://www.w3.org/2000/svg">
<path d="M4.99449 0C2.24055 0 0 2.33898 0 5.21391C0 8.8274 4.9994 15 4.9994 15C4.9994 15 9.98898 8.6497 9.98898 5.21391C9.98898 2.33898 7.74852 0 4.99449 0ZM6.50143 6.74055C6.08591 7.17424 5.54024 7.39112 4.99449 7.39112C4.44882 7.39112 3.90298 7.17424 3.48764 6.74055C2.65668 5.87318 2.65668 4.46181 3.48764 3.59435C3.89 3.17412 4.42523 2.94268 4.99449 2.94268C5.56375 2.94268 6.09889 3.17422 6.50143 3.59435C7.33238 4.46181 7.33238 5.87318 6.50143 6.74055Z" fill="#51BCF9"/>
</svg>
