<svg width="29" height="27" viewBox="0 0 29 27" fill="none" xmlns="http://www.w3.org/2000/svg">
<g filter="url(#filter0_f_9_1795)">
<path d="M14.5 4C8.71032 4 4.00002 7.89547 4.00002 12.6838C4.00002 14.3575 4.57612 15.9788 5.66882 17.3807C5.46197 19.4832 4.90757 21.044 4.10257 21.7834C3.99617 21.8812 3.96957 22.0307 4.03677 22.1542C4.09627 22.2645 4.21877 22.3324 4.35002 22.3324C4.36612 22.3324 4.38222 22.3314 4.39867 22.3292C4.54042 22.3109 7.83322 21.8754 10.215 20.6121C11.5674 21.1135 13.008 21.3675 14.5 21.3675C20.2897 21.3675 25 17.4721 25 12.6838C25 7.89547 20.2897 4 14.5 4ZM9.60002 13.9703C8.82792 13.9703 8.20002 13.3933 8.20002 12.6838C8.20002 11.9743 8.82792 11.3973 9.60002 11.3973C10.3721 11.3973 11 11.9743 11 12.6838C11 13.3933 10.3721 13.9703 9.60002 13.9703ZM14.5 13.9703C13.7279 13.9703 13.1 13.3933 13.1 12.6838C13.1 11.9743 13.7279 11.3973 14.5 11.3973C15.2721 11.3973 15.9 11.9743 15.9 12.6838C15.9 13.3933 15.2721 13.9703 14.5 13.9703ZM19.4 13.9703C18.6279 13.9703 18 13.3933 18 12.6838C18 11.9743 18.6279 11.3973 19.4 11.3973C20.1721 11.3973 20.8 11.9743 20.8 12.6838C20.8 13.3933 20.1721 13.9703 19.4 13.9703Z" fill="#858EA9"/>
</g>
<defs>
<filter id="filter0_f_9_1795" x="0" y="0" width="29" height="26.3324" filterUnits="userSpaceOnUse" color-interpolation-filters="sRGB">
<feFlood flood-opacity="0" result="BackgroundImageFix"/>
<feBlend mode="normal" in="SourceGraphic" in2="BackgroundImageFix" result="shape"/>
<feGaussianBlur stdDeviation="2" result="effect1_foregroundBlur_9_1795"/>
</filter>
</defs>
</svg>
