<svg width="24" height="15" viewBox="0 0 24 15" fill="none" xmlns="http://www.w3.org/2000/svg">
<path fill-rule="evenodd" clip-rule="evenodd" d="M0.605594 7.235C0.605594 7.235 5.69581 0.771244 11.9172 0.771244C18.0577 0.771244 23.2288 7.235 23.2288 7.235C23.2288 7.235 18.0577 13.6988 11.9172 13.6988C5.7766 13.6988 0.605594 7.235 0.605594 7.235V7.235Z" stroke="white" stroke-width="1.5" stroke-linecap="round" stroke-linejoin="round"/>
<path fill-rule="evenodd" clip-rule="evenodd" d="M11.9171 0.771244C14.5947 0.771244 16.7649 2.94145 16.7649 5.61906C16.7649 8.29668 14.5947 10.4669 11.9171 10.4669C9.23951 10.4669 7.0693 8.29668 7.0693 5.61906C7.0693 2.94145 9.23951 0.771244 11.9171 0.771244V0.771244Z" stroke="white" stroke-width="1.5" stroke-linecap="round" stroke-linejoin="round"/>
<path d="M11.9172 7.23508C11.0284 7.23508 10.3012 6.5079 10.3012 5.61914" stroke="white" stroke-width="1.5" stroke-linecap="round" stroke-linejoin="round"/>
</svg>
