<svg width="18" height="22" viewBox="0 0 18 22" fill="none" xmlns="http://www.w3.org/2000/svg">
<path d="M12.9315 0.377686V4.29699H16.9985L12.9315 0.377686Z" fill="black"/>
<path d="M10.0713 8.25H7.31798C6.79683 9.12669 5.91683 9.7246 4.90462 9.90872V13.0023C4.90462 15.3336 6.41934 17.3586 8.69465 18.1009C10.97 17.3586 12.4847 15.3336 12.4847 13.0023V9.90872C11.4725 9.7246 10.5925 9.12665 10.0713 8.25ZM11.0593 12.4318L8.53703 14.8625C8.40643 14.9883 8.23526 15.0513 8.06413 15.0513C7.89299 15.0513 7.72178 14.9884 7.59122 14.8625L6.33007 13.6471C6.06887 13.3954 6.06887 12.9873 6.33007 12.7356C6.59123 12.4839 7.01473 12.4839 7.27593 12.7356L8.06417 13.4952L10.1136 11.5203C10.3747 11.2686 10.7982 11.2686 11.0594 11.5203C11.3205 11.772 11.3205 12.1801 11.0593 12.4318Z" fill="black"/>
<path d="M12.2619 5.58594C11.8925 5.58594 11.593 5.29736 11.593 4.94141V0H2.45237C1.10014 0 0 1.06017 0 2.36328V19.6367C0 20.9398 1.10014 22 2.45237 22H14.9372C16.2894 22 17.3896 20.9398 17.3896 19.6367V5.58594H12.2619ZM13.8225 13.0022C13.8225 14.4483 13.349 15.8259 12.4532 16.9861C11.5575 18.1463 10.3243 18.9792 8.88696 19.3947C8.82427 19.4128 8.75952 19.4219 8.69478 19.4219C8.63004 19.4219 8.5653 19.4128 8.5026 19.3947C7.06529 18.9792 5.83206 18.1463 4.93632 16.9861C4.04058 15.8259 3.56709 14.4483 3.56709 13.0022V9.32422C3.56709 8.96827 3.86655 8.67969 4.23592 8.67969C5.0811 8.67969 5.84093 8.22714 6.21886 7.49869L6.31299 7.31728C6.42629 7.09887 6.65788 6.96094 6.91124 6.96094H10.4783C10.7317 6.96094 10.9633 7.09887 11.0766 7.31723L11.1707 7.49869C11.5486 8.22714 12.3085 8.67969 13.1536 8.67969C13.523 8.67969 13.8225 8.96827 13.8225 9.32422V13.0022Z" fill="black"/>
</svg>
