<svg width="21" height="23" viewBox="0 0 21 23" fill="none" xmlns="http://www.w3.org/2000/svg">
<path d="M20.3238 20.7068C20.2706 17.6781 19.2092 14.9242 17.3221 12.9303C15.4459 10.9485 12.9033 9.85718 10.1618 9.85718C7.42023 9.85718 4.8776 10.9485 3.00146 12.9303C1.11614 14.9221 0.0554404 17.6722 0 20.6971C1.06607 21.1719 5.47763 23 10.1618 23C15.2269 23 19.3351 21.1826 20.3238 20.7068Z" fill="black"/>
<path d="M10.1617 8.91834C13.0043 8.91834 15.3086 6.9219 15.3086 4.45917C15.3086 1.99644 13.0043 0 10.1617 0C7.31914 0 5.01478 1.99644 5.01478 4.45917C5.01478 6.9219 7.31914 8.91834 10.1617 8.91834Z" fill="black"/>
</svg>
