<svg width="15" height="15" viewBox="0 0 15 15" fill="none" xmlns="http://www.w3.org/2000/svg">
<path d="M6.56249 0H14.0625C14.5802 0 15 0.419783 15 0.93751V14.0625C15 14.5803 14.5802 15 14.0625 15H6.56246C6.04474 15 5.62495 14.5803 5.62495 14.0625V0.93751C5.62498 0.419783 6.04474 0 6.56249 0ZM8.43748 8.4375C8.95527 8.4375 9.37499 8.01772 9.37499 7.49999C9.37499 6.98221 8.95527 6.56248 8.43748 6.56248C7.9197 6.56248 7.49997 6.98221 7.49997 7.49999C7.49997 8.01775 7.9197 8.4375 8.43748 8.4375Z" fill="#F90217"/>
<path d="M1.43051e-06 7.50024L3.28124 4.68774V6.56273H4.68749V8.43773H3.28124V10.3127L1.43051e-06 7.50024Z" fill="#F90217"/>
</svg>
