<svg width="245" height="197" viewBox="0 0 245 197" fill="none" xmlns="http://www.w3.org/2000/svg">
<circle cx="120.972" cy="106.996" r="49.0833" fill="#4157FF"/>
<g filter="url(#filter0_d_1_1066)">
<path d="M103.943 110.502L116.014 121.02L138.001 92.9724" stroke="white" stroke-width="5" stroke-linecap="round" stroke-linejoin="round"/>
</g>
<rect x="126.164" y="29.1285" width="4.90915" height="5.72735" rx="1" transform="rotate(-10.9119 126.164 29.1285)" fill="url(#paint0_linear_1_1066)"/>
<rect x="203.294" y="151.518" width="4.90915" height="5.72735" rx="1" transform="rotate(29.09 203.294 151.518)" fill="url(#paint1_linear_1_1066)"/>
<rect x="65.5126" y="189.467" width="4.90915" height="5.72735" rx="1" transform="rotate(29.09 65.5126 189.467)" fill="url(#paint2_linear_1_1066)"/>
<rect x="93.459" y="45.217" width="2.26504" height="2.64255" rx="1" fill="url(#paint3_linear_1_1066)"/>
<rect x="199.908" y="26.5198" width="4.17142" height="4.86665" rx="1" transform="rotate(27 199.908 26.5198)" fill="url(#paint4_linear_1_1066)"/>
<rect x="193.459" y="47.8901" width="2.26504" height="2.64255" rx="1" fill="url(#paint5_linear_1_1066)"/>
<rect x="186.776" y="147.164" width="2.26504" height="2.64255" rx="1" fill="url(#paint6_linear_1_1066)"/>
<rect x="204.913" y="108.982" width="2.26504" height="2.64255" rx="1" fill="url(#paint7_linear_1_1066)"/>
<rect x="230.687" y="74.618" width="2.26504" height="2.64255" rx="1" fill="url(#paint8_linear_1_1066)"/>
<rect x="209.685" y="135.709" width="2.26504" height="2.64255" rx="1" fill="url(#paint9_linear_1_1066)"/>
<rect x="163.043" y="186.131" width="2.26504" height="2.64255" rx="1" fill="url(#paint10_linear_1_1066)"/>
<rect x="67.3404" y="35.6906" width="3.23427" height="3.77332" rx="1" transform="rotate(-22.65 67.3404 35.6906)" fill="url(#paint11_linear_1_1066)"/>
<rect x="5.90602" y="170.506" width="3.23427" height="3.77332" rx="1" transform="rotate(17.3473 5.90602 170.506)" fill="url(#paint12_linear_1_1066)"/>
<rect x="57.3841" y="58.3902" width="1.22486" height="1.429" rx="0.611389" transform="rotate(17.3473 57.3841 58.3902)" fill="url(#paint13_linear_1_1066)"/>
<rect x="182.43" y="66.0265" width="1.22486" height="1.429" rx="0.611389" transform="rotate(17.3473 182.43 66.0265)" fill="url(#paint14_linear_1_1066)"/>
<rect x="233.02" y="87.9813" width="1.22486" height="1.429" rx="0.611389" transform="rotate(17.3473 233.02 87.9813)" fill="url(#paint15_linear_1_1066)"/>
<rect x="67.5165" y="147.514" width="1.22486" height="1.429" rx="0.611389" transform="rotate(17.3473 67.5165 147.514)" fill="url(#paint16_linear_1_1066)"/>
<rect x="23.0191" y="13.526" width="1.22486" height="1.429" rx="0.611389" transform="rotate(17.3473 23.0191 13.526)" fill="url(#paint17_linear_1_1066)"/>
<rect x="31.9918" y="105.847" width="2.3259" height="2.71355" rx="1" transform="rotate(17.3473 31.9918 105.847)" fill="url(#paint18_linear_1_1066)"/>
<rect x="34.993" y="140.37" width="2.3259" height="2.71355" rx="1" transform="rotate(17.3473 34.993 140.37)" fill="url(#paint19_linear_1_1066)"/>
<rect x="103.575" y="173.661" width="2.3259" height="2.71355" rx="1" transform="rotate(17.3473 103.575 173.661)" fill="url(#paint20_linear_1_1066)"/>
<rect x="143.036" y="12.5716" width="3.23427" height="3.77332" rx="1" transform="rotate(17.3473 143.036 12.5716)" fill="url(#paint21_linear_1_1066)"/>
<rect x="44.0861" y="45.026" width="4.16673" height="4.86119" rx="1" transform="rotate(17.3473 44.0861 45.026)" fill="url(#paint22_linear_1_1066)"/>
<rect x="120.338" y="4.34181" width="4.16673" height="4.86119" rx="1" transform="rotate(-92.65 120.338 4.34181)" fill="url(#paint23_linear_1_1066)"/>
<rect x="9.42518" y="85.6749" width="6.42521" height="7.49607" rx="1" transform="rotate(135.279 9.42518 85.6749)" fill="url(#paint24_linear_1_1066)"/>
<rect x="237.367" y="178.958" width="6.42521" height="7.49607" rx="1" transform="rotate(-11.7361 237.367 178.958)" fill="url(#paint25_linear_1_1066)"/>
<defs>
<filter id="filter0_d_1_1066" x="98.4337" y="90.468" width="45.0765" height="40.0682" filterUnits="userSpaceOnUse" color-interpolation-filters="sRGB">
<feFlood flood-opacity="0" result="BackgroundImageFix"/>
<feColorMatrix in="SourceAlpha" type="matrix" values="0 0 0 0 0 0 0 0 0 0 0 0 0 0 0 0 0 0 127 0" result="hardAlpha"/>
<feOffset dy="4"/>
<feGaussianBlur stdDeviation="1.5"/>
<feColorMatrix type="matrix" values="0 0 0 0 0 0 0 0 0 0 0 0 0 0 0 0 0 0 0.15 0"/>
<feBlend mode="normal" in2="BackgroundImageFix" result="effect1_dropShadow_1_1066"/>
<feBlend mode="normal" in="SourceGraphic" in2="effect1_dropShadow_1_1066" result="shape"/>
</filter>
<linearGradient id="paint0_linear_1_1066" x1="128.834" y1="29.178" x2="128.834" y2="34.9054" gradientUnits="userSpaceOnUse">
<stop stop-color="#4157FF"/>
<stop offset="1" stop-color="#A3ADFF"/>
</linearGradient>
<linearGradient id="paint1_linear_1_1066" x1="206.095" y1="151.776" x2="206.095" y2="157.503" gradientUnits="userSpaceOnUse">
<stop stop-color="#4157FF"/>
<stop offset="1" stop-color="#A3ADFF"/>
</linearGradient>
<linearGradient id="paint2_linear_1_1066" x1="68.0786" y1="189.789" x2="68.0786" y2="195.516" gradientUnits="userSpaceOnUse">
<stop stop-color="#4157FF"/>
<stop offset="1" stop-color="#A3ADFF"/>
</linearGradient>
<linearGradient id="paint3_linear_1_1066" x1="94.7505" y1="45.2939" x2="94.7505" y2="47.9364" gradientUnits="userSpaceOnUse">
<stop stop-color="#4157FF"/>
<stop offset="1" stop-color="#A3ADFF"/>
</linearGradient>
<linearGradient id="paint4_linear_1_1066" x1="202.334" y1="26.5649" x2="202.334" y2="31.4315" gradientUnits="userSpaceOnUse">
<stop stop-color="#4157FF"/>
<stop offset="1" stop-color="#A3ADFF"/>
</linearGradient>
<linearGradient id="paint5_linear_1_1066" x1="194.92" y1="47.9716" x2="194.92" y2="50.6141" gradientUnits="userSpaceOnUse">
<stop stop-color="#4157FF"/>
<stop offset="1" stop-color="#A3ADFF"/>
</linearGradient>
<linearGradient id="paint6_linear_1_1066" x1="188.226" y1="147.414" x2="188.226" y2="150.057" gradientUnits="userSpaceOnUse">
<stop stop-color="#4157FF"/>
<stop offset="1" stop-color="#A3ADFF"/>
</linearGradient>
<linearGradient id="paint7_linear_1_1066" x1="206.394" y1="109.167" x2="206.394" y2="111.809" gradientUnits="userSpaceOnUse">
<stop stop-color="#4157FF"/>
<stop offset="1" stop-color="#A3ADFF"/>
</linearGradient>
<linearGradient id="paint8_linear_1_1066" x1="232.212" y1="74.7449" x2="232.212" y2="77.3874" gradientUnits="userSpaceOnUse">
<stop stop-color="#4157FF"/>
<stop offset="1" stop-color="#A3ADFF"/>
</linearGradient>
<linearGradient id="paint9_linear_1_1066" x1="211.174" y1="135.94" x2="211.174" y2="138.582" gradientUnits="userSpaceOnUse">
<stop stop-color="#4157FF"/>
<stop offset="1" stop-color="#A3ADFF"/>
</linearGradient>
<linearGradient id="paint10_linear_1_1066" x1="164.453" y1="186.447" x2="164.453" y2="189.09" gradientUnits="userSpaceOnUse">
<stop stop-color="#4157FF"/>
<stop offset="1" stop-color="#A3ADFF"/>
</linearGradient>
<linearGradient id="paint11_linear_1_1066" x1="69.0721" y1="35.7513" x2="69.0721" y2="39.5246" gradientUnits="userSpaceOnUse">
<stop stop-color="#4157FF"/>
<stop offset="1" stop-color="#A3ADFF"/>
</linearGradient>
<linearGradient id="paint12_linear_1_1066" x1="7.53321" y1="170.796" x2="7.53321" y2="174.569" gradientUnits="userSpaceOnUse">
<stop stop-color="#4157FF"/>
<stop offset="1" stop-color="#A3ADFF"/>
</linearGradient>
<linearGradient id="paint13_linear_1_1066" x1="58.0941" y1="58.4895" x2="58.0941" y2="59.9185" gradientUnits="userSpaceOnUse">
<stop stop-color="#4157FF"/>
<stop offset="1" stop-color="#A3ADFF"/>
</linearGradient>
<linearGradient id="paint14_linear_1_1066" x1="183.353" y1="66.1388" x2="183.353" y2="67.5678" gradientUnits="userSpaceOnUse">
<stop stop-color="#4157FF"/>
<stop offset="1" stop-color="#A3ADFF"/>
</linearGradient>
<linearGradient id="paint15_linear_1_1066" x1="234.029" y1="88.131" x2="234.029" y2="89.56" gradientUnits="userSpaceOnUse">
<stop stop-color="#4157FF"/>
<stop offset="1" stop-color="#A3ADFF"/>
</linearGradient>
<linearGradient id="paint16_linear_1_1066" x1="68.2438" y1="147.765" x2="68.2438" y2="149.194" gradientUnits="userSpaceOnUse">
<stop stop-color="#4157FF"/>
<stop offset="1" stop-color="#A3ADFF"/>
</linearGradient>
<linearGradient id="paint17_linear_1_1066" x1="23.6706" y1="13.549" x2="23.6706" y2="14.978" gradientUnits="userSpaceOnUse">
<stop stop-color="#4157FF"/>
<stop offset="1" stop-color="#A3ADFF"/>
</linearGradient>
<linearGradient id="paint18_linear_1_1066" x1="33.2092" y1="106.027" x2="33.2092" y2="108.74" gradientUnits="userSpaceOnUse">
<stop stop-color="#4157FF"/>
<stop offset="1" stop-color="#A3ADFF"/>
</linearGradient>
<linearGradient id="paint19_linear_1_1066" x1="36.2155" y1="140.609" x2="36.2155" y2="143.322" gradientUnits="userSpaceOnUse">
<stop stop-color="#4157FF"/>
<stop offset="1" stop-color="#A3ADFF"/>
</linearGradient>
<linearGradient id="paint20_linear_1_1066" x1="104.914" y1="173.956" x2="104.914" y2="176.67" gradientUnits="userSpaceOnUse">
<stop stop-color="#4157FF"/>
<stop offset="1" stop-color="#A3ADFF"/>
</linearGradient>
<linearGradient id="paint21_linear_1_1066" x1="144.896" y1="12.593" x2="144.896" y2="16.3663" gradientUnits="userSpaceOnUse">
<stop stop-color="#4157FF"/>
<stop offset="1" stop-color="#A3ADFF"/>
</linearGradient>
<linearGradient id="paint22_linear_1_1066" x1="46.2444" y1="45.1026" x2="46.2444" y2="49.9638" gradientUnits="userSpaceOnUse">
<stop stop-color="#4157FF"/>
<stop offset="1" stop-color="#A3ADFF"/>
</linearGradient>
<linearGradient id="paint23_linear_1_1066" x1="122.626" y1="4.3492" x2="122.626" y2="9.21039" gradientUnits="userSpaceOnUse">
<stop stop-color="#4157FF"/>
<stop offset="1" stop-color="#A3ADFF"/>
</linearGradient>
<linearGradient id="paint24_linear_1_1066" x1="12.6538" y1="85.8206" x2="12.6538" y2="93.3166" gradientUnits="userSpaceOnUse">
<stop stop-color="#4157FF"/>
<stop offset="1" stop-color="#A3ADFF"/>
</linearGradient>
<linearGradient id="paint25_linear_1_1066" x1="240.983" y1="179.262" x2="240.983" y2="186.758" gradientUnits="userSpaceOnUse">
<stop stop-color="#4157FF"/>
<stop offset="1" stop-color="#A3ADFF"/>
</linearGradient>
</defs>
</svg>
