<svg width="735" height="428" viewBox="0 0 735 428" fill="none" xmlns="http://www.w3.org/2000/svg">
<g filter="url(#filter0_d_57_801)">
<g filter="url(#filter1_d_57_801)">
<path d="M180 196C180 184.954 188.954 176 200 176H535C546.046 176 555 184.954 555 196V244H180V196Z" fill="#E1E9F0"/>
</g>
<path d="M338.733 200.886C337.496 200.886 336.363 201.244 335.364 201.95C334.406 202.627 333.768 203.489 333.393 204.116C333.017 203.489 332.379 202.627 331.421 201.95C330.422 201.244 329.289 200.886 328.052 200.886C324.602 200.886 322 203.465 322 206.884C322 210.579 325.246 213.106 330.16 216.932C330.995 217.582 331.941 218.319 332.924 219.104C333.053 219.208 333.22 219.265 333.393 219.265C333.565 219.265 333.732 219.208 333.861 219.104C334.844 218.318 335.79 217.582 336.625 216.932C341.539 213.106 344.785 210.579 344.785 206.884C344.785 203.465 342.183 200.886 338.733 200.886Z" fill="#4157FF"/>
<circle cx="334" cy="225" r="2" fill="#4157FF"/>
</g>
<g filter="url(#filter2_f_57_801)">
<path d="M494.5 200.886C488.71 200.886 484 204.782 484 209.57C484 211.244 484.576 212.865 485.669 214.267C485.462 216.37 484.908 217.93 484.103 218.67C483.996 218.768 483.97 218.917 484.037 219.041C484.096 219.151 484.219 219.219 484.35 219.219C484.366 219.219 484.382 219.218 484.399 219.216C484.54 219.197 487.833 218.762 490.215 217.499C491.567 218 493.008 218.254 494.5 218.254C500.29 218.254 505 214.359 505 209.57C505 204.782 500.29 200.886 494.5 200.886ZM489.6 210.857C488.828 210.857 488.2 210.28 488.2 209.57C488.2 208.861 488.828 208.284 489.6 208.284C490.372 208.284 491 208.861 491 209.57C491 210.28 490.372 210.857 489.6 210.857ZM494.5 210.857C493.728 210.857 493.1 210.28 493.1 209.57C493.1 208.861 493.728 208.284 494.5 208.284C495.272 208.284 495.9 208.861 495.9 209.57C495.9 210.28 495.272 210.857 494.5 210.857ZM499.4 210.857C498.628 210.857 498 210.28 498 209.57C498 208.861 498.628 208.284 499.4 208.284C500.172 208.284 500.8 208.861 500.8 209.57C500.8 210.28 500.172 210.857 499.4 210.857Z" fill="#858EA9"/>
</g>
<g filter="url(#filter3_f_57_801)">
<path d="M405.004 200.887C405.004 200.887 405.003 200.887 405.002 200.887C404.754 200.887 404.522 200.975 404.346 201.136C404.168 201.299 404.07 201.516 404.07 201.747V214.655C404.07 215.129 404.491 215.515 405.008 215.516C407.188 215.521 410.842 215.938 413.362 218.362V204.853C413.362 204.693 413.317 204.542 413.233 204.417C411.165 201.356 407.19 200.891 405.004 200.887Z" fill="#858EA9"/>
<path d="M424.108 214.655V201.747C424.108 201.516 424.01 201.299 423.832 201.136C423.657 200.975 423.423 200.886 423.176 200.886C423.175 200.886 423.175 200.886 423.174 200.886C420.989 200.891 417.014 201.356 414.945 204.417C414.861 204.542 414.816 204.693 414.816 204.853V218.362C417.337 215.938 420.99 215.521 423.17 215.516C423.687 215.515 424.108 215.129 424.108 214.655Z" fill="#858EA9"/>
<path d="M426.242 203.863H425.563V214.655C425.563 215.864 424.491 216.849 423.174 216.852C421.324 216.857 418.275 217.189 416.115 219.067C419.85 218.227 423.788 218.773 426.032 219.243C426.312 219.302 426.602 219.241 426.826 219.077C427.05 218.913 427.178 218.668 427.178 218.404V204.724C427.179 204.25 426.758 203.863 426.242 203.863Z" fill="#858EA9"/>
<path d="M402.616 214.655V203.863H401.937C401.42 203.863 401 204.25 401 204.724V218.404C401 218.667 401.128 218.912 401.352 219.076C401.576 219.241 401.866 219.302 402.146 219.243C404.39 218.773 408.328 218.227 412.063 219.067C409.904 217.189 406.854 216.856 405.005 216.852C403.687 216.849 402.616 215.864 402.616 214.655Z" fill="#858EA9"/>
</g>
<g filter="url(#filter4_f_57_801)">
<path d="M257.463 205.919C257.462 205.919 257.462 205.918 257.461 205.918L249.302 198.444C248.954 198.125 248.492 197.95 248 197.95C247.508 197.95 247.046 198.125 246.698 198.444L238.543 205.914C238.54 205.916 238.537 205.919 238.535 205.921C237.821 206.579 237.822 207.647 238.538 208.303C238.866 208.603 239.298 208.777 239.76 208.795C239.779 208.797 239.798 208.798 239.817 208.798H240.142V214.298C240.142 215.386 241.109 216.272 242.297 216.272H245.489C245.813 216.272 246.075 216.032 246.075 215.735V211.423C246.075 210.926 246.517 210.522 247.059 210.522H248.942C249.484 210.522 249.925 210.926 249.925 211.423V215.735C249.925 216.032 250.187 216.272 250.511 216.272H253.703C254.891 216.272 255.858 215.386 255.858 214.298V208.798H256.16C256.651 208.798 257.114 208.622 257.462 208.304C258.179 207.646 258.179 206.577 257.463 205.919Z" fill="#4157FF"/>
</g>
<defs>
<filter id="filter0_d_57_801" x="176" y="176" width="383" height="76" filterUnits="userSpaceOnUse" color-interpolation-filters="sRGB">
<feFlood flood-opacity="0" result="BackgroundImageFix"/>
<feColorMatrix in="SourceAlpha" type="matrix" values="0 0 0 0 0 0 0 0 0 0 0 0 0 0 0 0 0 0 127 0" result="hardAlpha"/>
<feOffset dy="4"/>
<feGaussianBlur stdDeviation="2"/>
<feComposite in2="hardAlpha" operator="out"/>
<feColorMatrix type="matrix" values="0 0 0 0 0 0 0 0 0 0 0 0 0 0 0 0 0 0 0.25 0"/>
<feBlend mode="normal" in2="BackgroundImageFix" result="effect1_dropShadow_57_801"/>
<feBlend mode="normal" in="SourceGraphic" in2="effect1_dropShadow_57_801" result="shape"/>
</filter>
<filter id="filter1_d_57_801" x="0" y="0" width="735" height="428" filterUnits="userSpaceOnUse" color-interpolation-filters="sRGB">
<feFlood flood-opacity="0" result="BackgroundImageFix"/>
<feColorMatrix in="SourceAlpha" type="matrix" values="0 0 0 0 0 0 0 0 0 0 0 0 0 0 0 0 0 0 127 0" result="hardAlpha"/>
<feOffset dy="4"/>
<feGaussianBlur stdDeviation="90"/>
<feColorMatrix type="matrix" values="0 0 0 0 0 0 0 0 0 0 0 0 0 0 0 0 0 0 0.25 0"/>
<feBlend mode="normal" in2="BackgroundImageFix" result="effect1_dropShadow_57_801"/>
<feBlend mode="normal" in="SourceGraphic" in2="effect1_dropShadow_57_801" result="shape"/>
</filter>
<filter id="filter2_f_57_801" x="480" y="196.886" width="29" height="26.3324" filterUnits="userSpaceOnUse" color-interpolation-filters="sRGB">
<feFlood flood-opacity="0" result="BackgroundImageFix"/>
<feBlend mode="normal" in="SourceGraphic" in2="BackgroundImageFix" result="shape"/>
<feGaussianBlur stdDeviation="2" result="effect1_foregroundBlur_57_801"/>
</filter>
<filter id="filter3_f_57_801" x="397" y="196.886" width="34.1785" height="26.3784" filterUnits="userSpaceOnUse" color-interpolation-filters="sRGB">
<feFlood flood-opacity="0" result="BackgroundImageFix"/>
<feBlend mode="normal" in="SourceGraphic" in2="BackgroundImageFix" result="shape"/>
<feGaussianBlur stdDeviation="2" result="effect1_foregroundBlur_57_801"/>
</filter>
<filter id="filter4_f_57_801" x="234" y="193.95" width="28" height="26.3224" filterUnits="userSpaceOnUse" color-interpolation-filters="sRGB">
<feFlood flood-opacity="0" result="BackgroundImageFix"/>
<feBlend mode="normal" in="SourceGraphic" in2="BackgroundImageFix" result="shape"/>
<feGaussianBlur stdDeviation="2" result="effect1_foregroundBlur_57_801"/>
</filter>
</defs>
</svg>
