<svg width="291" height="238" viewBox="0 0 291 238" fill="none" xmlns="http://www.w3.org/2000/svg">
<mask id="mask0_1_133" style="mask-type:alpha" maskUnits="userSpaceOnUse" x="0" y="-101" width="291" height="341">
<ellipse cx="145.5" cy="69.9017" rx="145.5" ry="170" fill="url(#paint0_linear_1_133)"/>
</mask>
<g mask="url(#mask0_1_133)">
<path d="M320 206.046H-33V206.223H320V206.046Z" fill="#EBEBEB"/>
<path d="M274.583 217.406H261.247V217.582H274.583V217.406Z" fill="#EBEBEB"/>
<path d="M194.699 216.177H173.893V216.354H194.699V216.177Z" fill="#EBEBEB"/>
<path d="M260.54 210.854H227.281V211.03H260.54V210.854Z" fill="#EBEBEB"/>
<path d="M11.7817 212.04H4.03687V212.217H11.7817V212.04Z" fill="#EBEBEB"/>
<path d="M45.2882 212.04H18.0649V212.217H45.2882V212.04Z" fill="#EBEBEB"/>
<path d="M125.956 215.019H87.7261V215.196H125.956V215.019Z" fill="#EBEBEB"/>
<path d="M274.583 217.406H261.247V217.582H274.583V217.406Z" fill="#EBEBEB"/>
<path d="M194.699 216.177H173.893V216.354H194.699V216.177Z" fill="#EBEBEB"/>
<path d="M260.54 210.854H227.281V211.03H260.54V210.854Z" fill="#EBEBEB"/>
<path d="M11.7817 212.04H4.03687V212.217H11.7817V212.04Z" fill="#EBEBEB"/>
<path d="M45.2882 212.04H18.0649V212.217H45.2882V212.04Z" fill="#EBEBEB"/>
<path d="M125.956 215.019H87.7261V215.196H125.956V215.019Z" fill="#EBEBEB"/>
<path d="M108.737 194.252C112.771 184.511 108.146 173.344 98.405 169.31C88.6643 165.275 77.4971 169.9 73.4624 179.641C69.4277 189.382 74.0533 200.549 83.7939 204.584C93.5346 208.618 104.702 203.993 108.737 194.252Z" fill="#E0E0E0"/>
<path d="M46.842 194.257C50.8767 184.516 46.2511 173.349 36.5104 169.314C26.7697 165.279 15.6025 169.905 11.5678 179.646C7.53306 189.386 12.1587 200.554 21.8994 204.588C31.64 208.623 42.8072 203.997 46.842 194.257Z" fill="#E6E6E6"/>
<path d="M29.2058 177.524C31.0789 177.522 32.9103 178.076 34.4683 179.116C36.0263 180.156 37.2408 181.635 37.9583 183.365C38.6757 185.095 38.8638 186.999 38.4987 188.836C38.1336 190.674 37.2318 192.361 35.9073 193.686C34.5829 195.01 32.8953 195.912 31.0581 196.277C29.2209 196.642 27.3168 196.454 25.5865 195.737C23.8563 195.019 22.3777 193.805 21.338 192.247C20.2982 190.689 19.744 188.857 19.7454 186.984C19.7491 184.476 20.747 182.072 22.5204 180.299C24.2937 178.525 26.6979 177.527 29.2058 177.524ZM29.2058 174.7C26.7745 174.7 24.3977 175.421 22.3763 176.772C20.3548 178.123 18.7794 180.043 17.8493 182.289C16.9192 184.535 16.6762 187.007 17.151 189.392C17.6258 191.776 18.7972 193.966 20.5169 195.685C22.2366 197.404 24.4274 198.574 26.8122 199.047C29.1969 199.521 31.6686 199.276 33.9144 198.345C36.1603 197.414 38.0794 195.837 39.4292 193.815C40.7789 191.792 41.4986 189.415 41.4972 186.984C41.4972 185.37 41.1793 183.772 40.5615 182.281C39.9437 180.79 39.0382 179.436 37.8967 178.295C36.7553 177.154 35.4002 176.25 33.909 175.633C32.4177 175.016 30.8196 174.699 29.2058 174.7Z" fill="#F5F5F5"/>
<path d="M226.427 160.001H221.831V168.529H226.427V160.001Z" fill="#F5F5F5"/>
<path fill-rule="evenodd" clip-rule="evenodd" d="M146.524 49.2103C152.402 50.1644 157.511 52.9871 161.343 56.9732L161.441 56.989C173.325 58.9179 182.346 67.8028 185.021 78.8097C187.908 79.3168 190.674 80.6856 192.904 82.9158C198.678 88.6892 198.678 98.0496 192.904 103.823C188.486 108.241 181.967 109.278 176.562 106.934C170.223 112.818 161.333 115.821 152.134 114.328C146.068 113.344 140.748 110.547 136.638 106.58C136.6 106.618 136.563 106.656 136.526 106.693C127.38 115.839 112.553 115.839 103.407 106.693C102.696 105.982 102.04 105.236 101.44 104.462C99.4521 105.69 97.1099 106.398 94.6021 106.398C87.4082 106.398 81.5764 100.566 81.5764 93.3725C81.5764 86.1786 87.4082 80.3468 94.6021 80.3468C95.9347 80.3468 97.2205 80.5469 98.4311 80.9187C99.5717 78.2511 101.23 75.7521 103.407 73.5751C107.278 69.7045 112.166 67.4721 117.211 66.8778C121.258 54.8141 133.554 47.1049 146.524 49.2103Z" fill="white" fill-opacity="0.5"/>
<path fill-rule="evenodd" clip-rule="evenodd" d="M237.413 62.486C238.601 62.486 239.763 62.3759 240.89 62.1653C243.918 65.3095 248.172 67.2656 252.882 67.2656C260.114 67.2656 266.269 62.6537 268.567 56.2104C273.659 54.6873 276.742 49.4366 275.505 44.196C274.222 38.7579 268.773 35.39 263.335 36.6735C263.01 36.7501 262.693 36.8416 262.384 36.947C259.856 35.1866 256.816 34.1094 253.533 33.9832C250.241 28.5224 244.254 24.8703 237.413 24.8703C230.859 24.8703 225.087 28.223 221.721 33.307C221.327 33.2743 220.928 33.2577 220.525 33.2577C212.633 33.2577 206.236 39.6553 206.236 47.5471C206.236 55.439 212.633 61.8366 220.525 61.8366C223.182 61.8366 225.67 61.1113 227.801 59.8479C230.614 61.5235 233.901 62.486 237.413 62.486Z" fill="white" fill-opacity="0.4"/>
<path fill-rule="evenodd" clip-rule="evenodd" d="M33.943 35.541C38.0422 35.541 41.7437 37.2435 44.379 39.9799C45.3623 39.7957 46.3765 39.6993 47.4132 39.6993C50.4675 39.6993 53.3265 40.5357 55.7735 41.9919C56.8272 41.3699 57.9912 40.8941 59.2446 40.5983C65.9311 39.0201 72.631 43.1613 74.2092 49.8478C75.7874 56.5344 71.6462 63.2342 64.9596 64.8124C63.6506 65.1214 62.341 65.2111 61.0694 65.1055C58.1381 69.5277 53.1162 72.4436 47.4132 72.4436C41.4557 72.4436 36.2414 69.2616 33.3771 64.5044C30.5232 64.3948 27.881 63.4596 25.6825 61.931C22.6022 62.987 19.0529 62.2862 16.5952 59.8285C13.1571 56.3904 13.1571 50.8161 16.5952 47.378C17.6636 46.3096 18.9382 45.5733 20.2909 45.1689C22.2882 39.5579 27.6465 35.541 33.943 35.541Z" fill="white" fill-opacity="0.3"/>
<path d="M143.5 237.929C219.1 237.929 280.386 234.351 280.386 229.937C280.386 225.523 219.1 221.945 143.5 221.945C67.8997 221.945 6.61359 225.523 6.61359 229.937C6.61359 234.351 67.8997 237.929 143.5 237.929Z" fill="black" fill-opacity="0.2"/>
<path d="M66.3837 190.119H19.3218V227.586H66.3837V190.119Z" fill="#828282"/>
<path opacity="0.7" d="M66.3837 190.119H19.3218V227.586H66.3837V190.119Z" fill="white"/>
<path opacity="0.4" d="M66.3839 190.119H49.7293V227.586H66.3839V190.119Z" fill="#828282"/>
<path d="M62.3101 208.849C62.3101 212.781 60.6863 215.965 58.6813 215.965C56.6762 215.965 55.0524 212.781 55.0524 208.849C55.0524 204.916 56.6762 201.739 58.6813 201.739C60.6863 201.739 62.3101 204.923 62.3101 208.849Z" fill="white"/>
<path d="M59.3593 204.471H57.9967V213.226H59.3593V204.471Z" fill="#828282"/>
<path d="M61.2721 210.007V207.698H56.0901V210.007H61.2721Z" fill="#828282"/>
<path opacity="0.7" d="M31.5497 227.579H37.4942V213.409H31.5497V227.579Z" fill="white"/>
<path opacity="0.7" d="M31.5497 196.762H37.4942V190.119H31.5497V196.762Z" fill="white"/>
<path d="M104.119 190.119H57.0574V227.586H104.119V190.119Z" fill="#828282"/>
<path opacity="0.7" d="M104.119 190.119H57.0574V227.586H104.119V190.119Z" fill="white"/>
<path opacity="0.4" d="M104.112 190.119H87.4578V227.586H104.112V190.119Z" fill="#828282"/>
<path d="M100.039 208.849C100.039 212.781 98.4151 215.965 96.41 215.965C94.405 215.965 92.7812 212.781 92.7812 208.849C92.7812 204.916 94.405 201.739 96.41 201.739C98.4151 201.739 100.039 204.923 100.039 208.849Z" fill="white"/>
<path d="M97.0877 204.471H95.7252V213.226H97.0877V204.471Z" fill="#828282"/>
<path d="M99.0011 210.007V207.698H93.8191V210.007H99.0011Z" fill="#828282"/>
<path opacity="0.7" d="M75.2299 190.119H69.2854V204.288H75.2299V190.119Z" fill="white"/>
<path opacity="0.7" d="M75.2299 220.935H69.2854V227.579H75.2299V220.935Z" fill="white"/>
<path d="M88.5942 161.469H41.5323V190.119H88.5942V161.469Z" fill="#828282"/>
<path opacity="0.7" d="M88.5942 161.469H41.5323V190.119H88.5942V161.469Z" fill="white"/>
<path opacity="0.4" d="M88.5944 161.469H71.9398V190.119H88.5944V161.469Z" fill="#828282"/>
<path d="M80.8854 182.91C82.8895 182.91 84.5142 179.724 84.5142 175.794C84.5142 171.863 82.8895 168.677 80.8854 168.677C78.8812 168.677 77.2565 171.863 77.2565 175.794C77.2565 179.724 78.8812 182.91 80.8854 182.91Z" fill="white"/>
<path d="M81.57 171.416H80.2074V180.171H81.57V171.416Z" fill="#828282"/>
<path d="M83.4762 176.952V174.643H78.2942V176.952H83.4762Z" fill="#828282"/>
<path opacity="0.7" d="M59.705 161.469H53.7605V171.226H59.705V161.469Z" fill="white"/>
<path opacity="0.7" d="M59.705 183.475H53.7605V190.118H59.705V183.475Z" fill="white"/>
<path d="M97.193 46.2075L99.7275 50.4435C100.596 51.8555 101.457 53.2675 102.347 54.6301C104.112 57.4047 105.94 60.1228 107.861 62.6926C108.334 63.3492 108.835 63.9564 109.315 64.5918C109.562 64.9095 109.816 65.1989 110.063 65.5025L110.438 65.9614L110.628 66.1873C110.628 66.2226 110.628 66.1873 110.628 66.1873L110.565 66.1309L110.438 66.0391C110.099 65.8202 109.964 65.8414 110 65.8767C110.13 65.9651 110.281 66.0186 110.438 66.032C111.045 66.1223 111.66 66.1506 112.273 66.1167C115.44 65.865 118.587 65.4171 121.698 64.7753L123.449 68.9478C121.931 69.9305 120.34 70.7967 118.691 71.5388C116.986 72.3344 115.208 72.9633 113.382 73.4168C112.321 73.682 111.234 73.8312 110.141 73.8616C109.442 73.8802 108.744 73.821 108.058 73.6851C107.065 73.4878 106.129 73.0705 105.319 72.4637C105.194 72.3712 105.074 72.2722 104.959 72.1672L104.775 71.9977L104.641 71.8706L104.401 71.6235L103.921 71.1364C103.603 70.8046 103.272 70.4798 102.968 70.148C102.368 69.442 101.725 68.8207 101.168 68.1359C98.8683 65.4334 96.7211 62.605 94.7361 59.6639C93.7547 58.2519 92.7946 56.7481 91.9121 55.2585C91.0296 53.7688 90.1259 52.2862 89.2575 50.6624L97.193 46.2075Z" fill="#FF8B7B"/>
<path d="M120.138 65.8627L125.193 61.1467L128.956 66.8864C128.956 66.8864 125.553 71.0377 121.501 69.1527L120.138 65.8627Z" fill="#828282"/>
<path d="M131.498 60.1934L132.204 63.3351C132.262 63.5931 132.246 63.8623 132.159 64.1119C132.072 64.3616 131.916 64.5816 131.709 64.7471L128.977 66.9075L125.214 61.1677L129.584 59.2474C129.771 59.169 129.972 59.1316 130.175 59.1378C130.377 59.1441 130.576 59.1937 130.757 59.2835C130.939 59.3732 131.099 59.5009 131.226 59.6579C131.354 59.8149 131.447 59.9975 131.498 60.1934Z" fill="#828282"/>
<path d="M111.645 223.216C111.621 223.205 111.601 223.187 111.587 223.164C111.573 223.142 111.566 223.115 111.567 223.089C111.566 223.06 111.574 223.031 111.591 223.006C111.607 222.982 111.631 222.964 111.659 222.955C111.949 222.849 114.483 221.959 115.189 222.468C115.251 222.515 115.3 222.578 115.333 222.649C115.365 222.721 115.378 222.799 115.373 222.877C115.368 223.006 115.333 223.132 115.27 223.245C115.208 223.358 115.12 223.454 115.013 223.527C114.307 224.021 112.598 223.527 111.659 223.223L111.645 223.216ZM114.97 222.665C114.54 222.446 113.17 222.764 112.146 223.089C113.438 223.484 114.427 223.562 114.836 223.287C114.909 223.242 114.97 223.178 115.011 223.103C115.052 223.027 115.072 222.942 115.069 222.856C115.074 222.825 115.07 222.793 115.058 222.764C115.045 222.735 115.025 222.711 114.998 222.694L114.97 222.665Z" fill="#828282"/>
<path d="M112.81 220.886C112.929 220.807 113.063 220.753 113.204 220.729C113.345 220.704 113.49 220.71 113.629 220.745C114.01 220.837 114.095 221.048 114.095 221.211C114.095 221.917 112.506 223.004 111.744 223.23C111.728 223.237 111.711 223.24 111.694 223.24C111.677 223.24 111.661 223.237 111.645 223.23C111.628 223.212 111.615 223.191 111.608 223.168C111.6 223.145 111.599 223.12 111.603 223.096C111.581 222.99 111.963 221.401 112.81 220.886ZM113.812 221.218C113.812 221.218 113.812 221.126 113.699 221.077L113.558 221.02H113.495C113.308 220.991 113.117 221.031 112.958 221.133C112.441 221.592 112.076 222.198 111.913 222.87C112.711 222.517 113.848 221.634 113.848 221.218H113.812Z" fill="#828282"/>
<path d="M105.976 223.752L111.991 223.661L111.617 209.668L105.595 209.767L105.976 223.752Z" fill="#FF8B7B"/>
<path d="M112.062 222.962L105.489 223.067C105.373 223.065 105.26 223.107 105.174 223.184C105.088 223.261 105.034 223.369 105.023 223.484L104.451 228.864C104.44 229 104.458 229.136 104.503 229.265C104.548 229.394 104.619 229.511 104.712 229.611C104.805 229.711 104.918 229.79 105.043 229.844C105.168 229.897 105.303 229.924 105.439 229.923C107.805 229.845 111.215 229.647 114.194 229.605C117.682 229.549 117.343 229.69 121.43 229.605C123.901 229.57 124.297 227.056 123.238 226.845C118.409 225.884 117.922 225.835 113.566 223.385C113.109 223.118 112.591 222.972 112.062 222.962Z" fill="#263238"/>
<path opacity="0.2" d="M111.617 209.675L111.807 216.883L105.792 216.982L105.595 209.766L111.617 209.675Z" fill="black"/>
<path d="M97.6871 19.5912C97.4542 24.1025 97.8566 32.9628 94.5737 35.8292C96.8258 38.2649 100.553 40.2064 105.792 40.5312C111.031 40.8559 109.837 37.926 108.574 35.9986C103.716 34.6925 104.585 30.3506 105.665 26.9901L97.6871 19.5912Z" fill="#FF8B7B"/>
<path d="M92.2863 35.1021C92.4134 33.8384 93.2041 31.3039 96.607 32.1793C100.01 33.0547 104.027 32.7441 107.084 32.9206C110.141 33.0971 110.31 36.9307 110.31 36.9307L92.2863 35.1021Z" fill="#828282"/>
<path d="M93.5149 34.255C100.766 34.1774 109.809 35.0599 114.695 36.606C115.327 36.8036 115.883 37.1893 116.289 37.7117C116.695 38.2341 116.932 38.8681 116.968 39.5288C117.258 44.9933 118.048 62.9822 118.733 91.0245L86.4761 91.5469C86.6891 76.0505 85.8423 60.5577 83.9416 45.1768C83.7733 43.8158 83.8948 42.4345 84.2979 41.1236C84.701 39.8128 85.3768 38.602 86.2808 37.5706C87.1848 36.5393 88.2966 35.7107 89.5434 35.1393C90.7901 34.5679 92.1436 34.2666 93.5149 34.255Z" fill="#090F47"/>
<path d="M168.207 48.6239L123.51 42.7546L119.937 69.9643L164.634 75.8336L168.207 48.6239Z" fill="#828282"/>
<path opacity="0.7" d="M168.207 48.6239L123.51 42.7546L119.937 69.9643L164.634 75.8336L168.207 48.6239Z" fill="white"/>
<path opacity="0.4" d="M168.768 48.436L138.422 44.5163L134.901 71.7744L165.247 75.6941L168.768 48.436Z" fill="#828282"/>
<path d="M159.557 61.1076C160.039 57.3681 157.471 53.9549 153.82 53.4841C150.17 53.0132 146.819 55.6629 146.337 59.4024C145.855 63.1419 148.423 66.555 152.073 67.0259C155.724 67.4968 159.074 64.8471 159.557 61.1076Z" fill="white"/>
<path d="M154.748 56.254L152.262 55.9329L151.187 64.2581L153.673 64.5792L154.748 56.254Z" fill="#828282"/>
<path d="M157.55 61.9703L157.833 59.7788L148.387 58.5587L148.104 60.7503L157.55 61.9703Z" fill="#828282"/>
<path opacity="0.7" d="M132.227 43.7143L129.65 43.3814L128.451 52.6659L131.028 52.9987L132.227 43.7143Z" fill="white"/>
<path opacity="0.7" d="M129.522 64.654L126.945 64.3212L126.129 70.6439L128.705 70.9767L129.522 64.654Z" fill="white"/>
<path d="M119.058 44.5201C119.213 45.2261 119.425 46.0874 119.615 46.8781L120.223 49.3068C120.653 50.9235 121.091 52.5332 121.578 54.1217C122.065 55.7102 122.559 57.2846 123.131 58.8237C123.703 60.3627 124.275 61.8736 124.946 63.3138C125.277 64.0198 125.616 64.7258 125.976 65.4318C126.153 65.7848 126.344 66.1378 126.527 66.4485L126.817 66.9356L126.958 67.1756V67.1403L126.88 67.0486C126.827 66.9863 126.771 66.9274 126.711 66.8721C126.508 66.6788 126.268 66.5297 126.005 66.4343C125.901 66.3842 125.788 66.3577 125.673 66.3567C125.588 66.3567 125.729 66.4414 125.934 66.4626C126.547 66.4828 127.16 66.4378 127.763 66.3284C130.969 65.6562 134.131 64.7861 137.23 63.7233L139.461 67.6628C138.038 68.8527 136.533 69.9403 134.957 70.9174C133.316 71.9397 131.58 72.8026 129.775 73.4943C128.705 73.9012 127.591 74.1809 126.457 74.3274C125.679 74.436 124.89 74.436 124.113 74.3274C123.57 74.2347 123.042 74.0758 122.538 73.8544C121.894 73.5617 121.306 73.1578 120.801 72.6613C120.665 72.5269 120.535 72.3855 120.413 72.2377L120.237 72.0117L120.138 71.8705L119.919 71.567L119.495 70.9174C119.227 70.508 118.945 70.0985 118.691 69.689C118.168 68.863 117.681 68.0299 117.236 67.1898C115.495 63.8923 114.035 60.4536 112.873 56.9104C112.294 55.1666 111.772 53.4228 111.306 51.6507C111.073 50.7753 110.854 49.8857 110.649 48.9891C110.444 48.0925 110.275 47.2311 110.091 46.2357L119.058 44.5201Z" fill="#FF8B7B"/>
<path d="M107.338 39.896C104.458 44.9651 112.181 61.8738 112.181 61.8738L124.183 57.306C124.183 57.306 123.725 48.7492 120.569 42.134C117.293 35.3493 110.494 34.3398 107.338 39.896Z" fill="#090F47"/>
<path d="M145.498 61.2029L143.323 61.3935C142.075 61.4981 140.853 61.8107 139.708 62.3184L136.454 63.7304C136.246 63.8223 136.081 63.9883 135.989 64.196C135.898 64.4036 135.887 64.6379 135.96 64.8529L137.23 68.7006C137.296 68.8996 137.427 69.07 137.604 69.1831C137.78 69.2963 137.99 69.3453 138.198 69.3219C139.921 69.1923 141.615 68.8068 143.224 68.1782L145.992 67.0556C146.205 66.9507 146.385 66.7877 146.51 66.5854C146.634 66.3831 146.7 66.1496 146.698 65.9119L146.832 62.7349C146.848 62.546 146.827 62.3558 146.768 62.1755C146.709 61.9952 146.615 61.8286 146.49 61.6856C146.366 61.5427 146.213 61.4262 146.043 61.3433C145.872 61.2603 145.687 61.2126 145.498 61.2029Z" fill="#828282"/>
<path d="M138.381 64.4081C139.031 63.6527 139.793 60.5039 139.349 59.692C138.904 58.8801 138.156 60.9487 137.69 61.4994C136.398 63.0243 135.317 64.5705 136.235 65.0294C137.153 65.4883 137.238 65.7283 138.381 64.4081Z" fill="#828282"/>
<path d="M112.358 15.913C112.4 16.4001 112.689 16.7673 113.007 16.739C113.325 16.7108 113.544 16.2942 113.508 15.8071C113.473 15.32 113.177 14.9528 112.859 14.9881C112.541 15.0234 112.315 15.4329 112.358 15.913Z" fill="#263238"/>
<path d="M111.772 15.8847C112.472 17.3115 113.365 18.6348 114.427 19.8171C114.117 20.0833 113.754 20.2791 113.361 20.3913C112.969 20.5034 112.557 20.5291 112.153 20.4667L111.772 15.8847Z" fill="#FF5652"/>
<path d="M110.713 13.428C110.664 13.4214 110.617 13.4071 110.572 13.3856C110.54 13.3655 110.513 13.3393 110.491 13.3084C110.469 13.2775 110.454 13.2426 110.446 13.2058C110.438 13.169 110.438 13.1309 110.445 13.0939C110.452 13.0569 110.467 13.0216 110.487 12.9903C110.715 12.5928 111.035 12.2566 111.422 12.0106C111.808 11.7647 112.248 11.6163 112.704 11.5783C112.742 11.5763 112.779 11.582 112.814 11.595C112.849 11.608 112.881 11.628 112.908 11.6537C112.935 11.6795 112.957 11.7105 112.971 11.7449C112.986 11.7792 112.994 11.8162 112.994 11.8536C112.995 11.8916 112.988 11.9294 112.974 11.9649C112.961 12.0004 112.94 12.0328 112.914 12.0604C112.888 12.0879 112.856 12.11 112.822 12.1254C112.787 12.1408 112.749 12.1492 112.711 12.1501C112.353 12.1848 112.008 12.3039 111.705 12.4979C111.402 12.6918 111.149 12.9549 110.967 13.2656C110.944 13.3134 110.908 13.3539 110.863 13.3825C110.818 13.4112 110.766 13.4269 110.713 13.428Z" fill="#263238"/>
<path d="M95.8022 15.2C96.6565 21.1163 96.8612 24.6251 100.116 27.4068C105.016 31.5863 112.118 28.1904 113.071 22.1188C113.911 16.6614 112.365 7.89999 106.35 6.06439C105.016 5.65742 103.601 5.59554 102.237 5.88455C100.873 6.17356 99.6049 6.804 98.5509 7.71684C97.497 8.62968 96.692 9.79506 96.2112 11.1038C95.7305 12.4126 95.5898 13.822 95.8022 15.2Z" fill="#FF8B7B"/>
<path d="M110.021 18.1935C110.371 17.983 110.671 17.6992 110.9 17.3617C111.129 17.0241 111.283 16.6408 111.35 16.2382C111.417 15.8356 111.396 15.4232 111.289 15.0295C111.181 14.6358 110.989 14.27 110.727 13.9575C109.767 12.8208 108.065 10.8582 109.025 10.0251C109.986 9.192 114.928 7.49759 113.106 4.08761C111.285 0.677633 107.458 -1.41212 104.916 1.12242C102.375 3.65696 101.598 2.3438 97.4964 1.82842C93.3946 1.31304 91.559 5.49256 92.9569 7.15166C94.3547 8.81076 89.2927 9.64384 90.9518 11.8254C87.8525 13.4351 90.86 18.5041 93.3099 20.6857C95.7597 22.8672 94.0935 26.5314 98.2519 27.8869C102.41 29.2424 111.899 22.9096 110.021 18.1935Z" fill="#263238"/>
<path d="M109.661 26.1148C109.592 26.1149 109.524 26.0966 109.465 26.0619C109.405 26.0271 109.356 25.9772 109.322 25.9171C109.188 25.6982 106.089 20.4244 108.242 17.4451C108.983 16.4284 109.753 15.9484 110.544 16.0331C111.85 16.1319 112.782 17.6498 113.452 18.9559C113.5 19.0495 113.509 19.1583 113.476 19.2583C113.444 19.3582 113.373 19.4412 113.279 19.489C113.186 19.5367 113.077 19.5453 112.977 19.5129C112.877 19.4804 112.794 19.4096 112.746 19.316C112.436 18.7159 111.504 16.8944 110.473 16.8167C109.972 16.8167 109.435 17.1486 108.87 17.9252C107.021 20.4738 109.958 25.4723 109.993 25.5217C110.045 25.6129 110.059 25.7207 110.033 25.8222C110.006 25.9238 109.941 26.011 109.852 26.0653C109.793 26.0966 109.728 26.1135 109.661 26.1148Z" fill="#828282"/>
<path d="M71.777 221.168C71.7522 221.16 71.7308 221.143 71.7156 221.122C71.7004 221.1 71.6923 221.075 71.6923 221.048C71.6899 221.019 71.6968 220.99 71.712 220.964C71.7272 220.939 71.7499 220.919 71.777 220.907C72.0594 220.78 74.5446 219.693 75.2506 220.145C75.3185 220.186 75.3745 220.244 75.413 220.313C75.4514 220.383 75.4708 220.461 75.4694 220.54C75.4815 220.674 75.4594 220.81 75.4051 220.933C75.3508 221.057 75.266 221.164 75.1588 221.246C74.4528 221.79 72.7584 221.451 71.7982 221.204L71.777 221.168ZM75.0529 220.357C74.6081 220.173 73.2667 220.604 72.2854 220.999C73.5985 221.296 74.594 221.296 74.9823 220.999C75.0514 220.947 75.1059 220.878 75.1405 220.799C75.1752 220.72 75.1887 220.633 75.18 220.547C75.183 220.517 75.1774 220.486 75.1636 220.458C75.1499 220.431 75.1286 220.408 75.1023 220.392L75.0529 220.357Z" fill="#828282"/>
<path d="M72.7588 218.747C72.9911 218.578 73.2799 218.508 73.5636 218.549C73.9519 218.612 74.0578 218.824 74.072 218.98C74.1426 219.686 72.66 220.886 71.8834 221.175C71.8513 221.186 71.8166 221.186 71.7845 221.175H71.7422C71.7241 221.157 71.7103 221.135 71.7017 221.11C71.6932 221.086 71.6901 221.06 71.6927 221.034C71.6998 220.949 71.954 219.333 72.7588 218.747ZM73.7896 219.008C73.7896 219.008 73.7896 218.923 73.6625 218.874L73.5142 218.831H73.3942C73.2242 218.833 73.0589 218.887 72.9212 218.987C72.444 219.485 72.1332 220.119 72.0316 220.801C72.7941 220.392 73.8319 219.424 73.7896 219.008Z" fill="#828282"/>
<path d="M65.7126 220.561L71.523 222.079L75.4484 208.602L69.638 207.091L65.7126 220.561Z" fill="#FF8B7B"/>
<path d="M71.9397 220.914L65.5857 219.255C65.4743 219.225 65.3555 219.237 65.2525 219.289C65.1494 219.341 65.0694 219.43 65.028 219.538L63.0159 224.564C62.9696 224.695 62.9514 224.834 62.9625 224.972C62.9737 225.11 63.0139 225.244 63.0806 225.365C63.1473 225.487 63.2389 225.592 63.3494 225.676C63.46 225.759 63.5869 225.818 63.7219 225.849C66.0234 226.407 66.793 226.421 69.6805 227.177C73.0482 228.052 73.6341 229.888 77.7219 229.923C80.1929 229.923 80.6518 227.452 79.5998 227.205C76.2675 226.421 74.3684 223.52 73.2952 221.747C72.9688 221.304 72.4827 221.005 71.9397 220.914Z" fill="#263238"/>
<path opacity="0.2" d="M75.4482 208.602L73.422 215.549L67.6116 214.038L69.6378 207.091L75.4482 208.602Z" fill="black"/>
<path d="M79.6423 149.114C83.1158 126.473 81.6332 104.431 86.5046 91.5468L107.819 91.2009C107.819 91.2009 98.5702 132.481 94.4048 150.505C90.0841 169.277 76.3594 212.831 76.3594 212.831L66.9555 210.367C66.9555 210.367 74.1143 165.444 79.6423 149.114Z" fill="#828282"/>
<path opacity="0.2" d="M95.0327 129.946C95.0327 134.422 95.3645 139.265 95.8164 144.433C98.5627 132.354 102.41 115.269 104.994 103.732C97.1719 109.578 95.0327 118.566 95.0327 129.946Z" fill="black"/>
<path d="M106.943 18.7938C107.118 19.4 107.412 19.9654 107.807 20.4574C108.202 20.9494 108.691 21.3582 109.245 21.6601C110.734 22.465 111.864 21.2224 111.765 19.6198C111.68 18.2078 110.805 16.0404 109.153 15.8992C108.793 15.8744 108.432 15.9393 108.104 16.0881C107.775 16.2369 107.488 16.4649 107.269 16.7518C107.05 17.0386 106.906 17.3753 106.849 17.7317C106.792 18.0881 106.824 18.453 106.943 18.7938Z" fill="#FF8B7B"/>
<path d="M112.577 17.1415C114.427 17.4733 114.695 19.3654 114.695 20.1985C114.695 21.0316 113.029 27.3573 109.64 28.5575C106.251 29.7577 106.251 28.9458 106.753 28.0845C107.254 27.2232 111.815 22.9448 112.577 17.1415Z" fill="#828282"/>
<path d="M101.747 149.284C98.8452 125.569 94.934 103.923 97.9627 91.328L118.74 90.9961C118.74 90.9961 117.533 133.229 116.531 151.571C115.486 170.633 114.024 215.429 114.024 215.429L103.815 215.584C103.815 215.584 100.335 173.245 101.747 149.284Z" fill="#828282"/>
<path d="M114.66 215.676L102.524 215.866L101.839 211.934L115.366 211.51L114.66 215.676Z" fill="#263238"/>
<path d="M77.1217 215.153L65.3809 212.096L65.7692 208.122L78.922 211.334L77.1217 215.153Z" fill="#263238"/>
<path d="M212.448 17.3181C205.028 23.3121 203.143 32.9913 205.812 37.3756C209.61 43.6096 224.874 45.2616 232.11 41.5127C235.478 39.7619 238.521 19.9515 228.75 16.1673C225.057 10.837 216.642 13.9223 212.448 17.3181Z" fill="#263238"/>
<path d="M239.057 207.246L233.67 211.08L218.562 196.713L225.071 189.667L239.057 207.246Z" fill="#FFC3BD"/>
<path d="M232.887 209.71L238.344 204.662C238.433 204.564 238.556 204.503 238.687 204.494C238.819 204.485 238.949 204.527 239.05 204.613L243.336 208.086C243.44 208.186 243.522 208.306 243.576 208.439C243.631 208.572 243.657 208.716 243.652 208.86C243.647 209.004 243.612 209.145 243.549 209.274C243.486 209.404 243.397 209.519 243.286 209.611C241.359 211.341 240.349 212.082 237.949 214.306C236.473 215.669 233.551 218.634 231.51 220.519C229.47 222.404 227.656 220.618 228.347 219.664C231.461 215.372 231.997 212.929 232.365 210.741C232.425 210.35 232.608 209.989 232.887 209.71Z" fill="#263238"/>
<path d="M231.785 212.188C231.413 212.602 230.918 212.887 230.373 213C230.237 213.014 230.099 212.991 229.974 212.932C229.85 212.874 229.744 212.782 229.667 212.668C229.616 212.602 229.583 212.524 229.571 212.441C229.559 212.358 229.567 212.274 229.597 212.195C229.914 211.341 232.696 210.48 233.007 210.381C233.036 210.373 233.068 210.374 233.096 210.384C233.125 210.395 233.151 210.413 233.169 210.437C233.186 210.464 233.195 210.494 233.195 210.525C233.195 210.557 233.186 210.587 233.169 210.614C232.754 211.177 232.291 211.704 231.785 212.188ZM230.07 212.047C229.991 212.112 229.928 212.194 229.886 212.287C229.874 212.318 229.871 212.351 229.878 212.384C229.884 212.416 229.899 212.446 229.921 212.471C229.968 212.545 230.034 212.605 230.113 212.645C230.191 212.684 230.279 212.702 230.366 212.696C230.882 212.696 231.722 211.99 232.647 210.811C231.727 211.082 230.857 211.5 230.07 212.047Z" fill="#FFA41B"/>
<path d="M233.162 210.635L233.106 210.67C232.301 210.96 230.282 211.037 229.893 210.437C229.801 210.296 229.759 210.063 230.049 209.731C230.254 209.496 230.542 209.349 230.853 209.322C231.898 209.237 233.12 210.36 233.169 210.409C233.188 210.427 233.202 210.449 233.209 210.474C233.216 210.499 233.217 210.525 233.211 210.55C233.2 210.581 233.183 210.61 233.162 210.635ZM230.338 209.858L230.274 209.929C230.084 210.141 230.14 210.233 230.154 210.261C230.387 210.621 231.863 210.677 232.753 210.466C232.23 209.988 231.565 209.696 230.86 209.632C230.666 209.648 230.482 209.727 230.338 209.858Z" fill="#FFA41B"/>
<path d="M226.773 224.48L220.39 224.699L219.162 202.403L228.029 202.53L226.773 224.48Z" fill="#FFC3BD"/>
<path d="M219.953 222.665L227.119 222.616C227.239 222.61 227.357 222.652 227.447 222.733C227.537 222.813 227.592 222.926 227.599 223.046L228.029 228.694C228.032 228.842 228.006 228.988 227.952 229.126C227.898 229.263 227.818 229.388 227.716 229.494C227.613 229.601 227.491 229.686 227.356 229.745C227.221 229.804 227.076 229.835 226.928 229.838C224.436 229.838 223.243 229.676 220.094 229.697C218.153 229.697 215.307 229.93 212.632 229.951C209.956 229.972 209.991 227.325 211.121 227.078C216.19 225.969 217.079 224.48 218.887 223.053C219.191 222.812 219.565 222.676 219.953 222.665Z" fill="#263238"/>
<path d="M208.96 55.3854C208.579 56.8892 208.155 58.3294 207.725 59.7908C207.294 61.2523 206.849 62.6996 206.362 64.1469C205.395 67.0415 204.364 69.9149 203.072 72.8165C202.74 73.5225 202.402 74.2709 202.013 75.0192C201.598 75.8326 201.126 76.6159 200.601 77.3632C200.202 77.9314 199.727 78.4421 199.189 78.8811C198.612 79.3172 197.935 79.6012 197.219 79.7071C196.808 79.7681 196.391 79.7823 195.977 79.7494C195.418 79.6851 194.867 79.5645 194.332 79.3894C193.891 79.2625 193.457 79.1116 193.033 78.9375C191.533 78.3043 190.09 77.5438 188.719 76.6642C187.395 75.8233 186.124 74.9014 184.914 73.9038C184.593 73.636 184.375 73.2653 184.297 72.8548C184.218 72.4443 184.285 72.0194 184.485 71.6524C184.684 71.2853 185.005 70.9988 185.392 70.8417C185.78 70.6845 186.209 70.6663 186.608 70.7903H186.665L190.844 72.1247C192.154 72.5619 193.486 72.9318 194.833 73.2331C195.117 73.3002 195.404 73.3474 195.695 73.3743C195.877 73.4044 196.063 73.4044 196.245 73.3743C196.245 73.3743 196.245 73.3743 196.125 73.3743C195.778 73.4213 195.451 73.563 195.179 73.7837L195.101 73.8473C195.101 73.8473 195.172 73.7484 195.236 73.6284C195.535 73.1284 195.797 72.6069 196.019 72.0682C196.288 71.4751 196.549 70.8397 196.803 70.1832C197.798 67.5568 198.688 64.7611 199.549 61.9582L200.827 57.7222L202.063 53.4862C202.332 52.589 202.941 51.8325 203.76 51.3778C204.579 50.9231 205.543 50.8062 206.447 51.0519C207.351 51.2977 208.123 51.8868 208.599 52.6936C209.075 53.5004 209.218 54.4612 208.996 55.3713L208.96 55.3854Z" fill="#4157FF"/>
<path d="M181.864 65.4178L179.506 64.846C179.343 64.8074 179.173 64.8018 179.008 64.8293C178.842 64.8569 178.684 64.9171 178.542 65.0065C178.4 65.0959 178.278 65.2126 178.181 65.3499C178.085 65.4872 178.017 65.6423 177.981 65.8061L177.275 68.9549C177.215 69.2354 177.252 69.5281 177.38 69.7847C177.509 70.0413 177.72 70.2466 177.981 70.3669L181.645 72.146C182.475 73.1461 183.625 73.8293 184.9 74.0804C185.294 74.1143 185.688 74.0152 186.02 73.7989C186.351 73.5827 186.6 73.2618 186.728 72.8873L186.997 72.146C187.095 71.8688 187.125 71.5722 187.084 71.281C187.043 70.9898 186.934 70.7126 186.764 70.4728L184.293 67.0416C183.704 66.2267 182.842 65.6505 181.864 65.4178Z" fill="#263238"/>
<path d="M184.356 70.4727C184.095 69.4914 184.737 66.0461 185.464 65.4177C186.192 64.7894 186.135 66.9145 186.283 67.7334C186.65 69.7314 187.476 71.2634 186.813 72.5978C186.347 73.5226 184.801 72.1812 184.356 70.4727Z" fill="#263238"/>
<path d="M201.483 55.9573C201.166 61.563 201.152 70.7833 201.978 86.04L227.676 86.8801C228.304 77.3068 228.919 71.0587 234.432 54.03C234.678 53.2844 234.76 52.4944 234.671 51.7144C234.582 50.9344 234.325 50.1829 233.918 49.5118C233.51 48.8407 232.962 48.2659 232.311 47.8271C231.66 47.3882 230.922 47.0958 230.147 46.97C228.735 46.744 227.175 46.5393 225.593 46.4122C221.718 46.0034 217.817 45.876 213.923 46.031C212.864 46.0945 211.77 46.1863 210.704 46.2922C208.267 46.5394 205.999 47.6493 204.308 49.4215C202.617 51.1937 201.616 53.5116 201.483 55.9573Z" fill="#4157FF"/>
<path d="M213.923 46.0523C213.923 46.0523 210.266 46.6453 213.154 54.4537C217.763 52.5771 221.982 49.8572 225.594 46.4335L213.923 46.0523Z" fill="white"/>
<path d="M223.346 61.4424C223.715 59.5241 222.63 57.7027 220.922 57.3742C219.215 57.0456 217.531 58.3344 217.162 60.2526C216.793 62.1709 217.878 63.9923 219.586 64.3209C221.294 64.6494 222.977 63.3607 223.346 61.4424Z" fill="white"/>
<path opacity="0.2" d="M229.343 56.7974C229.018 60.6875 228.757 67.3521 229.561 71.5316C230.14 68.75 230.917 65.6365 231.997 61.9018L229.343 56.7974Z" fill="black"/>
<path d="M225.848 33.1112C224.711 36.8813 223.236 43.8142 225.594 46.4334C225.594 46.4334 221.675 49.674 213.733 53.0063C210.718 46.9206 213.924 46.0522 213.924 46.0522C218.223 45.1768 218.449 42.0351 218.033 39.0628L225.848 33.1112Z" fill="#FFC3BD"/>
<path opacity="0.2" d="M223.687 36.0411L218.039 39.0557C218.146 39.7565 218.193 40.465 218.181 41.1737C219.395 41.1737 222.48 40.1218 223.56 38.1027C223.845 37.4522 223.89 36.7217 223.687 36.0411Z" fill="black"/>
<path d="M229.9 25.2394C229.194 31.5298 229.06 34.2056 225.72 37.2908C220.701 41.9292 213.125 39.7124 211.918 33.3513C210.831 27.6186 212.137 18.2994 218.427 16.0826C219.812 15.5869 221.301 15.4535 222.751 15.695C224.202 15.9365 225.567 16.5449 226.717 17.4624C227.866 18.3798 228.762 19.576 229.319 20.9371C229.876 22.2982 230.076 23.7792 229.9 25.2394Z" fill="#FFC3BD"/>
<path d="M221.266 16.7037C216.931 19.203 226.258 28.8964 228.616 28.7693C232.619 26.4113 232.682 21.5751 230.451 19.2665C228.22 16.9579 226.597 13.6468 221.266 16.7037Z" fill="#263238"/>
<path d="M225.311 34.6928C225.212 34.6917 225.116 34.6535 225.042 34.5857C224.969 34.5179 224.924 34.4253 224.915 34.3258C224.906 34.2264 224.935 34.1272 224.995 34.0476C225.055 33.968 225.143 33.9136 225.241 33.895C228.065 33.4078 229.816 32.483 230.225 31.3322C230.318 30.9069 230.297 30.4649 230.166 30.0499C230.035 29.635 229.797 29.2617 229.477 28.9671C229.354 28.821 229.202 28.7022 229.031 28.6183C228.859 28.5345 228.672 28.4873 228.481 28.48C226.801 28.367 224.422 30.4991 223.539 31.304L223.356 31.4663C223.275 31.5351 223.17 31.5693 223.065 31.5613C222.959 31.5534 222.861 31.504 222.791 31.424C222.757 31.3846 222.731 31.3389 222.715 31.2895C222.699 31.2402 222.693 31.1881 222.697 31.1363C222.701 31.0845 222.715 31.034 222.738 30.9877C222.762 30.9413 222.794 30.9001 222.833 30.8662L223.01 30.7039C224.069 29.7649 226.54 27.548 228.552 27.6822C228.848 27.6954 229.137 27.7693 229.403 27.8993C229.669 28.0292 229.906 28.2125 230.098 28.4376C231.023 29.4895 231.341 30.6121 230.995 31.6005C230.472 33.0831 228.594 34.1209 225.403 34.6857L225.311 34.6928Z" fill="#FFA41B"/>
<path d="M225.954 16.2237C229.032 17.6357 214.891 17.7063 211.975 21.427C214.404 17.7275 218.018 12.5314 225.954 16.2237Z" fill="#263238"/>
<path d="M201.978 86.04C201.978 86.04 188.726 142.421 189.905 156.873C191.317 173.768 218.527 198.019 218.527 198.019L226.293 189.547C226.293 189.547 209.864 170.986 203.595 156.456C205.628 141.934 223.814 100.57 223.045 86.7319L201.978 86.04Z" fill="#090F47"/>
<path d="M227.93 190.57L218.632 198.937L215.893 197.221L226.053 187.57L227.93 190.57Z" fill="#4F4F4F"/>
<path opacity="0.3" d="M212.243 110.362C204.795 120.676 204.435 139.647 204.901 150.3C207.456 140.508 212.928 126.169 217.192 113.002C217.093 107.94 215.724 105.511 212.243 110.362Z" fill="#4F4F4F"/>
<path d="M206.779 85.8212C206.779 85.8212 211.989 134.662 213.648 151.352C215.611 171.17 218.491 202.94 218.491 202.94L228.029 202.544C228.029 202.544 230.147 175.61 228.566 157.861C228.848 134.309 232.964 101.445 227.676 86.8944L206.779 85.8212Z" fill="#090F47"/>
<path d="M228.749 204.274L217.813 203.963L217.051 200.525L229.42 200.179L228.749 204.274Z" fill="#4F4F4F"/>
<path d="M219.614 26.6867C219.614 27.202 219.296 27.6045 218.964 27.5903C218.633 27.5762 218.371 27.1456 218.4 26.6302C218.428 26.1148 218.717 25.7124 219.049 25.7336C219.381 25.7547 219.635 26.1783 219.614 26.6867Z" fill="#263238"/>
<path d="M213.81 26.4394C213.81 26.9477 213.493 27.3501 213.161 27.336C212.829 27.3219 212.568 26.8912 212.596 26.3758C212.624 25.8605 212.914 25.4651 213.245 25.4792C213.577 25.4933 213.831 25.9028 213.81 26.4394Z" fill="#263238"/>
<path d="M213.394 25.4934L212.18 25.0768C212.18 25.0768 212.766 26.0723 213.394 25.4934Z" fill="#263238"/>
<path d="M215.554 27.2796C215.042 28.4291 214.374 29.5028 213.57 30.4708C213.823 30.67 214.117 30.8118 214.43 30.8862C214.743 30.9605 215.069 30.9658 215.385 30.9014L215.554 27.2796Z" fill="#ED847E"/>
<path d="M218.336 32.9277C218.05 32.9565 217.761 32.9565 217.475 32.9277C217.456 32.9277 217.436 32.9239 217.418 32.9164C217.4 32.9089 217.384 32.898 217.37 32.8843C217.356 32.8705 217.345 32.8542 217.338 32.8362C217.331 32.8182 217.327 32.7989 217.327 32.7794C217.327 32.76 217.331 32.7407 217.338 32.7227C217.345 32.7047 217.356 32.6884 217.37 32.6746C217.384 32.6608 217.4 32.6499 217.418 32.6424C217.436 32.635 217.456 32.6312 217.475 32.6312C218.111 32.6775 218.749 32.5738 219.337 32.3286C219.926 32.0833 220.449 31.7033 220.864 31.2192C220.875 31.2026 220.89 31.1884 220.906 31.1776C220.923 31.1667 220.942 31.1594 220.962 31.1561C220.982 31.1528 221.002 31.1536 221.022 31.1584C221.041 31.1631 221.06 31.1718 221.076 31.1839C221.102 31.2126 221.117 31.2505 221.117 31.2898C221.117 31.3291 221.102 31.3669 221.076 31.3957C220.392 32.2383 219.412 32.7866 218.336 32.9277Z" fill="#263238"/>
<path d="M231.044 30.986C230.385 32.0179 229.344 32.7465 228.149 33.0122C226.568 33.3511 225.876 31.9108 226.398 30.4635C226.864 29.1645 228.255 27.4207 229.808 27.7313C230.146 27.8045 230.461 27.9611 230.723 28.1867C230.985 28.4123 231.187 28.6999 231.31 29.0233C231.432 29.3467 231.472 29.6956 231.426 30.0384C231.38 30.3811 231.248 30.7069 231.044 30.986Z" fill="#FFC3BD"/>
<path d="M221.273 24.8864C221.2 24.8496 221.145 24.7865 221.118 24.7099C221.021 24.3435 220.839 24.0051 220.586 23.7228C220.333 23.4405 220.017 23.2223 219.663 23.0861C219.587 23.0632 219.522 23.0111 219.484 22.9411C219.446 22.871 219.437 22.7887 219.458 22.712C219.469 22.6736 219.487 22.6377 219.512 22.6065C219.536 22.5752 219.567 22.5493 219.602 22.5302C219.637 22.5111 219.675 22.4992 219.715 22.4953C219.755 22.4913 219.795 22.4954 219.833 22.5072C220.283 22.6701 220.688 22.9394 221.013 23.2921C221.337 23.6449 221.572 24.0707 221.696 24.5334C221.708 24.5714 221.712 24.6114 221.708 24.651C221.704 24.6906 221.693 24.729 221.673 24.764C221.654 24.7989 221.628 24.8296 221.597 24.8543C221.566 24.879 221.53 24.8971 221.492 24.9076C221.456 24.9202 221.418 24.9248 221.38 24.9212C221.342 24.9175 221.306 24.9057 221.273 24.8864Z" fill="#263238"/>
<path d="M211.813 23.7568C211.735 23.7654 211.657 23.7453 211.594 23.7003C211.529 23.6524 211.486 23.581 211.474 23.5016C211.463 23.4222 211.483 23.3414 211.53 23.2767C211.807 22.8852 212.173 22.5652 212.597 22.343C213.022 22.1208 213.494 22.0028 213.973 21.9988C214.013 22.0006 214.051 22.0103 214.087 22.0274C214.123 22.0444 214.155 22.0684 214.181 22.0981C214.208 22.1277 214.228 22.1623 214.24 22.1998C214.253 22.2373 214.258 22.277 214.255 22.3165C214.254 22.3564 214.244 22.3956 214.227 22.4317C214.21 22.4678 214.186 22.5003 214.157 22.5272C214.127 22.5541 214.093 22.5749 214.055 22.5884C214.017 22.6019 213.978 22.6079 213.938 22.606C213.558 22.6112 213.186 22.7076 212.852 22.887C212.517 23.0664 212.231 23.3235 212.017 23.6368C211.968 23.7023 211.894 23.7454 211.813 23.7568Z" fill="#263238"/>
<path d="M216.444 223.413C216.369 223.314 216.318 223.198 216.295 223.076C216.271 222.954 216.277 222.827 216.31 222.707C216.323 222.614 216.36 222.525 216.417 222.45C216.474 222.375 216.549 222.315 216.635 222.277C217.404 221.938 219.254 223.173 219.459 223.315C219.482 223.331 219.5 223.354 219.51 223.38C219.52 223.406 219.522 223.435 219.515 223.463C219.509 223.493 219.494 223.521 219.473 223.543C219.452 223.565 219.425 223.582 219.395 223.59C218.555 223.788 217.065 224.049 216.501 223.505C216.476 223.479 216.457 223.447 216.444 223.413ZM218.979 223.357C218.223 222.884 217.143 222.354 216.741 222.531C216.703 222.547 216.67 222.573 216.646 222.607C216.622 222.641 216.609 222.68 216.606 222.721C216.575 222.813 216.569 222.911 216.589 223.005C216.609 223.1 216.654 223.187 216.719 223.258C217.023 223.533 217.856 223.569 218.979 223.343V223.357Z" fill="#FFA41B"/>
<path d="M218.534 222.835C218.08 222.376 217.826 221.757 217.828 221.112C217.86 220.993 217.929 220.887 218.026 220.811C218.123 220.735 218.241 220.692 218.364 220.688C218.477 220.668 218.594 220.675 218.703 220.709C218.813 220.744 218.912 220.804 218.993 220.886C219.635 221.493 219.529 223.329 219.522 223.406C219.519 223.433 219.509 223.458 219.494 223.48C219.48 223.502 219.46 223.52 219.438 223.533C219.415 223.546 219.389 223.552 219.363 223.552C219.338 223.552 219.312 223.546 219.289 223.533C219.002 223.343 218.746 223.107 218.534 222.835ZM218.837 221.182L218.774 221.112C218.723 221.061 218.661 221.022 218.592 221C218.523 220.978 218.45 220.973 218.379 220.985C218.188 220.985 218.139 221.098 218.117 221.168C218.004 221.606 218.654 222.637 219.233 223.117C219.28 222.448 219.143 221.779 218.837 221.182Z" fill="#FFA41B"/>
<path d="M228.22 85.3694L228.63 87.7133C228.7 87.8969 228.467 88.0734 228.171 88.0663L201.724 87.205C201.491 87.205 201.314 87.0709 201.314 86.9297V84.5928C201.314 84.4304 201.526 84.3034 201.78 84.3104L227.811 85.1576C227.892 85.1505 227.974 85.1666 228.046 85.2041C228.119 85.2416 228.179 85.299 228.22 85.3694Z" fill="white"/>
<path d="M224.422 88.1934H225.128C225.269 88.1934 225.382 88.1228 225.382 88.038V85.0375C225.382 84.9528 225.269 84.8751 225.128 84.8681H224.422C224.281 84.8681 224.168 84.9316 224.168 85.0234V88.0522C224.168 88.1157 224.281 88.1934 224.422 88.1934Z" fill="#FFA41B"/>
<path opacity="0.4" d="M224.422 88.1934H225.128C225.269 88.1934 225.382 88.1228 225.382 88.038V85.0375C225.382 84.9528 225.269 84.8751 225.128 84.8681H224.422C224.281 84.8681 224.168 84.9316 224.168 85.0234V88.0522C224.168 88.1157 224.281 88.1934 224.422 88.1934Z" fill="white"/>
<path d="M203.665 87.5155H204.371C204.512 87.5155 204.625 87.4449 204.625 87.3602V84.3315C204.625 84.2397 204.512 84.162 204.371 84.162H203.665C203.524 84.162 203.411 84.2256 203.411 84.3174V87.3461C203.411 87.4379 203.51 87.5155 203.665 87.5155Z" fill="#FFA41B"/>
<path opacity="0.4" d="M203.665 87.5155H204.371C204.512 87.5155 204.625 87.4449 204.625 87.3602V84.3315C204.625 84.2397 204.512 84.162 204.371 84.162H203.665C203.524 84.162 203.411 84.2256 203.411 84.3174V87.3461C203.411 87.4379 203.51 87.5155 203.665 87.5155Z" fill="white"/>
<path d="M214.043 87.8616H214.749C214.891 87.8616 215.004 87.791 215.004 87.7063V84.6775C215.004 84.5858 214.891 84.5081 214.749 84.5081H214.043C213.902 84.5081 213.789 84.5716 213.789 84.6634V87.6922C213.789 87.7769 213.902 87.8616 214.043 87.8616Z" fill="#FFA41B"/>
<path opacity="0.4" d="M214.043 87.8616H214.749C214.891 87.8616 215.004 87.791 215.004 87.7063V84.6775C215.004 84.5858 214.891 84.5081 214.749 84.5081H214.043C213.902 84.5081 213.789 84.5716 213.789 84.6634V87.6922C213.789 87.7769 213.902 87.8616 214.043 87.8616Z" fill="white"/>
<path d="M234.489 50.8881C235.456 55.0041 236.226 59.0565 236.826 63.2219C237.123 65.3399 237.405 67.3944 237.574 69.5265C237.782 71.7275 237.838 73.9401 237.744 76.1488C237.701 76.7418 237.645 77.3419 237.546 77.9844C237.504 78.3021 237.426 78.648 237.363 78.9799L237.214 79.5376C237.151 79.7782 237.07 80.014 236.974 80.2436C236.701 80.9157 236.281 81.5185 235.746 82.0086C235.309 82.4042 234.813 82.7304 234.277 82.9758C233.512 83.314 232.696 83.5262 231.863 83.6042C230.616 83.7148 229.361 83.684 228.121 83.5124C227.012 83.3683 225.912 83.1656 224.824 82.9052C220.695 81.8875 216.675 80.4688 212.822 78.6692C212.42 78.4879 212.1 78.1644 211.922 77.7609C211.745 77.3575 211.722 76.9026 211.86 76.4839C211.997 76.0651 212.285 75.7119 212.667 75.4924C213.049 75.2728 213.499 75.2024 213.93 75.2945H213.987C217.905 76.1276 221.929 76.9254 225.777 77.3561C226.73 77.462 227.683 77.5255 228.601 77.5467C229.402 77.5816 230.205 77.5295 230.994 77.3914C231.185 77.364 231.368 77.2966 231.531 77.1937C231.531 77.1937 231.46 77.1937 231.34 77.3066C231.178 77.4423 231.05 77.6139 230.966 77.8079C230.903 77.9844 230.966 77.8079 230.966 77.8079V77.6173L231.03 77.1019C231.03 76.7207 231.072 76.3041 231.079 75.8664C231.045 73.977 230.901 72.0912 230.649 70.2184C230.394 68.2628 230.119 66.293 229.773 64.3162C229.067 60.3768 228.298 56.3667 227.479 52.4696V52.4272C227.31 51.5126 227.503 50.5684 228.017 49.7932C228.53 49.0179 229.325 48.4719 230.232 48.2698C231.14 48.0678 232.091 48.2255 232.884 48.7099C233.678 49.1942 234.254 49.9674 234.489 50.8669V50.8881Z" fill="#4157FF"/>
<path d="M208.798 70.3034L206.645 69.9362C206.48 69.9091 206.311 69.9151 206.148 69.9538C205.985 69.9925 205.832 70.0632 205.696 70.1617C205.561 70.2602 205.447 70.3846 205.36 70.5277C205.273 70.6708 205.216 70.8297 205.191 70.9952L204.718 74.1864C204.677 74.4657 204.731 74.7506 204.872 74.9952C205.013 75.2399 205.232 75.4299 205.494 75.5348L209.271 77.0598C209.271 77.0598 212.378 79.4884 214.842 78.3376V75.7042L211.749 71.9907C210.996 71.097 209.951 70.4991 208.798 70.3034Z" fill="#263238"/>
<path d="M219.197 25.7689L217.983 25.3524C217.983 25.3524 218.569 26.3478 219.197 25.7689Z" fill="#263238"/>
<path d="M224.302 31.2475L225.481 33.7256C225.564 33.8888 225.596 34.0734 225.572 34.2551C225.431 35.5965 227.733 40.7856 215.088 40.2067C211.375 40.0302 210.93 32.9419 211.311 30.711C211.338 30.5259 211.42 30.3532 211.546 30.2148C211.671 30.0765 211.836 29.9788 212.017 29.9344L214.742 29.3413C214.855 29.3237 214.969 29.3237 215.081 29.3413L223.596 30.7533C223.745 30.7722 223.887 30.8271 224.01 30.9132C224.133 30.9993 224.233 31.114 224.302 31.2475Z" fill="white"/>
</g>
<defs>
<linearGradient id="paint0_linear_1_133" x1="145.5" y1="-100.098" x2="145.5" y2="239.902" gradientUnits="userSpaceOnUse">
<stop stop-color="#73B2FF"/>
<stop offset="1" stop-color="#4D61FF"/>
</linearGradient>
</defs>
</svg>
