<svg width="24" height="24" viewBox="0 0 24 24" fill="none" xmlns="http://www.w3.org/2000/svg">
<path d="M7.56 3.10199C9.37 3.10199 10.99 3.98199 12 5.33199C12.5159 4.6408 13.1857 4.07938 13.9565 3.69228C14.7272 3.30519 15.5775 3.10308 16.44 3.10199C19.51 3.10199 22 5.60199 22 8.69199C22 10.662 21.49 12.402 20.69 13.912C20.242 13.4356 19.7013 13.0558 19.1011 12.7962C18.5009 12.5365 17.854 12.4023 17.2 12.402C14.55 12.402 12.4 14.552 12.4 17.202C12.4 18.432 12.87 19.552 13.63 20.402C13.26 20.572 12.92 20.712 12.62 20.812C12.28 20.932 11.72 20.932 11.38 20.812C8.48 19.822 2 15.692 2 8.69199C2 7.14199 2.62 5.74199 3.63 4.73199" stroke="white" stroke-width="1.5" stroke-linecap="round" stroke-linejoin="round"/>
<path d="M22 17.198C22 18.098 21.75 18.948 21.3 19.668C20.8772 20.3785 20.277 20.9669 19.5582 21.3754C18.8394 21.7839 18.0268 21.9984 17.2 21.998C15.45 21.998 13.92 21.058 13.1 19.668C12.66 18.948 12.4 18.098 12.4 17.198C12.4256 15.9419 12.9426 14.746 13.84 13.8667C14.7374 12.9875 15.9437 12.495 17.2 12.495C18.4563 12.495 19.6626 12.9875 20.56 13.8667C21.4574 14.746 21.9744 15.9419 22 17.198V17.198Z" stroke="white" stroke-width="1.5" stroke-miterlimit="10" stroke-linecap="round" stroke-linejoin="round"/>
<path d="M15.33 17.2L16.51 18.38L19.07 16.02" stroke="white" stroke-width="1.5" stroke-linecap="round" stroke-linejoin="round"/>
</svg>
