<svg width="27" height="20" viewBox="0 0 27 20" fill="none" xmlns="http://www.w3.org/2000/svg">
<path d="M4.00442 0.00012207C4.00371 0.00012207 4.00292 0.00012207 4.00222 0.00012207C3.75462 0.00012207 3.52175 0.0966386 3.3459 0.272043C3.16812 0.449387 3.07019 0.685522 3.07019 0.936906V14.9838C3.07019 15.4989 3.4909 15.919 4.00812 15.9203C6.1886 15.9255 9.84178 16.38 12.362 19.0173V4.31684C12.362 4.14223 12.3174 3.97819 12.2332 3.84245C10.1647 0.511352 6.18984 0.00523437 4.00442 0.00012207Z" fill="#858EA9"/>
<path d="M23.1081 14.9838V0.936784C23.1081 0.6854 23.0102 0.449265 22.8324 0.271921C22.6565 0.0965165 22.4235 0 22.1762 0C22.1754 0 22.1746 0 22.1739 0C19.9885 0.00520044 16.0136 0.511318 13.9451 3.84242C13.8609 3.97816 13.8164 4.14219 13.8164 4.3168V19.0172C16.3366 16.3799 19.9898 15.9254 22.1702 15.9202C22.6874 15.9189 23.1081 15.4988 23.1081 14.9838Z" fill="#858EA9"/>
<path d="M25.2418 3.2395H24.5626V14.9838C24.5626 16.2989 23.491 17.3714 22.1738 17.3746C20.3243 17.3791 17.2748 17.7407 15.115 19.7848C18.8503 18.8703 22.788 19.4648 25.0321 19.9762C25.3123 20.04 25.6019 19.9741 25.8264 19.7951C26.0501 19.6167 26.1784 19.3498 26.1784 19.0635V4.17611C26.1785 3.65968 25.7583 3.2395 25.2418 3.2395Z" fill="#858EA9"/>
<path d="M1.61584 14.9838V3.2395H0.936608C0.420266 3.2395 0 3.65968 0 4.17611V19.0632C0 19.3497 0.128336 19.6164 0.352043 19.7949C0.576367 19.9737 0.865653 20.0399 1.1463 19.9759C3.39042 19.4644 7.32821 18.87 11.0634 19.7846C8.90368 17.7405 5.85411 17.379 4.0046 17.3746C2.68748 17.3714 1.61584 16.2989 1.61584 14.9838Z" fill="#858EA9"/>
</svg>
