<svg width="19" height="18" viewBox="0 0 19 18" fill="none" xmlns="http://www.w3.org/2000/svg">
<path d="M9.33675 0C4.18826 0 0 4.0372 0 9C0 13.9628 4.18826 18 9.33675 18C14.4852 18 18.6735 13.9628 18.6735 9C18.6735 4.0372 14.4852 0 9.33675 0ZM9.33675 14.25C8.90721 14.25 8.55874 13.914 8.55874 13.5C8.55874 13.086 8.90721 12.75 9.33675 12.75C9.76629 12.75 10.1148 13.086 10.1148 13.5C10.1148 13.914 9.76629 14.25 9.33675 14.25ZM10.5684 9.48148C10.293 9.6037 10.1148 9.87149 10.1148 10.1633V10.5C10.1148 10.914 9.76701 11.25 9.33675 11.25C8.9065 11.25 8.55874 10.914 8.55874 10.5V10.1633C8.55874 9.28798 9.09242 8.48557 9.91645 8.11876C10.7093 7.76706 11.2819 6.83322 11.2819 6.37495C11.2819 5.34155 10.4097 4.5 9.33675 4.5C8.26383 4.5 7.39164 5.34155 7.39164 6.37495C7.39164 6.789 7.04374 7.12505 6.61349 7.12505C6.18323 7.12505 5.83547 6.789 5.83547 6.37495C5.83547 4.51428 7.40632 2.99995 9.33675 2.99995C11.2672 2.99995 12.838 4.51428 12.838 6.37495C12.838 7.38831 11.9261 8.87778 10.5684 9.48148Z" fill="black"/>
</svg>
