<svg width="19" height="20" viewBox="0 0 19 20" fill="none" xmlns="http://www.w3.org/2000/svg">
<path d="M15.0176 0.561917C14.8096 0.215313 14.4222 0 14.007 0H9.66667V4.94678H17.6497L15.0176 0.561917Z" fill="black"/>
<path d="M8.44949 0H4.06823C3.65212 0 3.26483 0.215704 3.05677 0.563088L0.434382 4.94678H8.44944V0H8.44949Z" fill="black"/>
<path d="M0 6.119V18.6218C0 19.3818 0.642006 20 1.43081 20H16.6458C17.4346 20 18.0766 19.3818 18.0766 18.6218V6.119H0ZM11.7998 11.3768L8.65342 14.4085C8.5346 14.5229 8.37884 14.5804 8.22312 14.5804C8.0674 14.5804 7.91164 14.5229 7.79322 14.4085L6.31822 12.9876C6.08098 12.759 6.08098 12.3877 6.31822 12.1588C6.55587 11.9298 6.94117 11.9298 7.17882 12.1588L8.22316 13.1654L10.9396 10.548C11.1773 10.319 11.5626 10.319 11.7998 10.548C12.0375 10.777 12.0375 11.1479 11.7998 11.3768Z" fill="black"/>
</svg>
