<svg width="17" height="15" viewBox="0 0 17 15" fill="none" xmlns="http://www.w3.org/2000/svg">
<path d="M6.18249 3.82383L8.38228 7.89836L10.5822 3.82389C10.7664 3.48275 11.0378 3.10026 11.3749 2.83601L10.375 1.56033L11.3749 2.836C11.6827 2.59474 11.977 2.5 12.3116 2.5C13.2521 2.5 14.2647 3.25724 14.2647 4.89538C14.2647 5.64445 14.0015 6.37204 13.1832 7.37279C12.3015 8.45108 10.9916 9.59329 9.12683 11.2039L9.1268 11.2039L9.12297 11.2072C8.88863 11.4096 8.64056 11.6239 8.38235 11.8478C8.12458 11.6242 7.87694 11.4103 7.64305 11.2083L7.63832 11.2042L7.63827 11.2042C5.77332 9.59345 4.46327 8.45115 3.58153 7.37282C2.76318 6.37202 2.5 5.64443 2.5 4.89538C2.5 3.25725 3.51265 2.5 4.45312 2.5C4.78773 2.5 5.08199 2.59474 5.38978 2.836L5.38979 2.83601C5.72694 3.10028 5.99834 3.48275 6.18249 3.82383ZM9.69569 12.9978C9.6952 12.9974 9.69471 12.997 9.69422 12.9965L9.69569 12.9978Z" stroke="#FB0000" stroke-width="5"/>
</svg>
