<svg width="11" height="11" viewBox="0 0 11 11" fill="none" xmlns="http://www.w3.org/2000/svg">
<path d="M6.1449 5.50285L10.8601 0.787611C11.0421 0.611851 11.0472 0.321851 10.8714 0.139862C10.6956 -0.0421257 10.4057 -0.047172 10.2237 0.128589C10.2198 0.132266 10.2161 0.136024 10.2124 0.139862L5.49712 4.8551L0.781885 0.139836C0.599897 -0.0359252 0.309897 -0.0308789 0.134136 0.151109C-0.0373304 0.328642 -0.0373304 0.610079 0.134136 0.787611L4.84937 5.50285L0.134136 10.2181C-0.0447119 10.397 -0.0447119 10.687 0.134136 10.8658C0.31301 11.0447 0.60301 11.0447 0.781885 10.8658L5.49712 6.1506L10.2124 10.8658C10.3944 11.0416 10.6843 11.0366 10.8601 10.8546C11.0315 10.677 11.0315 10.3956 10.8601 10.2181L6.1449 5.50285Z" fill="#677294"/>
</svg>
