<svg width="258" height="220" viewBox="0 0 258 220" fill="none" xmlns="http://www.w3.org/2000/svg">
<mask id="mask0_1_313" style="mask-type:alpha" maskUnits="userSpaceOnUse" x="0" y="-39" width="258" height="259">
<circle cx="129" cy="90.5972" r="129" fill="#4157FF"/>
</mask>
<g mask="url(#mask0_1_313)">
<path d="M115.977 228.934H-40.3348C-41.5593 228.932 -42.733 228.444 -43.5981 227.577C-44.4632 226.711 -44.9491 225.536 -44.9491 224.312V4.58192C-44.9384 3.36441 -44.4478 2.20027 -43.5839 1.34237C-42.7199 0.484468 -41.5523 0.00208565 -40.3348 0H115.977C117.203 0 118.378 0.487001 119.245 1.35387C120.112 2.22074 120.599 3.39646 120.599 4.62239V224.312C120.599 225.538 120.112 226.713 119.245 227.58C118.378 228.447 117.203 228.934 115.977 228.934ZM-40.3348 0.161906C-41.5057 0.16405 -42.6278 0.630674 -43.455 1.45935C-44.2821 2.28804 -44.7467 3.41106 -44.7467 4.58192V224.312C-44.7467 225.482 -44.2821 226.606 -43.455 227.434C-42.6278 228.263 -41.5057 228.729 -40.3348 228.732H115.977C117.148 228.729 118.271 228.263 119.1 227.435C119.928 226.606 120.395 225.483 120.397 224.312V4.58192C120.395 3.41032 119.928 2.28731 119.1 1.45886C118.271 0.630411 117.148 0.164046 115.977 0.161906H-40.3348Z" fill="#EBEBEB"/>
<path d="M291.086 228.934H134.766C133.541 228.932 132.366 228.444 131.5 227.578C130.634 226.711 130.146 225.537 130.144 224.312V4.58192C130.157 3.36367 130.649 2.19955 131.514 1.34186C132.379 0.484185 133.548 0.00206291 134.766 0H291.086C292.302 0.00421318 293.467 0.487536 294.33 1.34521C295.192 2.20289 295.681 3.36581 295.692 4.58192V224.312C295.692 225.535 295.207 226.708 294.344 227.574C293.48 228.441 292.309 228.93 291.086 228.934ZM134.766 0.161906C133.595 0.164046 132.472 0.630411 131.643 1.45886C130.815 2.28731 130.348 3.41032 130.346 4.58192V224.312C130.348 225.483 130.815 226.606 131.643 227.435C132.472 228.263 133.595 228.729 134.766 228.732H291.086C292.257 228.729 293.38 228.263 294.209 227.435C295.037 226.606 295.504 225.483 295.506 224.312V4.58192C295.504 3.41032 295.037 2.28731 294.209 1.45886C293.38 0.630411 292.257 0.164046 291.086 0.161906H134.766Z" fill="#EBEBEB"/>
<path d="M195.82 117.786H196.799V21.3958H195.82V117.786Z" fill="#EBEBEB"/>
<path opacity="0.3" d="M81.24 108.055C81.2396 96.573 77.9484 85.3312 71.7564 75.6614C65.5643 65.9916 56.7306 58.2989 46.3017 53.4944C35.8727 48.6899 24.2852 46.9749 12.9117 48.5524C1.53807 50.1299 -9.14518 54.9339 -17.8729 62.3955C-26.6005 69.857 -33.007 79.6635 -36.3336 90.6535C-39.6602 101.644 -39.7674 113.357 -36.6427 124.406C-33.518 135.455 -27.2922 145.377 -18.7027 152.997C-10.1131 160.617 0.480328 165.616 11.8231 167.402C11.1695 167.886 10.6853 168.564 10.4392 169.34C10.1931 170.115 10.1977 170.949 10.4523 171.721C10.7068 172.494 11.1985 173.167 11.8573 173.644C12.5161 174.121 13.3086 174.379 14.1222 174.38H15.7412L10.3579 265.047H31.8832L26.4998 174.38H28.1674C28.9828 174.382 29.778 174.127 30.4391 173.649C31.1002 173.172 31.5932 172.498 31.8475 171.723C32.1018 170.948 32.1044 170.113 31.8549 169.337C31.6054 168.561 31.1165 167.883 30.4584 167.402C44.6066 165.185 57.4977 157.987 66.8084 147.106C76.1191 136.225 81.2371 122.376 81.24 108.055ZM21.157 158.619C11.1549 158.617 1.378 155.649 -6.93749 150.091C-15.253 144.533 -21.7335 136.634 -25.5597 127.393C-29.3858 118.151 -30.3856 107.983 -28.4328 98.1735C-26.4799 88.364 -21.662 79.3539 -14.5884 72.2825C-7.51478 65.2111 1.4969 60.3961 11.307 58.4464C21.1172 56.4967 31.2852 57.4998 40.5253 61.3289C49.7653 65.158 57.6624 71.6411 63.2179 79.9583C68.7734 88.2756 71.7378 98.0535 71.7362 108.055C71.7362 114.697 70.4278 121.273 67.8857 127.409C65.3437 133.544 61.6178 139.119 56.9209 143.815C52.2239 148.51 46.648 152.234 40.5116 154.774C34.3751 157.314 27.7983 158.621 21.157 158.619Z" fill="#E6E6E6"/>
<path d="M210.076 198.909C202.224 189.348 205.98 172.858 215.322 169.847C224.664 166.835 231.367 158.748 234.418 151.09C237.47 143.432 249.913 127.962 264.808 125.558C279.703 123.153 278.845 119.737 293.854 115.536C308.862 111.334 322.187 125.711 304.507 130.803C286.827 135.895 299.464 158.708 280.934 167.353C262.404 175.999 263.035 186.402 261.327 198.221C259.619 210.04 227.424 220.037 210.076 198.909Z" fill="#EBEBEB"/>
<path d="M208.578 229.735L207.768 229.533C218.592 188.458 243.339 160.95 262.185 145.108C282.601 127.946 300.71 120.393 300.896 120.32L301.204 121.065C301.018 121.137 283.006 128.658 262.678 145.747C243.954 161.517 219.345 188.879 208.578 229.735Z" fill="#FAFAFA"/>
<path d="M189.448 210.558C177.654 204.689 172.408 185.964 179.022 178.25C185.636 170.535 187.303 158.942 186.016 149.6C184.729 140.259 187.635 118.264 199.373 108.412C211.111 98.5598 208.634 95.4593 219.611 83.7374C230.589 72.0154 249.629 80.0621 236.806 94.0427C223.983 108.023 246.828 125.064 235.098 143.116C223.368 161.169 229.301 171.45 233.916 184.402C238.53 197.354 215.548 223.535 189.448 210.558Z" fill="#6FCF97"/>
<path d="M200.369 228.424C189.845 198.334 196.418 162.852 203.801 138.388C211.897 111.496 223.789 89.3878 228.087 86.5788L228.532 87.2507C221.295 92.0269 181.272 171.441 201.146 228.173L200.369 228.424Z" fill="#FAFAFA"/>
<path d="M231.949 218.119H180.892L186.049 265.039H226.792L231.949 218.119Z" fill="#F5F5F5"/>
<path d="M58.339 51.0327C67.795 51.0327 75.4605 43.3671 75.4605 33.9112C75.4605 24.4553 67.795 16.7897 58.339 16.7897C48.8831 16.7897 41.2175 24.4553 41.2175 33.9112C41.2175 43.3671 48.8831 51.0327 58.339 51.0327Z" fill="#263238"/>
<path d="M63.3019 63.0623C54.3971 61.079 45.2657 60.8928 35.9885 61.7347C34.4357 61.8827 32.9664 62.5065 31.7812 63.5206C30.5961 64.5348 29.7528 65.8901 29.3665 67.4014C27.2537 75.9904 23.5865 95.3624 24.1694 124.878L61.61 125.485C62.379 120.223 61.7719 95.8238 68.0862 71.198C68.3346 70.3494 68.4067 69.4589 68.2978 68.5813C68.189 67.7038 67.9016 66.8578 67.4534 66.0956C67.0051 65.3334 66.4055 64.671 65.6916 64.1493C64.9776 63.6276 64.1643 63.2577 63.3019 63.0623Z" fill="#263238"/>
<path d="M40.755 68.3402L41.7426 71.1331C41.7913 71.2692 41.8756 71.3898 41.9866 71.4823C42.0976 71.5748 42.2314 71.636 42.3741 71.6593L43.7988 71.8779C44.0564 71.915 44.319 71.8636 44.5436 71.7322L47.2555 70.1131L44.4869 67.5793L40.755 68.3402Z" fill="#828282"/>
<path d="M43.9289 71.028C43.4045 70.811 42.8322 70.7356 42.2694 70.8094C40.6018 73.6833 37.8737 82.0861 37.1046 85.8343C39.3875 93.5086 40.4156 94.3505 40.4156 94.3505L43.7346 85.5428C43.7346 85.5428 43.2975 76.2657 43.9289 71.028Z" fill="#828282"/>
<path d="M57.7983 44.3541C56.2845 49.3893 54.3497 58.6827 57.5716 62.366C54.5197 64.916 50.5773 67.8384 44.4978 67.6037C38.4182 67.3689 39.8916 63.2646 41.713 61.1841C47.5416 60.2451 47.8169 56.0032 47.2259 51.9555L57.7983 44.3541Z" fill="#FDCE98"/>
<path d="M59.1716 62.0665C58.7668 61.838 58.3412 61.6482 57.9007 61.4998C57.7918 61.4599 57.6729 61.4564 57.5619 61.49C57.4509 61.5236 57.3539 61.5924 57.2854 61.686C56.573 62.6169 54.2173 66.8589 44.4868 67.6036C45.9278 68.6884 47.6359 71.7727 48.3564 73.2703C51.4002 72.0722 59.3983 68.4131 59.4388 62.5603C59.4418 62.4617 59.4187 62.3641 59.3717 62.2774C59.3248 62.1906 59.2558 62.1179 59.1716 62.0665Z" fill="white"/>
<path d="M41.7358 61.4187C41.7659 61.3332 41.7741 61.2415 41.7596 61.1519C41.7451 61.0624 41.7084 60.9779 41.6529 60.9063C41.5973 60.8346 41.5247 60.778 41.4416 60.7417C41.3585 60.7053 41.2676 60.6904 41.1772 60.6982C40.8396 60.7311 40.5043 60.7852 40.1734 60.8601C40.0959 60.8807 40.0221 60.9135 39.9549 60.9573C39.1453 61.5644 34.4177 66.9073 37.5263 71.9345C38.522 70.7607 41.5739 68.154 44.4882 67.6035C41.9787 66.1221 40.9506 63.734 41.7358 61.4187Z" fill="white"/>
<path opacity="0.2" d="M53.4908 47.4544L47.2332 51.9554C47.3882 52.8997 47.456 53.8563 47.4355 54.813C49.6455 54.6592 52.8675 52.4897 53.3289 50.223C53.5474 49.3172 53.6022 48.3796 53.4908 47.4544Z" fill="black"/>
<path d="M62.7493 37.9506C60.515 44.6535 59.5112 48.6769 55.2288 51.4373C48.7526 55.5821 41.2887 50.6764 41.5154 43.5525C41.7097 37.133 45.3283 27.2406 52.614 25.9534C59.8997 24.6663 64.9755 31.2396 62.7493 37.9506Z" fill="#FDCE98"/>
<path d="M60.184 42.6622L56.193 41.0431C56.193 41.0431 60.9692 35.8055 61.2445 32.6321C53.8373 31.4988 43.5239 31.7174 47.7982 24.804C50.6801 20.1493 54.064 20.1573 60.3216 22.2864C70.5864 25.7836 69.2264 34.745 66.9111 39.8531C64.5959 44.9612 60.184 42.6622 60.184 42.6622Z" fill="#263238"/>
<path d="M62.0317 42.6378C61.9804 42.6363 61.9315 42.6162 61.894 42.5811C60.0197 40.8445 57.8181 39.4988 55.4178 38.6226C55.3653 38.6042 55.3222 38.5658 55.2979 38.5157C55.2737 38.4657 55.2702 38.408 55.2883 38.3554C55.2965 38.3297 55.3098 38.3059 55.3274 38.2854C55.3449 38.2649 55.3664 38.2482 55.3905 38.2361C55.4147 38.224 55.441 38.2169 55.4679 38.2151C55.4949 38.2134 55.5219 38.217 55.5474 38.2259C58.004 39.122 60.2577 40.4979 62.1774 42.2735C62.215 42.3127 62.236 42.3649 62.236 42.4192C62.236 42.4735 62.215 42.5258 62.1774 42.565C62.14 42.6071 62.0878 42.6332 62.0317 42.6378Z" fill="white"/>
<path d="M47.4266 44.5726C48.0448 44.7395 48.69 44.7825 49.3249 44.6991C49.9598 44.6158 50.572 44.4077 51.1261 44.0868C51.1607 44.0598 51.1851 44.022 51.1954 43.9793C51.2057 43.9367 51.2013 43.8919 51.1828 43.8521C51.1512 43.8219 51.1092 43.8051 51.0654 43.8051C51.0217 43.8051 50.9797 43.8219 50.9481 43.8521C50.3343 44.1936 49.6508 44.3908 48.9495 44.4287C48.2481 44.4666 47.5474 44.3441 46.9004 44.0707C46.8584 44.0539 46.8116 44.0538 46.7695 44.0704C46.7274 44.0869 46.6932 44.1189 46.6738 44.1597C46.6643 44.1793 46.6589 44.2006 46.6579 44.2223C46.6569 44.2441 46.6602 44.2658 46.6678 44.2862C46.6754 44.3066 46.6869 44.3253 46.7019 44.3411C46.7168 44.3569 46.7348 44.3695 46.7547 44.3783C46.9749 44.4554 47.1992 44.5203 47.4266 44.5726Z" fill="#263238"/>
<path d="M63.1304 45.8355C61.8819 47.1055 60.1982 47.8548 58.419 47.9321C56.0956 47.9888 55.618 45.7869 56.7999 43.8845C57.8928 42.1845 60.4266 40.0959 62.4666 40.9378C64.5066 41.7797 64.6685 44.2569 63.1304 45.8355Z" fill="#FDCE98"/>
<path d="M44.0904 194.424C44.8999 159.185 53.74 125.339 53.74 125.339L24.4999 124.87C24.4999 124.87 26.2889 175.765 26.7989 197.087C27.3251 219.252 63.9643 269.589 63.9643 269.589L73.9943 262.959C73.9943 262.959 44.8757 222.239 44.0904 194.424Z" fill="#828282"/>
<g style="mix-blend-mode:multiply" opacity="0.2">
<path d="M46.7865 144.727C38.1084 156.133 41.1846 177.586 44.1312 192.74C44.7884 175.984 46.7261 159.302 49.9275 142.841L46.7865 144.727Z" fill="black"/>
</g>
<path d="M52.4127 37.3193C52.2589 37.8697 51.8541 38.2583 51.4979 38.1774C51.1418 38.0964 50.9717 37.5945 51.1175 37.0359C51.2632 36.4774 51.676 36.0969 52.0322 36.1778C52.3884 36.2588 52.5584 36.7688 52.4127 37.3193Z" fill="#263238"/>
<path d="M46.0843 36.1454C45.9386 36.6959 45.5257 37.0844 45.1695 37.0035C44.8133 36.9225 44.6514 36.4206 44.7972 35.862C44.9429 35.3035 45.3557 34.923 45.7119 35.0039C46.0681 35.0849 46.2381 35.6192 46.0843 36.1454Z" fill="#263238"/>
<path d="M47.8165 36.793C46.6827 38.1617 45.3766 39.378 43.9308 40.4116C44.6432 41.3668 46.3998 41.3021 46.3998 41.3021L47.8165 36.793Z" fill="#630F0F"/>
<path d="M54.9951 35.7891C55.0502 35.8083 55.1101 35.8083 55.1651 35.7891C55.2458 35.7534 55.3098 35.6884 55.3444 35.6073C55.379 35.5261 55.3814 35.4349 55.3513 35.352C55.1658 34.8708 54.8626 34.4438 54.4695 34.11C54.0763 33.7763 53.6058 33.5464 53.1008 33.4415C53.0124 33.4316 52.9234 33.4553 52.8515 33.5077C52.7796 33.5601 52.7299 33.6376 52.7123 33.7248C52.7016 33.767 52.7 33.811 52.7076 33.8538C52.7152 33.8966 52.7317 33.9374 52.7562 33.9733C52.7807 34.0093 52.8125 34.0397 52.8496 34.0624C52.8867 34.0852 52.9282 34.0998 52.9713 34.1053C53.3686 34.1899 53.7383 34.3728 54.0466 34.6373C54.3549 34.9018 54.592 35.2394 54.7361 35.6191C54.7589 35.669 54.7953 35.7113 54.8411 35.7414C54.8869 35.7715 54.9403 35.788 54.9951 35.7891Z" fill="#263238"/>
<path d="M43.6705 32.9478C43.7192 32.9733 43.7734 32.9867 43.8284 32.9867C43.8834 32.9867 43.9375 32.9733 43.9862 32.9478C44.3277 32.6882 44.7251 32.5121 45.1468 32.4333C45.5684 32.3546 46.0027 32.3756 46.4148 32.4945C46.4998 32.5244 46.5931 32.5211 46.6757 32.485C46.7583 32.4489 46.8242 32.3829 46.86 32.3002C46.877 32.261 46.8859 32.2187 46.8861 32.176C46.8863 32.1332 46.8778 32.0909 46.8612 32.0516C46.8445 32.0122 46.82 31.9766 46.7892 31.947C46.7584 31.9174 46.7219 31.8943 46.6819 31.8792C46.1707 31.7248 45.6304 31.6928 45.1045 31.7856C44.5786 31.8784 44.0818 32.0935 43.6543 32.4135C43.6175 32.4373 43.5857 32.4681 43.5609 32.5043C43.536 32.5404 43.5186 32.5811 43.5096 32.624C43.5005 32.6669 43.5001 32.7111 43.5083 32.7542C43.5164 32.7973 43.5331 32.8383 43.5572 32.8749C43.5876 32.9091 43.6268 32.9343 43.6705 32.9478Z" fill="#263238"/>
<path d="M64.1669 193.938C63.7622 162.367 65.786 137.749 61.6412 125.469L36.9021 125.072C36.9021 125.072 45.5964 174.299 48.0493 195.46C50.5912 217.455 54.7764 269.224 54.7764 269.224L66.0693 269.378C66.0693 269.378 68.7812 218.572 64.1669 193.938Z" fill="#828282"/>
<path d="M58.0962 62.107C54.0081 67.2151 43.2657 74.2499 40.4243 86.5223C37.3319 74.2985 41.509 61.1841 41.509 61.1841C39.2262 61.0141 34.4905 60.8036 31.1633 61.7346C30.1025 62.0402 29.1449 62.629 28.3933 63.4376C27.6417 64.2462 27.1244 65.2443 26.8971 66.3246C24.2387 79.6858 22.8938 93.275 22.8819 106.898C22.8171 132.601 20.7042 172.381 20.7042 172.381C20.7042 172.381 46.7386 173.903 67.2682 171.693C67.3572 152.045 63.2691 118.693 64.3296 109.974C65.6977 98.7624 68.8144 76.8728 70.3606 67.7656C70.5999 66.5001 70.366 65.1908 69.7033 64.0864C69.0407 62.982 67.9955 62.1595 66.7663 61.7751C64.3866 61.1731 61.9144 61.0275 59.4805 61.346C58.937 61.4078 58.4397 61.6812 58.0962 62.107Z" fill="#828282"/>
<path opacity="0.7" d="M58.0882 62.107C54 67.2232 43.2576 74.2499 40.4243 86.5223C37.3319 74.2985 41.509 61.1841 41.509 61.1841C39.2262 61.0141 34.4905 60.8036 31.1633 61.7346C30.1025 62.0402 29.1449 62.629 28.3933 63.4376C27.6417 64.2462 27.1244 65.2443 26.8971 66.3246C24.2387 79.6858 22.8938 93.275 22.8819 106.898C22.8171 132.601 20.7042 172.381 20.7042 172.381C20.7042 172.381 46.7386 173.903 67.2682 171.693C67.3572 152.045 63.2691 118.693 64.3296 109.974C65.6977 98.7543 68.8144 76.8647 70.3606 67.7656C70.6088 66.5409 70.4053 65.2678 69.7878 64.1815C69.1702 63.0952 68.1803 62.2692 67.001 61.856C64.5532 61.2027 62.0016 61.0323 59.4886 61.3541C58.9408 61.4106 58.4375 61.6812 58.0882 62.107Z" fill="white"/>
<path opacity="0.5" d="M39.0715 170.001C37.841 145.003 39.6868 92.6828 39.9863 88.0038H40.4234C40.1239 92.6748 38.2782 144.962 39.5086 169.952L39.0715 170.001Z" fill="#828282"/>
<path d="M38.3678 70.429C35.7854 74.9462 33.3082 79.7224 31.082 84.4419C29.9649 86.8139 28.9206 89.1939 28.022 91.5496C27.5687 92.7234 27.1639 93.8891 26.8158 95.0063C26.5048 95.9682 26.272 96.9536 26.1196 97.9529V98.0177C26.1299 97.9019 26.1299 97.7854 26.1196 97.6696C26.1078 97.3977 26.0753 97.1271 26.0225 96.8601C25.9531 96.5831 25.8611 96.3124 25.7472 96.0506C25.6395 95.8189 25.5122 95.5968 25.3668 95.3867C25.098 94.9819 24.7374 94.6463 24.3144 94.4072C24.0553 94.2939 24.3791 94.4558 24.7515 94.5205C25.784 94.7282 26.8318 94.85 27.8844 94.8848C30.3989 94.9892 32.9171 94.9648 35.4292 94.812C38.0116 94.6501 40.6344 94.4153 43.2492 94.132C44.5606 93.9863 45.8721 93.8163 47.1754 93.6382L49.1345 93.371L50.1059 93.2172L50.5916 93.1444L50.8264 93.1039H50.9478H51.0207H50.8992L50.6645 93.1525L53.0121 103.943L52.7449 103.992H52.5911H52.4859H52.3483H52.0811L51.563 104.049L50.5268 104.162L48.4626 104.381L44.3421 104.777C41.5816 105.036 38.8211 105.255 36.012 105.392C33.203 105.53 30.3454 105.66 27.3663 105.53C25.7185 105.478 24.0778 105.291 22.4606 104.972C21.2818 104.738 20.1423 104.337 19.0768 103.782C18.0491 103.237 17.1622 102.461 16.4863 101.515C15.9706 100.786 15.6097 99.9597 15.4258 99.0863C15.325 98.6454 15.2734 98.1947 15.272 97.7425C15.272 97.5482 15.272 97.2568 15.272 97.1353V96.9572C15.4422 95.2608 15.7674 93.5834 16.2434 91.9463C16.6563 90.4729 17.1096 89.0805 17.5872 87.7205C18.5587 85.0086 19.5948 82.41 20.6634 79.8357C21.732 77.2614 22.8653 74.7438 23.9987 72.2343C25.132 69.7248 26.2977 67.2557 27.512 64.6976L38.3678 70.429Z" fill="#828282"/>
<g opacity="0.7">
<path opacity="0.7" d="M38.3678 70.429C35.7854 74.9462 33.3082 79.7224 31.082 84.4419C29.9649 86.8139 28.9206 89.1939 28.022 91.5496C27.5687 92.7234 27.1639 93.8891 26.8158 95.0063C26.5048 95.9682 26.272 96.9536 26.1196 97.9529V98.0177C26.1299 97.9019 26.1299 97.7854 26.1196 97.6696C26.1078 97.3977 26.0753 97.1271 26.0225 96.8601C25.9531 96.5831 25.8611 96.3124 25.7472 96.0506C25.6395 95.8189 25.5122 95.5968 25.3668 95.3867C25.098 94.9819 24.7374 94.6463 24.3144 94.4072C24.0553 94.2939 24.3791 94.4558 24.7515 94.5205C25.784 94.7282 26.8318 94.85 27.8844 94.8848C30.3989 94.9892 32.9171 94.9648 35.4292 94.812C38.0116 94.6501 40.6344 94.4153 43.2492 94.132C44.5606 93.9863 45.8721 93.8163 47.1754 93.6382L49.1345 93.371L50.1059 93.2172L50.5916 93.1444L50.8264 93.1039H50.9478H51.0207H50.8992L50.6645 93.1525L53.0121 103.943L52.7449 103.992H52.5911H52.4859H52.3483H52.0811L51.563 104.049L50.5268 104.162L48.4626 104.381L44.3421 104.777C41.5816 105.036 38.8211 105.255 36.012 105.392C33.203 105.53 30.3454 105.66 27.3663 105.53C25.7185 105.478 24.0778 105.291 22.4606 104.972C21.2818 104.738 20.1423 104.337 19.0768 103.782C18.0491 103.237 17.1622 102.461 16.4863 101.515C15.9706 100.786 15.6097 99.9597 15.4258 99.0863C15.325 98.6454 15.2734 98.1947 15.272 97.7425C15.272 97.5482 15.272 97.2568 15.272 97.1353V96.9572C15.4422 95.2608 15.7674 93.5834 16.2434 91.9463C16.6563 90.4729 17.1096 89.0805 17.5872 87.7205C18.5587 85.0086 19.5948 82.41 20.6634 79.8357C21.732 77.2614 22.8653 74.7438 23.9987 72.2343C25.132 69.7248 26.2977 67.2557 27.512 64.6976L38.3678 70.429Z" fill="white"/>
</g>
<path d="M31.0737 94.1805L25.7875 89.129L22.1932 96.6414C22.1932 96.6414 27.4875 100.689 29.8837 98.2605L31.0737 94.1805Z" fill="#FDCE98"/>
<path d="M50.4047 96.7547L55.2618 91.2742L59.4552 98.479C59.4552 98.479 54.5171 102.931 51.9428 100.746L50.4047 96.7547Z" fill="#FDCE98"/>
<path d="M62.5481 90.6185L63.5843 93.4275C63.7815 93.9879 63.7832 94.5985 63.5892 95.16C63.3951 95.7215 63.0168 96.2008 62.5157 96.5199L59.4719 98.479L55.2786 91.2742L59.3748 89.3637C59.6628 89.2197 59.9779 89.138 60.2996 89.124C60.6212 89.11 60.9422 89.164 61.2417 89.2824C61.5411 89.4008 61.8122 89.5809 62.0373 89.8112C62.2624 90.0414 62.4365 90.3165 62.5481 90.6185Z" fill="#FDCE98"/>
<path d="M18.4791 89.0479L17.6696 91.9217C17.5216 92.4964 17.5722 93.1042 17.8132 93.6465C18.0542 94.1888 18.4715 94.6337 18.9972 94.9089L22.2353 96.617L25.8296 89.1046L21.5796 87.5341C21.2784 87.4073 20.9536 87.3464 20.6269 87.3555C20.3002 87.3646 19.9793 87.4435 19.6856 87.5869C19.3919 87.7303 19.1323 87.9349 18.9242 88.1869C18.7161 88.4388 18.5644 88.7324 18.4791 89.0479Z" fill="#FDCE98"/>
<path d="M70.3691 66.5919C70.6605 68.1623 70.8871 69.5628 71.1219 71.0443C71.3567 72.5257 71.5591 73.9747 71.7372 75.4481C72.1176 78.3948 72.4333 81.3576 72.5872 84.4095C72.7873 87.5937 72.7197 90.7891 72.3848 93.962C72.1749 95.9086 71.6926 97.8162 70.9519 99.6286C70.7205 100.187 70.4499 100.728 70.1424 101.248C69.9481 101.539 69.7781 101.814 69.5433 102.114L69.3733 102.332C69.3068 102.426 69.2338 102.516 69.1548 102.6C68.9311 102.858 68.6904 103.102 68.4343 103.328C67.7111 103.947 66.8905 104.442 66.0057 104.793C65.4215 105.031 64.8209 105.226 64.2086 105.376C62.4448 105.764 60.6469 105.975 58.8414 106.008C57.2223 106.056 55.6923 106.008 54.1785 105.959C51.1509 105.838 48.2204 105.546 45.2737 105.255C42.3271 104.963 39.4775 104.591 36.6037 104.186C33.7299 103.782 30.8965 103.377 27.9661 102.915L29.9656 92.0515C32.6289 92.602 35.4218 93.0715 38.1661 93.5167C40.9104 93.962 43.679 94.3262 46.4233 94.6258C49.1676 94.9253 51.9038 95.1439 54.5671 95.2572C55.8866 95.2977 57.1981 95.3139 58.4285 95.2572C59.4685 95.2391 60.5041 95.1198 61.5209 94.901C61.6505 94.901 61.7881 94.812 61.7476 94.812C61.5405 94.9092 61.3494 95.0375 61.1809 95.1924C61.055 95.2981 60.9385 95.4146 60.8328 95.5405C60.76 95.6377 60.8328 95.5891 60.7762 95.6053C60.7762 95.6053 60.8328 95.4839 60.8814 95.3462C61.1652 94.4917 61.3419 93.6052 61.4076 92.7072C61.5993 90.2128 61.5586 87.706 61.2862 85.2191C61.0352 82.5881 60.6466 79.9086 60.169 77.229C59.9181 75.8933 59.6428 74.5576 59.3595 73.2219C59.0762 71.8862 58.7443 70.5181 58.4204 69.3119L70.3691 66.5919Z" fill="#828282"/>
<g opacity="0.7">
<path opacity="0.7" d="M70.3691 66.5919C70.6605 68.1623 70.8871 69.5628 71.1219 71.0443C71.3567 72.5257 71.5591 73.9747 71.7372 75.4481C72.1176 78.3948 72.4333 81.3576 72.5872 84.4095C72.7873 87.5937 72.7197 90.7891 72.3848 93.962C72.1749 95.9086 71.6926 97.8162 70.9519 99.6286C70.7205 100.187 70.4499 100.728 70.1424 101.248C69.9481 101.539 69.7781 101.814 69.5433 102.114L69.3733 102.332C69.3068 102.426 69.2338 102.516 69.1548 102.6C68.9311 102.858 68.6904 103.102 68.4343 103.328C67.7111 103.947 66.8905 104.442 66.0057 104.793C65.4215 105.031 64.8209 105.226 64.2086 105.376C62.4448 105.764 60.6469 105.975 58.8414 106.008C57.2223 106.056 55.6923 106.008 54.1785 105.959C51.1509 105.838 48.2204 105.546 45.2737 105.255C42.3271 104.963 39.4775 104.591 36.6037 104.186C33.7299 103.782 30.8965 103.377 27.9661 102.915L29.9656 92.0515C32.6289 92.602 35.4218 93.0715 38.1661 93.5167C40.9104 93.962 43.679 94.3262 46.4233 94.6258C49.1676 94.9253 51.9038 95.1439 54.5671 95.2572C55.8866 95.2977 57.1981 95.3139 58.4285 95.2572C59.4685 95.2391 60.5041 95.1198 61.5209 94.901C61.6505 94.901 61.7881 94.812 61.7476 94.812C61.5405 94.9092 61.3494 95.0375 61.1809 95.1924C61.055 95.2981 60.9385 95.4146 60.8328 95.5405C60.76 95.6377 60.8328 95.5891 60.7762 95.6053C60.7762 95.6053 60.8328 95.4839 60.8814 95.3462C61.1652 94.4917 61.3419 93.6052 61.4076 92.7072C61.5993 90.2128 61.5586 87.706 61.2862 85.2191C61.0352 82.5881 60.6466 79.9086 60.169 77.229C59.9181 75.8933 59.6428 74.5576 59.3595 73.2219C59.0762 71.8862 58.7443 70.5181 58.4204 69.3119L70.3691 66.5919Z" fill="white"/>
</g>
<path d="M52.0743 124.384L64.2172 133.232C64.2172 133.232 65.5934 145.116 58.7691 146.282C51.9448 147.447 50.6009 132.949 52.0743 124.384Z" fill="#828282"/>
<path opacity="0.5" d="M52.0743 124.384L64.2172 133.232C64.2172 133.232 65.5934 145.116 58.7691 146.282C51.9448 147.447 50.6009 132.949 52.0743 124.384Z" fill="white"/>
<path d="M25.796 124.384L21.3517 133.232C21.3517 133.232 19.935 145.116 21.9265 146.282C23.9179 147.447 25.5289 132.949 25.796 124.384Z" fill="#828282"/>
<path opacity="0.5" d="M25.796 124.384L21.3517 133.232C21.3517 133.232 19.935 145.116 21.9265 146.282C23.9179 147.447 25.5289 132.949 25.796 124.384Z" fill="white"/>
<path d="M43.1198 40.0473C42.9728 40.0471 42.8262 40.0308 42.6827 39.9987C42.4001 39.9286 42.1356 39.7992 41.9067 39.6192C41.6778 39.4391 41.4898 39.2126 41.3551 38.9544C41.0507 38.2773 40.8839 37.5465 40.8645 36.8043C40.845 36.0622 40.9733 35.3237 41.2417 34.6315C42.0513 32.0491 44.067 30.252 45.686 30.5839C45.9681 30.6555 46.2319 30.7854 46.4606 30.9653C46.6893 31.1451 46.8777 31.371 47.0137 31.6282C47.318 32.3053 47.4848 33.0361 47.5043 33.7782C47.5237 34.5204 47.3955 35.2589 47.127 35.9511C46.358 38.3473 44.6418 40.0473 43.1198 40.0473ZM45.2408 30.762C43.8079 30.762 42.1646 32.3811 41.436 34.672C40.9021 36.0206 40.9254 37.5259 41.5008 38.8573C41.6222 39.0909 41.7917 39.2961 41.9983 39.4593C42.2048 39.6226 42.4436 39.7402 42.6989 39.8044C44.2208 40.1606 46.0989 38.4201 46.9003 35.943C47.4129 34.596 47.3751 33.1014 46.7951 31.782C46.6763 31.548 46.5085 31.3423 46.3032 31.1789C46.0979 31.0155 45.8598 30.8981 45.6051 30.8349C45.4869 30.7967 45.3646 30.7722 45.2408 30.762Z" fill="white"/>
<path d="M51.7408 41.9093C51.5368 41.9078 51.3334 41.8861 51.1337 41.8445C50.6414 41.7113 50.1876 41.4636 49.8092 41.1218C49.4308 40.78 49.1385 40.3536 48.9561 39.8774C48.4903 38.7459 48.3968 37.4956 48.6889 36.3074C49.2799 33.7007 51.3442 31.944 53.287 32.3812C53.7793 32.5144 54.2331 32.7621 54.6115 33.1039C54.9899 33.4457 55.2822 33.8721 55.4646 34.3483C55.9264 35.4779 56.0199 36.7244 55.7318 37.9102C55.1975 40.2498 53.4813 41.9093 51.7408 41.9093ZM52.6799 32.5188C51.0608 32.5188 49.4013 34.1379 48.8913 36.356C48.6104 37.5006 48.6982 38.7047 49.1422 39.7964C49.3106 40.2444 49.5836 40.6456 49.9385 40.9666C50.2933 41.2877 50.7198 41.5193 51.1823 41.6422C53.0037 42.0631 54.9546 40.3631 55.5294 37.8698C55.8103 36.7251 55.7225 35.521 55.2785 34.4293C55.1089 33.982 54.8355 33.5815 54.4809 33.2606C54.1262 32.9397 53.7004 32.7077 53.2384 32.5836C53.0551 32.5421 52.8678 32.5204 52.6799 32.5188Z" fill="white"/>
<path d="M48.648 37.5297C48.5976 37.532 48.5482 37.5146 48.5104 37.4811C48.2852 37.2632 48.0145 37.0979 47.7177 36.9971C47.421 36.8963 47.1056 36.8626 46.7942 36.8982C46.7405 36.909 46.6848 36.898 46.6393 36.8676C46.5937 36.8372 46.5621 36.79 46.5514 36.7363C46.5406 36.6827 46.5517 36.6269 46.582 36.5814C46.6124 36.5358 46.6596 36.5042 46.7133 36.4935C47.0863 36.4449 47.4655 36.4807 47.8229 36.5984C48.1802 36.7161 48.5065 36.9127 48.7776 37.1735C48.7972 37.1924 48.8127 37.215 48.8234 37.24C48.834 37.2651 48.8395 37.292 48.8395 37.3192C48.8395 37.3464 48.834 37.3733 48.8234 37.3984C48.8127 37.4234 48.7972 37.446 48.7776 37.4649C48.743 37.5006 48.6973 37.5234 48.648 37.5297Z" fill="white"/>
<path d="M50.9159 89.8576L50.4706 88.8618C57.3678 85.818 61.9011 79.6656 61.1968 76.4032C60.8245 74.6789 59.0111 74.3147 57.5297 74.3389C50.4139 74.4037 48.0339 81.4466 46.1154 87.1133C45.8725 87.8418 45.6296 88.538 45.3949 89.1857L44.3749 88.8133C44.6015 88.1738 44.8363 87.4856 45.0873 86.7652C47.0058 81.0985 49.6368 73.3189 57.5216 73.2542H57.6106C61.1078 73.2542 62.0306 75.0756 62.2654 76.1685C63.0668 79.8761 58.3878 86.5223 50.9159 89.8576Z" fill="#263238"/>
<path d="M49.2074 88.6513C48.6569 89.8494 48.8836 91.1204 49.7012 91.4927C50.5188 91.8651 51.636 91.2013 52.1784 90.0032C52.7208 88.8051 52.5022 87.5342 51.6846 87.1618C50.8669 86.7894 49.7498 87.4289 49.2074 88.6513Z" fill="#263238"/>
<path d="M43.0479 88.6513C42.4974 89.8494 42.7241 91.1204 43.5417 91.4927C44.3593 91.8651 45.4764 91.2013 46.0188 90.0032C46.5612 88.8051 46.3507 87.5342 45.525 87.1618C44.6993 86.7894 43.5983 87.4289 43.0479 88.6513Z" fill="#263238"/>
<path d="M32.8011 76.7839C32.9434 75.2704 31.8607 73.9309 30.3829 73.792C28.9051 73.6531 27.5917 74.7674 27.4495 76.2808C27.3072 77.7942 28.3899 79.1337 29.8677 79.2726C31.3455 79.4116 32.6589 78.2973 32.8011 76.7839Z" fill="#263238"/>
<path d="M58.056 74.3308C57.9917 74.3422 57.926 74.3422 57.8617 74.3308C57.7945 74.3057 57.7329 74.2675 57.6805 74.2183C57.6281 74.1692 57.5861 74.1102 57.5567 74.0447C57.5273 73.9792 57.5112 73.9084 57.5094 73.8367C57.5076 73.7649 57.52 73.6935 57.546 73.6265C57.546 73.5861 59.2703 68.9151 56.5584 61.9127C56.5323 61.8463 56.5196 61.7753 56.521 61.704C56.5223 61.6326 56.5377 61.5622 56.5663 61.4968C56.5949 61.4314 56.636 61.3723 56.6875 61.3228C56.7389 61.2733 56.7995 61.2345 56.866 61.2084C56.9324 61.1824 57.0033 61.1697 57.0747 61.171C57.146 61.1724 57.2164 61.1878 57.2818 61.2164C57.3472 61.2449 57.4064 61.2861 57.4559 61.3375C57.5053 61.3889 57.5442 61.4496 57.5703 61.516C60.4522 68.9394 58.6388 73.8127 58.5579 74.0151C58.5148 74.1114 58.4441 74.1928 58.3547 74.249C58.2654 74.3052 58.1615 74.3337 58.056 74.3308Z" fill="#263238"/>
<path d="M29.0737 76.2493H28.9604C28.8203 76.2164 28.6983 76.1306 28.6199 76.01C28.5415 75.8893 28.5126 75.7431 28.5394 75.6017C28.6446 75.0917 31.2756 63.0378 41.3866 60.6578C41.5272 60.6256 41.6749 60.6506 41.7971 60.7273C41.9193 60.8039 42.006 60.926 42.0383 61.0666C42.0705 61.2073 42.0455 61.3549 41.9688 61.4772C41.8922 61.5994 41.7701 61.6861 41.6295 61.7183C32.1985 63.9445 29.6323 75.7069 29.608 75.8203C29.5805 75.9416 29.5128 76.0501 29.4157 76.1281C29.3187 76.206 29.1981 76.2487 29.0737 76.2493Z" fill="#263238"/>
<path d="M141.404 53.0885C131.851 50.9837 122.153 50.7813 112.31 51.6799C110.674 51.831 109.13 52.4972 107.897 53.5825C106.665 54.6678 105.809 56.1161 105.453 57.719C103.478 66.8504 100.199 87.4448 101.753 118.814L141.598 119.462C142.246 113.86 140.789 87.89 146.787 61.7261C147.01 60.8051 147.047 59.849 146.896 58.9135C146.745 57.9781 146.409 57.0821 145.908 56.2779C145.406 55.4738 144.75 54.7776 143.977 54.2299C143.203 53.6823 142.329 53.2943 141.404 53.0885Z" fill="#1987FB"/>
<path d="M117.595 58.6986L118.729 61.6776C118.786 61.8233 118.88 61.9515 119.003 62.0495C119.125 62.1475 119.27 62.2118 119.425 62.2362L120.939 62.4629C121.218 62.5142 121.507 62.4593 121.748 62.3091L124.573 60.6172L121.562 57.9214L117.595 58.6986Z" fill="#263238"/>
<path d="M121.075 61.5642C120.518 61.3332 119.909 61.2522 119.311 61.3294C117.619 64.3894 114.988 73.3266 114.292 77.3095C116.963 85.4695 118.088 86.36 118.088 86.36L121.326 77.0018C121.326 77.0018 120.549 67.1337 121.075 61.5642Z" fill="#263238"/>
<path d="M134.952 33.1906C133.503 38.5496 131.714 48.434 135.284 52.344C132.127 55.0559 127.998 58.1645 121.522 57.9135C115.046 57.6626 116.487 53.2992 118.357 51.0811C124.525 50.0854 124.687 45.5763 123.926 41.2778L134.952 33.1906Z" fill="#FF8B7B"/>
<path d="M137.023 52.0361C136.585 51.7899 136.124 51.5866 135.647 51.4289C135.533 51.3874 135.408 51.3839 135.291 51.4189C135.175 51.4539 135.072 51.5255 135 51.6232C134.271 52.6189 131.907 57.128 121.586 57.9213C123.148 59.0709 125.059 62.3575 125.876 63.9199C129.074 62.649 137.461 58.7228 137.315 52.538C137.314 52.4363 137.286 52.3367 137.235 52.2488C137.184 52.1609 137.111 52.0876 137.023 52.0361Z" fill="white"/>
<path d="M118.405 51.3482C118.444 51.2531 118.457 51.1497 118.444 51.048C118.43 50.9463 118.39 50.8498 118.328 50.7681C118.266 50.6865 118.184 50.6223 118.09 50.5821C117.995 50.5419 117.892 50.5269 117.79 50.5387C117.433 50.5731 117.079 50.6299 116.73 50.7087C116.648 50.7304 116.572 50.766 116.503 50.8139C115.693 51.4534 110.836 57.1444 114.269 62.4873C115.289 61.2406 118.43 58.4396 121.554 57.8811C118.818 56.343 117.652 53.8091 118.405 51.3482Z" fill="white"/>
<path opacity="0.2" d="M130.468 36.4932L123.991 41.2775C124.184 42.2782 124.287 43.2942 124.299 44.3132C126.639 44.1513 129.966 41.8846 130.419 39.4561C130.619 38.48 130.636 37.4752 130.468 36.4932Z" fill="black"/>
<path d="M121.699 29.9522C117.911 31.1827 117.328 28.1955 118.105 25.2569C118.583 23.4274 117.919 22.2617 117.66 20.2541C117.215 16.9593 118.04 14.045 124.185 11.9079C132.15 9.13118 130.394 13.8102 130.709 15.745C131.025 17.6798 127.714 18.8455 127.876 20.8369C128.008 22.827 127.472 24.804 126.353 26.4551C125.234 28.1061 123.596 29.3368 121.699 29.9522Z" fill="#263238"/>
<path d="M140.019 26.3822C137.858 33.5141 136.951 37.7965 132.442 40.727C125.691 45.1389 117.595 39.9256 117.595 32.3808C117.595 25.5565 121.133 15.0327 128.832 13.6646C130.511 13.3474 132.244 13.473 133.86 14.0291C135.477 14.5851 136.92 15.5523 138.049 16.8356C139.178 18.1189 139.953 19.674 140.299 21.3479C140.644 23.0219 140.548 24.7569 140.019 26.3822Z" fill="#FF8B7B"/>
<path d="M137.833 19.0074C133.988 18.3274 129.439 19.9627 125.602 19.0074C122.558 18.1979 122.59 16.1984 123.035 14.1503C123.691 11.1307 126.201 10.1431 127.706 9.58454C129.212 9.02597 129.989 10.9041 132.07 9.47121C133.47 8.49978 138.813 8.25692 141.978 9.47121C145.144 10.6855 141.525 12.9765 143.217 14.0369C148.446 17.275 145.119 20.2946 137.833 19.0074Z" fill="#263238"/>
<path opacity="0.3" d="M125.804 18.1818C124.444 15.0813 125.877 10.9365 131.592 10.5398C126.581 12.0455 125.804 18.1818 125.804 18.1818Z" fill="white"/>
<path d="M136.758 33.6032C133.52 33.0932 133.707 29.4342 135.285 26.9004C136.791 24.4718 134.573 21.8489 134.411 20.0113C134.249 18.1737 135.965 16.3037 139.268 16.4575C142.571 16.6113 147.817 18.7079 147.906 21.1284C147.995 23.5489 144.611 23.2494 145.137 25.5889C146.295 30.8023 141.478 34.3561 136.758 33.6032Z" fill="#263238"/>
<path opacity="0.3" d="M143.5 20.9667C142.132 23.3952 139.291 23.9214 135.607 20.9667C136.852 21.5112 138.196 21.7924 139.554 21.7924C140.912 21.7924 142.256 21.5112 143.5 20.9667Z" fill="white"/>
<path d="M119.037 32.1622C117.555 33.7246 117.685 36.8656 117.766 38.3713C117.847 39.877 119.126 42.3542 123.861 43.0666C128.597 43.7789 129.706 42.1032 129.933 40.5166C130.159 38.9299 129.933 34.4208 128.403 32.9151C126.873 31.4094 120.712 30.3894 119.037 32.1622Z" fill="#263238"/>
<path d="M122.121 34.4451C122.775 34.6251 123.459 34.6721 124.132 34.5831C124.805 34.4941 125.454 34.271 126.039 33.927C126.069 33.898 126.087 33.8595 126.092 33.8181C126.096 33.7767 126.086 33.7351 126.063 33.7005C126.04 33.6658 126.005 33.6404 125.965 33.6285C125.926 33.6167 125.883 33.6192 125.845 33.6356C125.191 34.0063 124.461 34.2205 123.711 34.2612C122.961 34.3019 122.211 34.1681 121.522 33.8703C121.479 33.8512 121.43 33.8498 121.386 33.8665C121.342 33.8831 121.306 33.9165 121.287 33.9594C121.268 34.0023 121.266 34.0511 121.283 34.0951C121.3 34.1391 121.333 34.1747 121.376 34.1941C121.619 34.2934 121.867 34.3773 122.121 34.4451Z" fill="#FF8B7B"/>
<path d="M140.675 34.8095C139.377 36.1638 137.603 36.9594 135.729 37.0276C133.3 37.1004 132.685 34.7528 133.915 32.7371C135.032 30.9237 137.655 28.6894 139.865 29.6042C142.075 30.519 142.261 33.0933 140.675 34.8095Z" fill="#FF8B7B"/>
<path d="M122.348 192.797C123.319 155.316 132.871 119.324 132.871 119.324L101.81 118.822C101.81 118.822 103.542 172.947 104.012 195.622C104.506 219.195 111.872 274.543 111.872 274.543L124.485 274.737C124.485 274.737 123.084 222.369 122.348 192.797Z" fill="#263238"/>
<path opacity="0.2" d="M125.375 139.943C116.106 152.085 119.32 174.882 122.396 190.999C123.068 170.964 126.096 151.511 128.727 137.935L125.375 139.943Z" fill="black"/>
<path d="M129.002 25.7105C128.856 26.3014 128.435 26.7143 128.055 26.6333C127.675 26.5524 127.472 26.01 127.618 25.419C127.764 24.8281 128.176 24.4152 128.557 24.4962C128.937 24.5771 129.14 25.0952 129.002 25.7105Z" fill="#263238"/>
<path d="M122.234 24.4638C122.096 25.0548 121.675 25.4595 121.287 25.3786C120.898 25.2976 120.712 24.7553 120.85 24.1643C120.987 23.5734 121.416 23.1686 121.797 23.2495C122.177 23.3305 122.372 23.8729 122.234 24.4638Z" fill="#263238"/>
<path d="M124.072 25.3948C122.899 26.8498 121.538 28.1428 120.024 29.24C120.834 30.26 122.68 30.1872 122.68 30.1872L124.072 25.3948Z" fill="#FF5652"/>
<path d="M131.884 23.3547C131.943 23.3694 132.004 23.3694 132.062 23.3547C132.148 23.3158 132.215 23.2446 132.248 23.1566C132.281 23.0687 132.279 22.9711 132.24 22.8852C132.031 22.3752 131.701 21.9242 131.278 21.5714C130.854 21.2186 130.351 20.9748 129.812 20.8613C129.718 20.8474 129.623 20.8712 129.547 20.9273C129.471 20.9835 129.421 21.0675 129.407 21.1609C129.399 21.2056 129.4 21.2515 129.41 21.2958C129.42 21.3402 129.438 21.3821 129.465 21.419C129.491 21.456 129.525 21.4873 129.564 21.5111C129.602 21.5349 129.645 21.5507 129.69 21.5575C130.118 21.6516 130.517 21.8481 130.853 22.13C131.188 22.412 131.451 22.7711 131.617 23.1766C131.644 23.2255 131.682 23.2673 131.729 23.2983C131.775 23.3293 131.829 23.3486 131.884 23.3547Z" fill="#263238"/>
<path d="M120.332 21.2416C120.39 21.2521 120.449 21.2488 120.505 21.2319C120.562 21.215 120.613 21.1851 120.656 21.1445C120.96 20.8138 121.34 20.561 121.762 20.4075C122.185 20.2539 122.638 20.2041 123.084 20.2621C123.177 20.2768 123.272 20.2558 123.35 20.2032C123.429 20.1507 123.484 20.0705 123.505 19.9788C123.524 19.8886 123.507 19.7945 123.457 19.7171C123.407 19.6397 123.328 19.5853 123.238 19.5659C122.679 19.4923 122.111 19.5514 121.579 19.7385C121.048 19.9255 120.568 20.2353 120.178 20.6426C120.112 20.7093 120.075 20.7995 120.075 20.8935C120.075 20.9876 120.112 21.0778 120.178 21.1445C120.221 21.1886 120.274 21.2219 120.332 21.2416Z" fill="#263238"/>
<path d="M148.358 191.858C145.265 158.359 146.423 132.511 141.598 119.462L115.272 119.041C115.272 119.041 126.978 172 131.366 194.327C135.915 217.528 144.197 272.349 144.197 272.349L156.21 272.519C156.21 272.519 155.368 217.762 148.358 191.858Z" fill="#263238"/>
<path d="M87.5215 122.384L83.1986 128.714L91.7553 131.329C91.7553 131.329 94.9934 125.144 92.0467 122.999L87.5215 122.384Z" fill="#FF8B7B"/>
<path d="M84.5012 136.405L87.6745 136.81C88.2962 136.882 88.9236 136.736 89.4503 136.399C89.977 136.061 90.3707 135.551 90.5646 134.956L91.7546 131.329L83.1979 128.715L82.3883 133.426C82.3234 133.761 82.3272 134.106 82.3993 134.44C82.4714 134.773 82.6104 135.089 82.8078 135.367C83.0053 135.646 83.2572 135.881 83.5482 136.06C83.8393 136.238 84.1635 136.355 84.5012 136.405Z" fill="#FF8B7B"/>
<path d="M115.604 60.4634C113.984 65.9682 112.398 71.4918 110.844 77.0344C109.289 82.5554 107.824 88.133 106.415 93.6135C106.14 94.7954 105.606 96.8516 105.112 98.1792C104.618 99.5068 104.141 101.037 103.647 102.429C102.643 105.198 101.623 107.918 100.587 110.63L94.4587 126.893L83.5948 122.514C85.8453 117.276 87.9582 111.933 90.0144 106.614C91.0101 103.943 91.9896 101.264 92.9206 98.6164C93.382 97.2887 93.8354 95.9692 94.232 94.6902C94.6287 93.4111 94.8392 92.5611 95.1954 90.934C96.4825 85.2268 97.8749 79.6572 99.1701 74.0229C100.465 68.3886 101.801 62.8029 103.064 57.1767L115.604 60.4634Z" fill="#E0E0E0"/>
<g opacity="0.6">
<path opacity="0.6" d="M115.604 60.4634C113.984 65.9682 112.398 71.4918 110.844 77.0344C109.289 82.5554 107.824 88.133 106.415 93.6135C106.14 94.7954 105.606 96.8516 105.112 98.1792C104.618 99.5068 104.141 101.037 103.647 102.429C102.643 105.198 101.623 107.918 100.587 110.63L94.4587 126.893L83.5948 122.514C85.8453 117.276 87.9582 111.933 90.0144 106.614C91.0101 103.943 91.9896 101.264 92.9206 98.6164C93.382 97.2887 93.8354 95.9692 94.232 94.6902C94.6287 93.4111 94.8392 92.5611 95.1954 90.934C96.4825 85.2268 97.8749 79.6572 99.1701 74.0229C100.465 68.3886 101.801 62.8029 103.064 57.1767L115.604 60.4634Z" fill="white"/>
</g>
<path d="M121.854 135.231L76.4635 132.074C75.7947 132.021 75.1697 131.721 74.7113 131.231C74.253 130.741 73.9944 130.098 73.9863 129.427V98.2681C73.9818 97.9492 74.0441 97.6329 74.1693 97.3396C74.2944 97.0462 74.4797 96.7824 74.7131 96.565C74.9464 96.3476 75.2228 96.1816 75.5243 96.0776C75.8257 95.9735 76.1457 95.9338 76.4635 95.961L121.854 99.11C122.522 99.1662 123.146 99.4692 123.604 99.9599C124.062 100.451 124.321 101.094 124.331 101.765V132.924C124.335 133.243 124.273 133.559 124.148 133.852C124.023 134.146 123.837 134.41 123.604 134.627C123.371 134.844 123.094 135.01 122.793 135.115C122.491 135.219 122.171 135.258 121.854 135.231Z" fill="#263238"/>
<path d="M122.64 134.77L77.2496 131.613C76.5808 131.56 75.9558 131.259 75.4975 130.77C75.0391 130.28 74.7805 129.636 74.7724 128.965V97.8068C74.7679 97.4879 74.8302 97.1715 74.9554 96.8782C75.0806 96.5849 75.2658 96.321 75.4992 96.1036C75.7326 95.8863 76.0089 95.7202 76.3104 95.6162C76.6119 95.5121 76.9318 95.4724 77.2496 95.4996L122.64 98.6487C123.308 98.7029 123.932 99.0042 124.39 99.4936C124.848 99.9831 125.107 100.626 125.117 101.296V132.463C125.121 132.781 125.059 133.098 124.934 133.391C124.809 133.684 124.624 133.948 124.39 134.166C124.157 134.383 123.88 134.549 123.579 134.653C123.277 134.757 122.958 134.797 122.64 134.77Z" fill="#1987FB"/>
<path d="M137.355 50.5709C133.632 56.0676 120.558 64.43 117.822 78.0462C114.138 65.0452 117.684 50.239 117.684 50.239C114.125 50.2107 110.58 50.696 107.16 51.6799C106.047 51.9985 105.045 52.6222 104.268 53.4807C103.492 54.3391 102.971 55.3978 102.764 56.5371C100.362 70.7875 99.3673 85.2396 99.7934 99.6848C100.546 127.023 99.5748 169.304 99.5748 169.304C99.5748 169.304 127.309 170.923 149.069 168.576C148.543 147.69 143.127 112.208 143.977 102.939C145.07 91.0148 147.693 67.7409 149.045 58.059C149.246 56.6872 148.948 55.2887 148.205 54.118C147.463 52.9473 146.324 52.0822 144.997 51.6799C142.511 50.9729 139.941 50.5999 137.355 50.5709Z" fill="#E0E0E0"/>
<path opacity="0.7" d="M137.355 50.5709C133.632 56.0676 120.558 64.43 117.822 78.0462C114.138 65.0452 117.684 50.239 117.684 50.239C114.125 50.2107 110.58 50.696 107.16 51.6799C106.047 51.9985 105.045 52.6222 104.268 53.4807C103.492 54.3391 102.971 55.3978 102.764 56.5371C100.362 70.7875 99.3673 85.2396 99.7934 99.6848C100.546 127.023 99.5748 169.304 99.5748 169.304C99.5748 169.304 127.309 170.923 149.069 168.576C148.543 147.69 143.127 112.208 143.977 102.939C145.07 91.0148 147.693 67.7328 149.045 58.0509C149.262 56.7277 149.003 55.3704 148.314 54.2202C147.625 53.0699 146.55 52.2014 145.281 51.769C142.708 51.0009 140.04 50.5976 137.355 50.5709Z" fill="white"/>
<path d="M139.606 117.065L134.959 123.161L143.37 126.221C143.37 126.221 146.916 120.214 144.091 117.915L139.606 117.065Z" fill="#FF8B7B"/>
<path d="M135.858 130.908L138.999 131.483C139.617 131.587 140.251 131.474 140.795 131.165C141.34 130.855 141.76 130.367 141.986 129.783L143.371 126.221L134.96 123.161L133.867 127.824C133.783 128.158 133.768 128.506 133.824 128.845C133.88 129.185 134.005 129.51 134.192 129.799C134.379 130.089 134.623 130.336 134.91 130.527C135.196 130.718 135.519 130.848 135.858 130.908Z" fill="#FF8B7B"/>
<path d="M148.526 55.331C149.741 57.9943 150.874 60.5281 151.975 63.1591C153.076 65.79 154.177 68.3886 155.213 71.0682C156.249 73.7477 157.18 76.4758 158.071 79.3334C158.5 80.7744 158.88 82.2477 159.228 83.8425C159.39 84.652 159.536 85.4615 159.649 86.352C159.781 87.3474 159.832 88.3517 159.803 89.3554C159.803 89.6954 159.755 90.0434 159.722 90.3834L159.593 91.193C159.496 91.7435 159.382 92.132 159.277 92.6096C159.05 93.4192 158.807 94.2287 158.565 94.9897C158.063 96.4792 157.537 97.8554 156.986 99.2073C155.885 101.919 154.711 104.493 153.513 107.06C152.315 109.626 151.133 112.152 149.895 114.669C148.656 117.187 147.466 119.672 146.179 122.222L135.809 116.701C138.44 112.014 140.925 107.116 143.224 102.267C144.357 99.8387 145.434 97.3697 146.389 94.9816C146.867 93.7835 147.32 92.553 147.685 91.452L147.936 90.6425L148.13 89.8735C148.13 89.6792 148.235 89.4039 148.243 89.2744V89.0558V88.6025C148.243 88.3839 148.203 88.1977 148.154 87.9387C148.081 87.4611 147.976 86.9349 147.846 86.3844C147.587 85.2834 147.239 84.1015 146.843 82.9115C146.033 80.4829 145.086 78.0544 144.034 75.6258C142.981 73.1972 141.864 70.7686 140.674 68.3401C139.484 65.9115 138.246 63.4829 136.975 61.2486L148.526 55.331Z" fill="#E0E0E0"/>
<g opacity="0.7">
<path opacity="0.7" d="M148.526 55.331C149.741 57.9943 150.874 60.5281 151.975 63.1591C153.076 65.79 154.177 68.3886 155.213 71.0682C156.249 73.7477 157.18 76.4758 158.071 79.3334C158.5 80.7744 158.88 82.2477 159.228 83.8425C159.39 84.652 159.536 85.4615 159.649 86.352C159.781 87.3474 159.832 88.3517 159.803 89.3554C159.803 89.6954 159.755 90.0434 159.722 90.3834L159.593 91.193C159.496 91.7435 159.382 92.132 159.277 92.6096C159.05 93.4192 158.807 94.2287 158.565 94.9897C158.063 96.4792 157.537 97.8554 156.986 99.2073C155.885 101.919 154.711 104.493 153.513 107.06C152.315 109.626 151.133 112.152 149.895 114.669C148.656 117.187 147.466 119.672 146.179 122.222L135.809 116.701C138.44 112.014 140.925 107.116 143.224 102.267C144.357 99.8387 145.434 97.3697 146.389 94.9816C146.867 93.7835 147.32 92.553 147.685 91.452L147.936 90.6425L148.13 89.8735C148.13 89.6792 148.235 89.4039 148.243 89.2744V89.0558V88.6025C148.243 88.3839 148.203 88.1977 148.154 87.9387C148.081 87.4611 147.976 86.9349 147.846 86.3844C147.587 85.2834 147.239 84.1015 146.843 82.9115C146.033 80.4829 145.086 78.0544 144.034 75.6258C142.981 73.1972 141.864 70.7686 140.674 68.3401C139.484 65.9115 138.246 63.4829 136.975 61.2486L148.526 55.331Z" fill="white"/>
</g>
<path d="M131.414 118.304L144.585 127.719C144.585 127.719 146.431 140.356 139.21 141.594C131.989 142.833 130.127 127.411 131.414 118.304Z" fill="#1987FB"/>
<path opacity="0.5" d="M131.414 118.304L144.585 127.719C144.585 127.719 146.431 140.356 139.21 141.594C131.989 142.833 130.127 127.411 131.414 118.304Z" fill="white"/>
<path d="M103.477 118.304L99.0248 127.719C99.0248 127.719 97.9076 140.356 100.053 141.594C102.198 142.833 103.461 127.411 103.477 118.304Z" fill="#1987FB"/>
<path opacity="0.5" d="M103.477 118.304L99.0248 127.719C99.0248 127.719 97.9076 140.356 100.053 141.594C102.198 142.833 103.461 127.411 103.477 118.304Z" fill="white"/>
<path opacity="0.5" d="M119.078 166.762C116.973 140.194 117.272 84.5305 117.458 79.56H117.928C117.758 84.5305 117.467 140.153 119.547 166.705L119.078 166.762Z" fill="#407BFF"/>
<path d="M181.15 37.983C175.2 42.2897 170.253 59.1845 184.444 66.0088C198.635 72.8331 218.647 72.2827 212.6 57.444C206.553 42.6054 208.714 33.8787 194.434 32.1868C180.154 30.4949 181.15 37.983 181.15 37.983Z" fill="#263238"/>
<path d="M219.392 126.877L222.258 127.873L225.901 133.394C226.433 134.201 226.67 135.168 226.573 136.13L226.362 138.089C226.331 138.414 226.184 138.716 225.947 138.941C225.711 139.166 225.401 139.297 225.075 139.311L221.27 139.441C220.926 139.446 220.591 139.326 220.329 139.103C220.066 138.879 219.895 138.568 219.845 138.227L219.36 133.75C219.36 133.75 217.514 129.281 219.392 126.877Z" fill="#FFB573"/>
<path d="M214.868 81.8918C214.803 83.948 214.787 86.1499 214.803 88.2789C214.82 90.408 214.86 92.5775 214.933 94.7551C215.087 99.0375 215.386 103.312 215.912 107.481L215.961 107.991C215.961 107.991 215.961 107.829 215.961 107.869C215.961 107.91 215.961 107.869 215.961 107.983V108.185L216.026 108.436C216.115 108.792 216.228 109.197 216.35 109.618C216.592 110.428 216.884 111.334 217.159 112.209C217.766 113.965 218.446 115.746 219.142 117.519C219.839 119.292 220.567 121.057 221.32 122.805C222.073 124.554 222.858 126.31 223.651 127.849L217.588 131.378C216.447 129.54 215.524 127.816 214.577 126.051C213.63 124.287 212.747 122.522 211.865 120.741C210.982 118.96 210.14 117.163 209.323 115.301C208.91 114.37 208.513 113.431 208.125 112.427C207.93 111.925 207.744 111.407 207.566 110.808L207.437 110.363L207.299 109.861C207.259 109.691 207.218 109.456 207.178 109.254C207.137 109.051 207.097 108.687 207.072 108.404L207.129 108.914C206.239 104.405 205.615 99.9199 205.138 95.4351C204.903 93.1928 204.7 90.9585 204.53 88.708C204.36 86.4575 204.223 84.2556 204.134 81.908L214.868 81.8918Z" fill="#1987FB"/>
<path opacity="0.5" d="M214.868 81.8918C214.803 83.948 214.787 86.1499 214.803 88.2789C214.82 90.408 214.86 92.5775 214.933 94.7551C215.087 99.0375 215.386 103.312 215.912 107.481L215.961 107.991C215.961 107.991 215.961 107.829 215.961 107.869C215.961 107.91 215.961 107.869 215.961 107.983V108.185L216.026 108.436C216.115 108.792 216.228 109.197 216.35 109.618C216.592 110.428 216.884 111.334 217.159 112.209C217.766 113.965 218.446 115.746 219.142 117.519C219.839 119.292 220.567 121.057 221.32 122.805C222.073 124.554 222.858 126.31 223.651 127.849L217.588 131.378C216.447 129.54 215.524 127.816 214.577 126.051C213.63 124.287 212.747 122.522 211.865 120.741C210.982 118.96 210.14 117.163 209.323 115.301C208.91 114.37 208.513 113.431 208.125 112.427C207.93 111.925 207.744 111.407 207.566 110.808L207.437 110.363L207.299 109.861C207.259 109.691 207.218 109.456 207.178 109.254C207.137 109.051 207.097 108.687 207.072 108.404L207.129 108.914C206.239 104.405 205.615 99.9199 205.138 95.4351C204.903 93.1928 204.7 90.9585 204.53 88.708C204.36 86.4575 204.223 84.2556 204.134 81.908L214.868 81.8918Z" fill="white"/>
<path d="M209.809 119.049C209.809 119.049 208.87 174.267 206.571 196.618C203.641 225.761 195.78 250.37 193.926 270.503L187.418 269.572C187.418 269.572 186.997 220.28 192.914 196.715C187.547 171.725 187.418 119.081 187.418 119.081L209.809 119.049Z" fill="#FFB573"/>
<path d="M204.149 119.049C204.149 119.049 194.921 174.858 189.724 197.257C182.948 226.481 182.009 272.503 182.009 272.503L175.897 271.912C175.897 271.912 168.87 229.954 176.431 197.257C175.865 172.162 180.754 119.049 180.754 119.049H204.149Z" fill="#FFB573"/>
<path d="M213.692 79.3821C214.016 84.7412 214.267 99.8874 211.385 123.048H179.999C180.04 111.828 180.955 101.086 175.838 79.9893C175.639 79.2237 175.605 78.4243 175.739 77.6445C175.873 76.8647 176.171 76.1225 176.615 75.4674C177.059 74.8122 177.637 74.2593 178.311 73.8455C178.986 73.4317 179.741 73.1666 180.526 73.0678C182.298 72.8412 184.322 72.6388 186.435 72.5416C190.973 72.2094 195.53 72.2094 200.068 72.5416C203.014 72.8088 206.171 73.2783 208.576 73.6912C209.944 73.9267 211.193 74.6164 212.121 75.6489C213.05 76.6814 213.603 77.9966 213.692 79.3821Z" fill="white"/>
<path d="M188.782 57.7111C189.811 62.0987 190.976 70.1292 188.021 73.0921C188.021 73.0921 190.758 77.4393 199.233 81.0983C203.904 78.2731 201.662 73.0921 201.662 73.0921C196.724 71.9264 196.716 68.2916 197.436 64.8835L188.782 57.7111Z" fill="#FFB573"/>
<path opacity="0.2" d="M192.313 60.6256L197.43 64.8514C197.244 65.6489 197.133 66.4619 197.098 67.2799C195.22 67.0047 192.572 64.9566 192.297 62.9976C192.158 62.2125 192.164 61.4087 192.313 60.6256Z" fill="black"/>
<path d="M183.855 49.6646C185.83 56.7965 186.526 59.8565 190.833 62.9246C197.309 67.5551 205.307 63.9284 205.404 56.4484C205.501 49.7051 202.247 39.165 194.824 37.5136C187.4 35.8621 181.871 42.5245 183.855 49.6646Z" fill="#FFB573"/>
<path d="M185.311 53.4289C187.051 51.9232 188.784 45.3336 187.877 42.5326C194.102 43.0427 199.291 40.8488 201.801 42.9698C202.068 39.7317 199.186 35.3441 194.062 35.3926C188.938 35.4412 176.617 41.6017 185.311 53.4289Z" fill="#263238"/>
<path d="M193.754 49.8993C193.876 50.4903 194.288 50.9112 194.669 50.8384C195.049 50.7655 195.26 50.2393 195.13 49.6564C195.001 49.0736 194.596 48.6445 194.216 48.7174C193.835 48.7902 193.625 49.3164 193.754 49.8993Z" fill="#263238"/>
<path d="M200.789 48.6121C200.918 49.2031 201.331 49.624 201.712 49.5512C202.092 49.4783 202.303 48.9521 202.173 48.3692C202.044 47.7864 201.639 47.3573 201.25 47.4302C200.862 47.503 200.667 48.0292 200.789 48.6121Z" fill="#263238"/>
<path d="M201.097 47.487L202.409 46.8313C202.409 46.8313 201.923 48.0617 201.097 47.487Z" fill="#263238"/>
<path d="M199.761 49.8832C200.571 51.1317 201.542 52.2669 202.651 53.2589C202.396 53.5281 202.085 53.7369 201.739 53.87C201.393 54.0031 201.021 54.057 200.652 54.028L199.761 49.8832Z" fill="#ED893E"/>
<path d="M198.296 56.9826C198.63 56.98 198.963 56.9475 199.291 56.8854C199.314 56.8817 199.335 56.8733 199.354 56.8609C199.373 56.8484 199.389 56.8321 199.401 56.813C199.413 56.7939 199.421 56.7725 199.425 56.7501C199.428 56.7277 199.427 56.7049 199.421 56.683C199.409 56.6379 199.381 56.5988 199.342 56.5733C199.304 56.5479 199.256 56.5379 199.211 56.5454C198.477 56.6862 197.72 56.6558 197 56.4564C196.279 56.257 195.615 55.8941 195.058 55.3959C195.024 55.3628 194.979 55.3442 194.932 55.3442C194.885 55.3442 194.84 55.3628 194.807 55.3959C194.775 55.4302 194.758 55.4749 194.758 55.5214C194.758 55.5678 194.775 55.6126 194.807 55.6469C195.761 56.5146 197.006 56.9915 198.296 56.9826Z" fill="#263238"/>
<path d="M182.243 54.6108C183.026 55.8239 184.242 56.6925 185.643 57.0394C187.505 57.4766 188.29 55.8332 187.659 54.1575C187.092 52.6437 185.449 50.5956 183.611 50.9194C181.773 51.2432 181.304 53.1213 182.243 54.6108Z" fill="#FFB573"/>
<path d="M192.193 46.8717C192.241 46.8672 192.288 46.8527 192.329 46.8289C192.371 46.8052 192.408 46.7729 192.436 46.7341C192.69 46.382 193.024 46.0966 193.412 45.902C193.8 45.7075 194.229 45.6097 194.662 45.6169C194.753 45.6237 194.843 45.5943 194.913 45.5353C194.983 45.4762 195.026 45.3922 195.035 45.3012C195.035 45.2082 195.002 45.1181 194.941 45.048C194.88 44.9779 194.795 44.9326 194.703 44.9207C194.153 44.9027 193.608 45.0194 193.114 45.2607C192.62 45.502 192.193 45.8606 191.869 46.305C191.815 46.3792 191.792 46.4719 191.806 46.5629C191.819 46.6539 191.868 46.7359 191.942 46.7907C192.016 46.8429 192.103 46.8712 192.193 46.8717Z" fill="#263238"/>
<path d="M203.113 44.7021C203.155 44.6863 203.192 44.6624 203.224 44.6318C203.256 44.6012 203.282 44.5646 203.299 44.524C203.318 44.482 203.329 44.4367 203.33 44.3908C203.331 44.3448 203.323 44.299 203.307 44.2561C203.29 44.2132 203.265 44.174 203.233 44.1408C203.202 44.1076 203.163 44.081 203.121 44.0625C202.628 43.8057 202.079 43.6716 201.523 43.6716C200.966 43.6716 200.418 43.8057 199.924 44.0625C199.885 44.0872 199.851 44.1195 199.824 44.1574C199.798 44.1953 199.779 44.2381 199.769 44.2833C199.759 44.3285 199.759 44.3753 199.767 44.4207C199.776 44.4662 199.793 44.5096 199.818 44.5483C199.869 44.6267 199.947 44.6831 200.037 44.7056C200.127 44.7282 200.223 44.7154 200.304 44.6697C200.696 44.4667 201.13 44.3608 201.571 44.3608C202.012 44.3608 202.447 44.4667 202.838 44.6697C202.879 44.6946 202.925 44.7104 202.972 44.716C203.02 44.7216 203.068 44.7168 203.113 44.7021Z" fill="#263238"/>
<path d="M194.054 48.774L195.365 48.1183C195.365 48.1183 194.879 49.3812 194.054 48.774Z" fill="#263238"/>
<path d="M211.386 123.048L212.01 208.898C197.438 210.088 183.506 209.643 170.36 207.069C169.494 174.858 163.195 139.36 180.001 123.048H211.386Z" fill="#263238"/>
<path opacity="0.2" d="M195.154 181.148L191.867 152.895L199.76 144.743L195.154 181.148Z" fill="black"/>
<path d="M215.11 84.709C214.713 77.1723 213.491 74.1851 208.537 73.2784C203.582 72.3718 198.928 71.8537 198.928 71.8537C200.613 72.9563 202.042 74.4082 203.118 76.1111C204.193 77.8139 204.891 79.728 205.162 81.7237C205.434 83.7194 205.274 85.7503 204.693 87.6787C204.112 89.6071 203.123 91.3882 201.793 92.9014C198.458 86.7004 185.805 76.9861 188.841 71.9265C185.882 71.7758 182.916 71.9879 180.009 72.558C175.152 73.497 173.727 76.8565 174.925 84.3366C178.01 103.441 175.654 126.642 175.654 126.642C175.654 126.642 193.731 135.159 199.737 136.786C209.298 134.454 211.402 127.768 211.402 127.768C211.402 127.768 215.547 92.2861 215.11 84.709Z" fill="#1987FB"/>
<path opacity="0.6" d="M215.11 84.709C214.713 77.1723 213.491 74.1851 208.537 73.2784C203.582 72.3718 198.928 71.8537 198.928 71.8537C200.613 72.9563 202.042 74.4082 203.118 76.1111C204.193 77.8139 204.891 79.728 205.162 81.7237C205.434 83.7194 205.274 85.7503 204.693 87.6787C204.112 89.6071 203.123 91.3882 201.793 92.9014C198.458 86.7004 185.805 76.9861 188.841 71.9265C185.882 71.7758 182.916 71.9879 180.009 72.558C175.152 73.497 173.727 76.8565 174.925 84.3366C178.01 103.441 175.654 126.642 175.654 126.642C175.654 126.642 193.731 135.159 199.737 136.786C209.298 134.454 211.402 127.768 211.402 127.768C211.402 127.768 215.547 92.2861 215.11 84.709Z" fill="white"/>
<path d="M188.177 99.3451C184.81 94.4313 182.284 87.2022 184.243 83.5512C184.608 82.8781 185.16 82.3246 185.832 81.957C186.504 81.5894 187.268 81.4234 188.032 81.4788C188.686 81.4751 189.334 81.6103 189.933 81.8754C190.532 82.1405 191.067 82.5296 191.505 83.0169C193.69 85.405 194.451 90.3674 193.828 98.1713L193.018 98.1065C193.617 90.6427 192.905 85.7531 190.914 83.5755C190.554 83.1691 190.112 82.8452 189.616 82.6258C189.12 82.4065 188.582 82.2969 188.04 82.3045C187.429 82.2528 186.817 82.378 186.276 82.6651C185.734 82.9522 185.287 83.3891 184.988 83.9236C183.425 86.8541 185.134 93.4193 188.874 98.8675L188.177 99.3451Z" fill="#263238"/>
<path d="M188.865 100.786C189.549 100.786 190.103 99.9778 190.103 98.9808C190.103 97.9838 189.549 97.1755 188.865 97.1755C188.181 97.1755 187.626 97.9838 187.626 98.9808C187.626 99.9778 188.181 100.786 188.865 100.786Z" fill="#263238"/>
<path d="M194.783 98.4951C194.783 99.4908 194.224 100.3 193.544 100.3C192.864 100.3 192.306 99.4908 192.306 98.4951C192.306 97.4994 192.864 96.6899 193.544 96.6899C194.224 96.6899 194.783 97.4994 194.783 98.4951Z" fill="#263238"/>
<path d="M210.771 83.7943C210.798 84.1929 210.707 84.5907 210.509 84.9377C210.311 85.2848 210.015 85.5658 209.658 85.7456C209.302 85.9254 208.9 85.996 208.503 85.9485C208.106 85.9011 207.732 85.7378 207.428 85.4789C207.123 85.2201 206.902 84.8772 206.792 84.4933C206.681 84.1093 206.686 83.7013 206.806 83.3202C206.926 82.9391 207.156 82.6019 207.467 82.3507C207.778 82.0996 208.155 81.9456 208.553 81.9081C209.097 81.8655 209.636 82.04 210.052 82.3935C210.467 82.7469 210.726 83.2506 210.771 83.7943Z" fill="#263238"/>
<path d="M187.626 82.3209C187.544 82.3197 187.463 82.2936 187.395 82.246C187.327 82.1983 187.275 82.1313 187.246 82.0538C186.158 78.7562 185.834 75.2544 186.299 71.8132C186.304 71.7592 186.32 71.7068 186.345 71.659C186.371 71.6112 186.406 71.569 186.448 71.5351C186.491 71.5011 186.539 71.4759 186.591 71.4612C186.644 71.4464 186.698 71.4422 186.752 71.449C186.86 71.4612 186.959 71.5157 187.028 71.6006C187.096 71.6855 187.128 71.794 187.116 71.9023C186.699 75.2158 187.008 78.5805 188.023 81.7623C188.044 81.8122 188.055 81.8658 188.055 81.9199C188.055 81.974 188.044 82.0275 188.023 82.0773C188.001 82.1272 187.971 82.1722 187.932 82.2099C187.893 82.2475 187.847 82.277 187.796 82.2966C187.742 82.3178 187.684 82.3262 187.626 82.3209Z" fill="#263238"/>
<path d="M209.532 83.7699C209.427 83.7701 209.325 83.7299 209.248 83.6577C209.172 83.5855 209.125 83.4866 209.119 83.3813C209.119 83.2923 208.544 74.2337 201.461 72.5661C201.355 72.541 201.263 72.4751 201.206 72.3825C201.148 72.29 201.129 72.1785 201.153 72.0723C201.18 71.9656 201.248 71.8736 201.342 71.8161C201.436 71.7586 201.548 71.7401 201.655 71.7646C209.338 73.578 209.937 83.2437 209.945 83.3409C209.948 83.3947 209.941 83.4486 209.923 83.4995C209.905 83.5504 209.877 83.5972 209.841 83.6372C209.805 83.6771 209.761 83.7095 209.712 83.7323C209.663 83.7551 209.61 83.7679 209.556 83.7699H209.532Z" fill="#263238"/>
<path d="M189.036 114.742L196.119 87.7608C196.244 87.3499 196.498 86.9903 196.844 86.7351C197.189 86.48 197.608 86.3429 198.037 86.3442L217.329 87.0646C217.515 87.061 217.7 87.1019 217.868 87.1839C218.035 87.2659 218.181 87.3867 218.292 87.5363C218.404 87.6859 218.478 87.86 218.509 88.044C218.54 88.2281 218.527 88.4168 218.47 88.5946L211.354 115.576C211.23 115.988 210.976 116.348 210.63 116.603C210.285 116.859 209.865 116.995 209.436 116.993L190.153 116.272C189.968 116.272 189.786 116.228 189.622 116.145C189.457 116.061 189.315 115.94 189.206 115.791C189.097 115.642 189.025 115.469 188.995 115.287C188.966 115.105 188.98 114.918 189.036 114.742Z" fill="#263238"/>
<path d="M189.237 115.22L196.353 88.2384C196.475 87.8262 196.729 87.465 197.075 87.2095C197.421 86.954 197.841 86.8179 198.271 86.8218L217.554 87.5422C217.741 87.5367 217.927 87.5764 218.096 87.6579C218.264 87.7394 218.411 87.8603 218.523 88.0104C218.635 88.1605 218.709 88.3354 218.739 88.5202C218.769 88.705 218.754 88.8944 218.695 89.0722L211.588 116.062C211.461 116.473 211.205 116.831 210.858 117.085C210.511 117.339 210.091 117.474 209.661 117.47L190.378 116.75C190.191 116.755 190.005 116.716 189.837 116.634C189.668 116.553 189.522 116.432 189.41 116.282C189.298 116.132 189.223 115.957 189.193 115.772C189.163 115.587 189.178 115.398 189.237 115.22Z" fill="#1987FB"/>
<path d="M186.702 106.121L187.042 103.101L191.641 98.3414C192.315 97.65 193.207 97.2125 194.166 97.1028L196.125 96.8761C196.449 96.8355 196.776 96.9131 197.047 97.0945C197.317 97.276 197.513 97.5492 197.599 97.8637L198.554 101.555C198.625 101.885 198.576 102.229 198.415 102.526C198.255 102.823 197.994 103.053 197.68 103.174L193.413 104.615C193.413 104.615 189.463 107.432 186.702 106.121Z" fill="#FFB573"/>
<path d="M184.445 81.2603C184.153 81.6408 183.781 82.1589 183.449 82.6203L182.437 84.0855C181.763 85.0731 181.115 86.0743 180.494 87.0889C179.254 89.0965 178.116 91.1662 177.086 93.2899C176.101 95.317 175.288 97.4239 174.658 99.588C174.07 101.464 173.816 103.428 173.905 105.392L172.083 102.389C171.573 102.065 171.59 102.178 171.703 102.203C171.906 102.268 172.115 102.316 172.326 102.348C172.95 102.457 173.58 102.522 174.212 102.543C175.668 102.584 177.125 102.539 178.576 102.405C180.065 102.276 181.555 102.065 183.012 101.79C184.434 101.524 185.835 101.159 187.205 100.697L189.893 107.173C188.246 107.919 186.547 108.544 184.809 109.043C183.126 109.541 181.418 109.952 179.693 110.274C177.927 110.608 176.143 110.835 174.35 110.954C173.361 111.019 172.368 111.019 171.379 110.954C170.78 110.917 170.184 110.833 169.598 110.703C168.658 110.515 167.765 110.137 166.975 109.594L165.445 108.59L165.154 106.598C164.744 103.514 164.906 100.38 165.631 97.3537C166.256 94.6172 167.111 91.9388 168.19 89.3474C169.221 86.8449 170.38 84.3969 171.662 82.0131C172.294 80.8312 172.95 79.6628 173.63 78.5079L174.682 76.7836C175.046 76.1927 175.378 75.6665 175.823 75.0107L184.445 81.2603Z" fill="#1987FB"/>
<path opacity="0.6" d="M184.445 81.2603C184.153 81.6408 183.781 82.1589 183.449 82.6203L182.437 84.0855C181.763 85.0731 181.115 86.0743 180.494 87.0889C179.254 89.0965 178.116 91.1662 177.086 93.2899C176.101 95.317 175.288 97.4239 174.658 99.588C174.07 101.464 173.816 103.428 173.905 105.392L172.083 102.389C171.573 102.065 171.59 102.178 171.703 102.203C171.906 102.268 172.115 102.316 172.326 102.348C172.95 102.457 173.58 102.522 174.212 102.543C175.668 102.584 177.125 102.539 178.576 102.405C180.065 102.276 181.555 102.065 183.012 101.79C184.434 101.524 185.835 101.159 187.205 100.697L189.893 107.173C188.246 107.919 186.547 108.544 184.809 109.043C183.126 109.541 181.418 109.952 179.693 110.274C177.927 110.608 176.143 110.835 174.35 110.954C173.361 111.019 172.368 111.019 171.379 110.954C170.78 110.917 170.184 110.833 169.598 110.703C168.658 110.515 167.765 110.137 166.975 109.594L165.445 108.59L165.154 106.598C164.744 103.514 164.906 100.38 165.631 97.3537C166.256 94.6172 167.111 91.9388 168.19 89.3474C169.221 86.8449 170.38 84.3969 171.662 82.0131C172.294 80.8312 172.95 79.6628 173.63 78.5079L174.682 76.7836C175.046 76.1927 175.378 75.6665 175.823 75.0107L184.445 81.2603Z" fill="white"/>
</g>
</svg>
