<svg width="21" height="20" viewBox="0 0 21 20" fill="none" xmlns="http://www.w3.org/2000/svg">
<path d="M10.5 0C4.71033 0 2.82192e-05 4.2392 2.82192e-05 9.45C2.82192e-05 11.2714 0.576128 13.0357 1.66883 14.5614C1.46198 16.8493 0.907578 18.5479 0.102578 19.3525C-0.00382178 19.459 -0.0304218 19.6217 0.0367782 19.7561C0.0962782 19.8762 0.218778 19.95 0.350028 19.95C0.366128 19.95 0.382228 19.9489 0.398678 19.9465C0.540428 19.9265 3.83323 19.4527 6.21498 18.0779C7.56738 18.6235 9.00798 18.9 10.5 18.9C16.2897 18.9 21 14.6608 21 9.45C21 4.2392 16.2897 0 10.5 0ZM5.60003 10.85C4.82793 10.85 4.20003 10.2221 4.20003 9.45C4.20003 8.6779 4.82793 8.05 5.60003 8.05C6.37213 8.05 7.00003 8.6779 7.00003 9.45C7.00003 10.2221 6.37213 10.85 5.60003 10.85ZM10.5 10.85C9.72793 10.85 9.10003 10.2221 9.10003 9.45C9.10003 8.6779 9.72793 8.05 10.5 8.05C11.2721 8.05 11.9 8.6779 11.9 9.45C11.9 10.2221 11.2721 10.85 10.5 10.85ZM15.4 10.85C14.6279 10.85 14 10.2221 14 9.45C14 8.6779 14.6279 8.05 15.4 8.05C16.1721 8.05 16.8 8.6779 16.8 9.45C16.8 10.2221 16.1721 10.85 15.4 10.85Z" fill="#858EA9"/>
</svg>
