<svg width="55" height="59" viewBox="0 0 55 59" fill="none" xmlns="http://www.w3.org/2000/svg">
<path d="M0 12.0745C0 5.40592 5.40593 0 12.0745 0H42.4284C49.0969 0 54.5029 5.40593 54.5029 12.0745V46.9255C54.5029 53.5941 49.0969 59 42.4284 59H12.0745C5.40594 59 0 53.5941 0 46.9255V12.0745Z" fill="white"/>
<path d="M0.402483 12.0745C0.402483 5.62821 5.62821 0.402483 12.0745 0.402483H42.4284C48.8746 0.402483 54.1004 5.62821 54.1004 12.0745V46.9255C54.1004 53.3718 48.8746 58.5975 42.4284 58.5975H12.0745C5.62822 58.5975 0.402483 53.3718 0.402483 46.9255V12.0745Z" stroke="#677294" stroke-opacity="0.16" stroke-width="0.8"/>
<line x1="27.7547" y1="13.7667" x2="27.7547" y2="46.2167" stroke="#677294"/>
</svg>
