<svg width="70" height="70" viewBox="0 0 70 70" fill="none" xmlns="http://www.w3.org/2000/svg">
<g clip-path="url(#clip0_1_117)">
<path d="M64.9511 16.4914H53.5086V5.04886C53.5086 2.26596 51.2426 0 48.4597 0H21.5364C18.7535 0 16.4875 2.26596 16.4875 5.04886V16.4914H5.04886C2.26596 16.4914 0 18.7535 0 21.5403V48.4636C0 51.2465 2.26596 53.5125 5.04886 53.5125H16.4914V64.955C16.4914 67.7379 18.7535 70.0039 21.5403 70.0039H48.4636C51.2465 70.0039 53.5125 67.7379 53.5125 64.955V53.5125H64.955C67.7379 53.5125 70.0039 51.2465 70.0039 48.4636V21.5403C70 18.7535 67.734 16.4914 64.9511 16.4914ZM64.613 48.1255H53.5086V27.2576H48.1255V64.613H21.8745V53.5086H42.7385V48.1255H5.38312V21.8745H16.4875V42.7385H21.8706V5.38312H48.1177V16.4875H27.2615V21.8706H64.6169V48.1255H64.613Z" fill="#5D5FEF"/>
</g>
<defs>
<clipPath id="clip0_1_117">
<rect width="70" height="70" fill="white"/>
</clipPath>
</defs>
</svg>
