<svg width="18" height="24" viewBox="0 0 18 24" fill="none" xmlns="http://www.w3.org/2000/svg">
<path d="M12.8034 14.41V23.2469L8.78662 21.6402L4.76988 23.2469V14.41" stroke="#091C3F" stroke-opacity="0.45" stroke-width="1.5" stroke-linecap="round" stroke-linejoin="round"/>
<path fill-rule="evenodd" clip-rule="evenodd" d="M3.16318 3.16318H6.37658L8.78662 0.753139L11.1967 3.16318H14.4101V6.37658L16.8201 8.78662L14.4101 11.1967V14.4101H11.1967L8.78662 16.8201L6.37658 14.4101H3.16318V11.1967L0.753139 8.78662L3.16318 6.37658V3.16318V3.16318Z" stroke="#091C3F" stroke-opacity="0.45" stroke-width="1.5" stroke-linecap="round" stroke-linejoin="round"/>
<path fill-rule="evenodd" clip-rule="evenodd" d="M6.37655 8.7866C6.37655 7.45545 7.45545 6.37655 8.7866 6.37655C10.1177 6.37655 11.1966 7.45545 11.1966 8.7866C11.1966 10.1177 10.1177 11.1966 8.7866 11.1966C7.45545 11.1966 6.37655 10.1177 6.37655 8.7866V8.7866Z" stroke="#091C3F" stroke-opacity="0.45" stroke-width="1.5" stroke-linecap="round" stroke-linejoin="round"/>
</svg>
