<svg width="20" height="20" viewBox="0 0 20 20" fill="none" xmlns="http://www.w3.org/2000/svg">
<path d="M7.93152 10.3049C9.643 10.3049 11.0351 8.96295 11.0351 7.3132C11.0351 5.66345 9.643 4.32151 7.93152 4.32151C6.22039 4.32151 4.82789 5.66345 4.82789 7.3132C4.82789 8.96295 6.22004 10.3049 7.93152 10.3049ZM5.86243 6.31597H6.89698V5.31874C6.89698 5.13492 7.05147 4.98633 7.24182 4.98633H8.62121C8.81157 4.98633 8.96606 5.13492 8.96606 5.31874V6.31597H10.0006C10.191 6.31597 10.3455 6.46456 10.3455 6.64838V7.97802C10.3455 8.16184 10.191 8.31043 10.0006 8.31043H8.96606V9.30766C8.96606 9.49148 8.81157 9.64007 8.62121 9.64007H7.24182C7.05147 9.64007 6.89698 9.49148 6.89698 9.30766V8.31043H5.86243C5.67208 8.31043 5.51759 8.16184 5.51759 7.97802V6.64838C5.51759 6.46456 5.67208 6.31597 5.86243 6.31597Z" fill="black"/>
<path d="M11.0351 1.66205V0.33241V0H4.82789V0.33241V1.66205V1.99446H11.0351V1.66205Z" fill="black"/>
<path d="M7.58731 7.9777V8.97493H8.277V7.9777C8.277 7.79388 8.43149 7.64529 8.62185 7.64529H9.65639V6.98047H8.62185C8.43149 6.98047 8.277 6.83188 8.277 6.64806V5.65083H7.58731V6.64806C7.58731 6.83188 7.43281 6.98047 7.24246 6.98047H6.20792V7.64529H7.24246C7.43281 7.64529 7.58731 7.79388 7.58731 7.9777Z" fill="black"/>
<path d="M14.9578 0.665H11.7248V1.32982H14.4836C14.674 1.32982 14.8284 1.47841 14.8284 1.66223V17.6179C14.8284 17.8017 14.674 17.9503 14.4836 17.9503H1.03454C0.844187 17.9503 0.689695 17.8017 0.689695 17.6179V1.66223C0.689695 1.47841 0.844187 1.32982 1.03454 1.32982H4.13817V0.665H0.560377C0.251394 0.665 0 0.907327 0 1.20517V18.075C0 18.3728 0.251394 18.6151 0.560377 18.6151H14.9578C15.2667 18.6151 15.5181 18.3728 15.5181 18.075V1.20517C15.5181 0.907327 15.2667 0.665 14.9578 0.665Z" fill="black"/>
<path d="M4.13816 1.9942H1.37938V17.2851H14.1387V1.9942H11.7248V2.32661C11.7248 2.51043 11.5703 2.65902 11.38 2.65902H4.48301C4.29265 2.65902 4.13816 2.51043 4.13816 2.32661V1.9942ZM8.62118 12.9637H4.48301C4.29265 12.9637 4.13816 12.8151 4.13816 12.6313C4.13816 12.4475 4.29265 12.2989 4.48301 12.2989H8.62118C8.81153 12.2989 8.96603 12.4475 8.96603 12.6313C8.96603 12.8151 8.81153 12.9637 8.62118 12.9637ZM11.0351 13.961C11.2255 13.961 11.38 14.1095 11.38 14.2934C11.38 14.4772 11.2255 14.6258 11.0351 14.6258H6.89694C6.70658 14.6258 6.55209 14.4772 6.55209 14.2934C6.55209 14.1095 6.70658 13.961 6.89694 13.961H11.0351ZM2.41392 12.2989H3.10362C3.29397 12.2989 3.44846 12.4475 3.44846 12.6313C3.44846 12.8151 3.29397 12.9637 3.10362 12.9637H2.41392C2.22356 12.9637 2.06907 12.8151 2.06907 12.6313C2.06907 12.4475 2.22356 12.2989 2.41392 12.2989ZM2.41392 13.961H5.51755C5.70791 13.961 5.8624 14.1095 5.8624 14.2934C5.8624 14.4772 5.70791 14.6258 5.51755 14.6258H2.41392C2.22356 14.6258 2.06907 14.4772 2.06907 14.2934C2.06907 14.1095 2.22356 13.961 2.41392 13.961ZM3.10362 16.2878H2.41392C2.22356 16.2878 2.06907 16.1392 2.06907 15.9554C2.06907 15.7716 2.22356 15.623 2.41392 15.623H3.10362C3.29397 15.623 3.44846 15.7716 3.44846 15.9554C3.44846 16.1392 3.29397 16.2878 3.10362 16.2878ZM8.62118 16.2878H4.48301C4.29265 16.2878 4.13816 16.1392 4.13816 15.9554C4.13816 15.7716 4.29265 15.623 4.48301 15.623H8.62118C8.81153 15.623 8.96603 15.7716 8.96603 15.9554C8.96603 16.1392 8.81153 16.2878 8.62118 16.2878ZM13.1042 16.2878H10.0006C9.81021 16.2878 9.65572 16.1392 9.65572 15.9554C9.65572 15.7716 9.81021 15.623 10.0006 15.623H13.1042C13.2946 15.623 13.449 15.7716 13.449 15.9554C13.449 16.1392 13.2946 16.2878 13.1042 16.2878ZM13.1042 14.6271H12.4145C12.2241 14.6271 12.0697 14.4785 12.0697 14.2947C12.0697 14.1109 12.2241 13.9623 12.4145 13.9623H13.1042C13.2946 13.9623 13.449 14.1109 13.449 14.2947C13.449 14.4785 13.2946 14.6271 13.1042 14.6271ZM13.1042 12.2989C13.2946 12.2989 13.449 12.4475 13.449 12.6313C13.449 12.8151 13.2946 12.9637 13.1042 12.9637H10.0006C9.81021 12.9637 9.65572 12.8151 9.65572 12.6313C9.65572 12.4475 9.81021 12.2989 10.0006 12.2989H13.1042ZM7.93148 3.65625C10.023 3.65625 11.7248 5.29669 11.7248 7.31276C11.7248 9.32882 10.023 10.9693 7.93148 10.9693C5.83998 10.9693 4.13816 9.32882 4.13816 7.31276C4.13816 5.29669 5.83964 3.65625 7.93148 3.65625Z" fill="black"/>
<path d="M17.2412 6.98046H20V8.97492H17.2412V6.98046Z" fill="black"/>
<path d="M17.2412 9.6399H20V14.2936H17.2412V9.6399Z" fill="black"/>
<path d="M19.1272 0H18.114C17.6326 0 17.2412 0.377618 17.2412 0.84133V2.32687V6.31579H20V2.32687V0.84133C20 0.377618 19.6086 0 19.1272 0V0Z" fill="black"/>
<path d="M17.2412 16.6203C17.2412 16.6924 17.2654 16.7622 17.3102 16.8197L18.2758 18.0606V18.9472C18.2758 19.131 18.4303 19.2796 18.6206 19.2796C18.811 19.2796 18.9655 19.131 18.9655 18.9472V18.0606L19.931 16.8197C19.9759 16.7622 20 16.6924 20 16.6203V14.9582H17.2412V16.6203Z" fill="black"/>
</svg>
