<svg width="72" height="69" viewBox="0 0 72 69" fill="none" xmlns="http://www.w3.org/2000/svg">
<path d="M7.49996 30C3.366 30 0 33.366 0 37.5V61.5C0 65.634 3.366 69 7.49996 69H16.5C18.189 69 19.7429 68.4301 21 67.482V30H7.49996Z" fill="#4157FF"/>
<path d="M72 41.25C72 39.4471 71.2861 37.767 70.047 36.528C71.4481 34.995 72.162 32.9399 71.967 30.801C71.616 26.9879 68.1809 23.9999 64.143 23.9999H45.612C46.53 21.2129 47.9999 16.104 47.9999 12C47.9999 5.49296 42.471 0 38.9999 0C35.883 0 33.6569 1.755 33.561 1.827C33.207 2.11205 33 2.54405 33 2.99996V13.1729L24.36 31.89L24 32.073V64.227C26.442 65.379 29.5319 66 31.5 66H59.0371C62.3041 66 65.1631 63.798 65.835 60.7591C66.18 59.196 65.979 57.621 65.2921 56.253C67.509 55.137 69.0001 52.854 69.0001 50.25C69.0001 49.188 68.7571 48.171 68.2951 47.2501C70.5121 46.1341 72 43.851 72 41.25Z" fill="#4157FF"/>
</svg>
